<?xml version="1.0" encoding="utf-8"?>
<!-- Generator: Adobe Illustrator 25.2.0, SVG Export Plug-In . SVG Version: 6.00 Build 0)  -->
<svg version="1.1" id="Layer_1" xmlns="http://www.w3.org/2000/svg" xmlns:xlink="http://www.w3.org/1999/xlink" x="0px" y="0px"
	 viewBox="0 0 250 250" style="enable-background:new 0 0 250 250;" xml:space="preserve">
<style type="text/css">
	.st0{fill:#203564;}
	.st1{fill:#CED0D3;}
	.st2{fill:#E8E7E7;}
	.st3{fill:#E73F4B;}
	.st4{fill:#E8571E;}
	.st5{fill:#E74651;}
	.st6{fill:#FEFDFD;}
	.st7{fill:#E9571E;}
</style>
<g>
	<g>
		<g>
			<path class="st0" d="M204.9,126c2-2.3,4.3-3.7,7.3-4c4.5-0.5,7.9,2.1,8.4,6.6c0.1,1.3,0.2,2.6,0.2,3.9c0,5.9,0,11.8,0,17.7
				c0,0.5,0,1,0,1.5c-3.6,0-7,0-10.7,0c0-0.5,0-1,0-1.5c0-5.9,0-11.9,0-17.8c0-1,0.1-2.3-1.1-2.6c-1.3-0.4-2.1,0.6-2.7,1.6
				c-0.4,0.6-0.6,1.4-0.6,2.1c0,5.5,0,11.1,0,16.6c0,0.5,0,1,0,1.6c-3.4,0-6.7,0-10,0c-1,0-0.7-0.8-0.7-1.3c0-5.9,0-11.7,0-17.6
				c0-0.5,0-1.1-0.1-1.6c-0.2-1.6-1.4-2.1-2.7-1c-1,0.9-1.7,1.9-1.7,3.4c0,5.5,0,11,0,16.5c0,0.5,0,1,0,1.6c-3.5,0-7,0-10.5,0
				c0-9.5,0-19,0-28.6c3,0,6,0,9.1,0c0.3,0.8,0.5,1.7,0.8,2.7C194.5,120.7,202.2,120.6,204.9,126z"/>
			<path class="st0" d="M81.9,124.2c0-4.5,0-8.8,0-13.4c3.6,0.4,7,0.7,10.5,1c0,13.4,0,26.6,0,39.9c-3.1,0-6.1,0-9.3,0
				c-0.1-0.8-0.3-1.6-0.5-2.6c-0.3,0.3-0.6,0.5-0.8,0.7c-4.2,4.6-13.5,4.3-16.4-2.7c-2.5-6.2-2.7-12.5,0.1-18.7
				C68.3,122.5,75.9,120,81.9,124.2z M81.9,137.1c0-1.5,0-3.1,0-4.6c0-1.6-0.9-2.7-2.5-2.9c-1.8-0.3-3.2,0.4-3.9,2.3
				c-1.4,3.8-1.3,7.7,0,11.5c0.3,0.8,1.3,1.5,2.2,1.7c2.1,0.6,4.3-1.3,4.3-3.5C81.9,140.2,81.9,138.6,81.9,137.1z"/>
			<path class="st0" d="M178.1,137.7c-0.1,4.8-1.4,9.4-5.8,12.5c-6.1,4.4-16,3.4-20.5-2.2c-3-3.6-3.5-8-3.2-12.5
				c0.3-3.4,1.3-6.6,3.7-9.2c3-3.3,6.9-4.4,11.2-4.3c4.8,0.1,9,1.5,11.9,5.7C177.5,130.7,178,134,178.1,137.7z M167,134.4
				c0-0.5-0.2-1.1-0.3-1.6c-0.5-2-1.7-3.1-3.4-3.1c-1.8,0-2.9,0.8-3.5,3c-0.8,3.4-0.8,6.8,0.1,10.1c0.5,1.7,1.6,2.6,3.2,2.6
				c1.5,0,3.4-0.9,3.7-3.3C167.4,139,167.1,135.4,167,134.4z"/>
			<path class="st0" d="M148,137.4c0,4.7-1.1,8.9-4.7,12.1c-4,3.5-8.7,4.1-13.7,3.1c-6.8-1.3-10.7-6.2-11.1-13.5
				c-0.2-3.1,0.1-6.1,1.4-9c1.7-3.9,4.6-6.3,8.7-7.4c3.4-0.9,6.8-0.8,10.1,0.2c5.3,1.6,8.7,6.2,9.2,12.1
				C147.9,135.8,147.9,136.6,148,137.4z M136.6,132.6c-0.4-1.9-1.6-2.9-3.2-2.9c-1.8-0.1-2.9,0.8-3.5,2.8c-0.9,3.4-0.9,6.8,0,10.2
				c0.5,1.8,1.7,2.7,3.3,2.7c1.6,0,2.9-0.9,3.3-2.8C136.9,140.9,136.9,134.2,136.6,132.6z"/>
			<path class="st0" d="M240.3,148.8c-1.9,2.6-4.4,3.8-7.3,4c-3.8,0.3-7.2-0.5-9.3-3.9c-2-3.1-2.1-6.6-0.3-9.9
				c1.4-2.6,3.8-3.8,6.5-4.4c2.2-0.4,4.4-0.5,6.7-0.8c0.5-0.1,1,0,1.4,0c0.5-2.7-0.4-4.2-2.8-4.2c-2.4,0-4.8,0.6-7.2,0.9
				c-0.4,0.1-1.4,0.4-1.4,0.4l-2.4-6.9c0,0,5.1-1.4,7.6-1.7c3.8-0.6,7.5-0.5,11.2,0.8c3.5,1.3,5.3,4,5.4,7.7
				c0.2,3.8,0.1,7.6,0.1,11.3c0,1.4,0,3,1.4,3.9c0.2,0.1,0.1,0.5,0.1,0.5s-1.3,4-1.9,6.1C245,152.5,242.3,151.7,240.3,148.8z
				 M238.2,139.3c-1.3,0.2-2.5,0.2-3.5,0.5c-1.8,0.5-2.5,2.6-1.7,4.3c0.5,1.1,1.5,1.5,2.6,1.3c1.2-0.2,2.4-0.7,2.6-2
				C238.3,142.2,238.2,140.9,238.2,139.3z"/>
			<path class="st0" d="M50.6,133.9c0.5-2.8-0.3-4.2-2.9-4.2c-2.3,0-4.6,0.5-6.9,0.9c-0.5,0.1-0.9,0.3-1.6,0.5
				c-0.7-2.1-2.4-6.5-2.4-6.5s0.6-0.4,0.9-0.5c5.6-2,11.4-2.8,17.2-1c4,1.2,6.1,4.2,6.2,8.4c0.1,3.5,0,6.9,0,10.4c0,1.5,0.8,4,0.8,4
				l0.7,0.8c0,0-1.3,4-1.9,6c-3.3,0.1-5.6-1-7.9-3.9c-0.4,0.5-0.7,1-1,1.4c-3.4,3.4-10.1,3.8-13.8,0.8c-2.9-2.4-3.6-5.5-3-9
				c0.6-3.7,3.1-5.9,6.5-6.8c2.5-0.7,5.1-0.8,7.7-1.1C49.7,133.8,50.1,133.9,50.6,133.9z M50.9,139.3c-1.3,0.1-2.3,0.1-3.4,0.4
				c-1.9,0.5-2.8,2.4-2,4.2c0.5,1.2,1.4,1.6,2.6,1.4c1.3-0.1,2.7-1.2,2.7-2.2C50.9,142,50.9,140.8,50.9,139.3z"/>
			<path class="st0" d="M94.8,130.9c0-2.7,0-5.1,0-7.6c7.7,0,15.3,0,23.1,0c0,2.3,0,4.6,0,6.9c0,0.4-0.4,0.9-0.7,1.2
				c-3.3,3.8-6.6,7.5-9.9,11.3c-0.3,0.3-0.6,0.7-1.1,1.3c4.2,0,8,0,12.1,0c-0.3,2.7-0.6,5.2-0.9,7.8c-7.9,0-15.7,0-23.7,0
				c0-2.4,0-4.8,0-7.2c0-0.3,0.4-0.7,0.7-1c3.3-3.8,6.7-7.6,10-11.3c0.3-0.4,0.6-0.7,1.2-1.4C101.8,130.9,98.4,130.9,94.8,130.9z"/>
		</g>
	</g>
	<path class="st1" d="M38.4,97.9c-0.4,5.9-1.7,11.6-4,17c-2,4.7-4.3,9.2-7.2,13.3c-0.8,1.2-1.4,2.8-2.7,3.3
		c-1.3,0.6-2.4-1.1-3.8-1.5c-0.8-0.3-1.6-0.7-2.3-1c-0.7-0.4-0.5-1-0.3-1.5c2.5-5.7,4.9-11.4,7.4-17.1c0.7-1.6,1.3-3.2,2-4.7
		c0.2-0.4,0.3-0.8,0.7-1.1c0.4-0.2,0.8-0.1,1.2,0c1.6,0.2,3.1-0.6,3.7-2c0.6-1.3,0.3-2.9-0.8-4c-0.3-0.3-0.8-0.6-1-1.1
		c0-0.8,0.3-1.5,1-2C34.6,95.8,36.6,96.7,38.4,97.9z"/>
	<path class="st2" d="M32.5,95.4c-0.3,0.6-0.8,1.2-0.8,2c-0.4,0.3-0.9,0.2-1.3,0.2c-1.5-0.1-2.8,0.6-3.4,1.9
		c-0.6,1.3-0.4,2.8,0.6,3.9c0.3,0.4,0.8,0.6,0.9,1.1c-3.3,7.7-6.7,15.3-10,23c-0.2,0.5-0.3,0.9,0,1.4c-2-0.8-4-1.8-6.2-2.3
		c-0.6-0.1-0.9-0.6-0.8-1.3c1.1-6.6,3.2-13,6-19c2.4-5,5.4-9.6,9.2-13.6C28.7,93.4,30.8,94,32.5,95.4z"/>
	<path class="st3" d="M0,124.3c0,0,1.5-3.5,2.2-5.2c0.2-0.4,0.5-0.5,0.8-0.7c3-1.4,6-2.8,9-4.1c0.3-0.1,1.2-0.5,1.2-0.5
		s-0.3,1-0.4,1.3c-1,3.3-1.9,6.5-2.4,9.9c-0.1,0.4,0,0.9-0.8,0.7C6.6,124.9,0,124.3,0,124.3z"/>
	<path class="st3" d="M32.5,95.4c-1.9-1-4-1.5-5.7-2.7c2.1-2.1,4.2-4.2,6.7-5.8c3-1.9,4.1-1.4,4.7,2.1c0.5,2.9,0.6,5.9,0.3,8.8
		C36.3,97.3,34.5,96.2,32.5,95.4z"/>
	<path class="st3" d="M32.3,137.7c-2.1-1.9-4.1-3.5-6.4-4.9c-0.3-0.2-0.6-0.3-0.3-0.7c2.4-3,4.5-6.3,6.5-9.9
		c1.3,3.8,3.9,11.7,3.9,11.7S33.8,135.1,32.3,137.7z"/>
	<path class="st4" d="M12.7,133.4c0-2.2,1.1-3.8,2.7-4.3c1.5-0.5,3,0,4,1.3c1,1.4,0.8,3.5-0.4,5c-0.1,0.1-0.1,0.1-0.2,0.2
		c-1.3,1.2-4.6,3.2-4.6,3.2S12.8,134.8,12.7,133.4z"/>
	<path class="st5" d="M28.5,104.5c-1.7-1.2-2.5-2.7-2.1-4.3c0.4-1.7,1.5-2.8,3.2-3c0.7-0.1,1.4,0.1,2.1,0.2c1.7,1,2.5,2.4,2.2,4.5
		c-0.2,1.4-1.6,2.6-3.1,2.9C29.9,105,29.2,104.6,28.5,104.5z"/>
	<path class="st2" d="M32.8,99.2c0.9,1.6,0.7,3.4-0.6,4.3c-1.6,1.2-3.1,1-4.6-0.5C28.2,100.8,30.5,99.1,32.8,99.2z"/>
	<path class="st6" d="M32.8,99.2c-2.3,0.6-4,1.8-5.2,3.8c-1.1-1.7-0.9-3.5,0.6-4.6C29.7,97.2,31.5,97.5,32.8,99.2z"/>
	<g>
		<g>
			<path class="st7" d="M12.2,143.1c-0.7,2.9-1.4,5.8-1.4,8.8c0,6.7,4.1,11.1,10.8,11.7c6.8,0.7,13.3-0.8,19.7-2.6
				c2.6-0.7,5.1-1.5,7.7-2.3c-6.6,2.5-13.3,4.5-20.3,5.2c-3.3,0.3-6.7,0.4-10-0.6c-5.4-1.7-8.1-5.3-8.2-10.9
				C10.5,149.2,11.1,146.1,12.2,143.1z"/>
			<path class="st7" d="M20,161.3c-4.6-1.2-7.2-4.4-7.4-9.5c-0.2-3.7,0.6-7.3,2.1-10.7c-1.1,3.7-2.1,7.5-1.6,11.5
				C13.5,157,15.8,159.9,20,161.3z"/>
		</g>
	</g>
</g>
</svg>
