<?xml version="1.0" encoding="UTF-8" standalone="no"?>
<svg xmlns:dc="http://purl.org/dc/elements/1.1/"
   xmlns:cc="http://creativecommons.org/ns#"
   xmlns:rdf="http://www.w3.org/1999/02/22-rdf-syntax-ns#"
   xmlns:svg="http://www.w3.org/2000/svg"
   xmlns="http://www.w3.org/2000/svg"
   xmlns:sodipodi="http://sodipodi.sourceforge.net/DTD/sodipodi-0.dtd"
   xmlns:inkscape="http://www.inkscape.org/namespaces/inkscape" version="1.1" id="Layer_1" x="0px" y="0px" viewBox="0 0 250.31311 68.699997" xml:space="preserve" sodipodi:docname="animaker.svg" width="250.31311" height="68.699997" inkscape:version="1.0.2-2 (e86c870879, 2021-01-15)">
   <metadata id="metadata509">
      <rdf:RDF>
         <cc:Work rdf:about="">
            <dc:format>image/svg+xml</dc:format>
            <dc:type rdf:resource="http://purl.org/dc/dcmitype/StillImage" />
            <dc:title></dc:title>
         </cc:Work>
      </rdf:RDF>
   </metadata>
   <defs id="defs507" />
   <sodipodi:namedview pagecolor="#ffffff" bordercolor="#666666" borderopacity="1" objecttolerance="10" gridtolerance="10" guidetolerance="10" inkscape:pageopacity="0" inkscape:pageshadow="2" inkscape:window-width="1680" inkscape:window-height="987" id="namedview505" showgrid="false" fit-margin-top="0" fit-margin-left="0" fit-margin-right="0" fit-margin-bottom="0" inkscape:zoom="2.94" inkscape:cx="125" inkscape:cy="34.4" inkscape:window-x="1672" inkscape:window-y="82" inkscape:window-maximized="1" inkscape:current-layer="Layer_1" />
   <style type="text/css" id="style2">
	.st0{fill:#292839;}
	.st1{fill:url(#SVGID_1_);}
	.st2{fill:url(#SVGID_2_);}
	.st3{fill:url(#SVGID_3_);}
	.st4{fill:url(#SVGID_4_);}
	.st5{fill:url(#SVGID_5_);}
	.st6{fill:url(#SVGID_6_);}
	.st7{fill:url(#SVGID_7_);}
	.st8{fill:url(#SVGID_8_);}
	.st9{fill:url(#SVGID_9_);}
	.st10{fill:url(#SVGID_10_);}
	.st11{fill:url(#SVGID_11_);}
	.st12{fill:url(#SVGID_12_);}
	.st13{fill:url(#SVGID_13_);}
	.st14{fill:url(#SVGID_14_);}
	.st15{fill:#FFAD00;}
	.st16{fill:#FFFFFF;}
	.st17{fill:#AC69E0;}
	.st18{opacity:0.25;fill:#FFFFFF;enable-background:new    ;}
	.st19{opacity:0.25;enable-background:new    ;}
	.st20{fill:#848484;}
	.st21{fill:#B9B9B8;}
	.st22{fill:#A09F9F;}
	.st23{fill:#D5CDD3;}
	.st24{opacity:0.2;}
	.st25{fill:#4F2976;}
	.st26{fill:#5E2E8C;}
	.st27{fill:#FFB418;}
	.st28{opacity:0.1;enable-background:new    ;}
	.st29{fill:#D0D0D0;}
	.st30{fill:#59584E;}
	.st31{fill:#82828A;}
	.st32{fill:#F5F4F4;}
	.st33{opacity:0.35;}
	.st34{fill:none;}
	.st35{opacity:0.5;fill:#231E20;enable-background:new    ;}
	.st36{opacity:0.1;fill:#231E20;enable-background:new    ;}
	.st37{fill:#202426;}
	.st38{fill:#7A3C94;}
	.st39{opacity:0.15;fill:#FFFFFF;enable-background:new    ;}
	.st40{opacity:0.7;fill:#FFFFFF;enable-background:new    ;}
   </style>
   <g id="g502" transform="translate(0,-90.6)">
      <path class="st0" d="m 79.8,130.3 c -0.9,-4.5 -2.1,-8.9 -3.7,-13.1 -0.1,-0.1 -0.1,-0.3 -0.2,-0.4 l 0.1,-0.2 c 1.3,-1.9 1.6,-4.3 1,-6.5 -0.7,-2.7 -1.7,-5.4 -3,-7.9 -1.2,-2.6 -3.8,-4.3 -6.6,-4.3 H 67.1 C 67,97.5 66.8,97.1 66.6,96.7 64.8,93 61,90.6 56.9,90.6 c -1.6,0 -3.1,0.3 -4.6,0.9 -1,0.3 -3.8,1 -7.7,2.2 -1,-0.5 -2.1,-0.7 -3.2,-0.6 -1.6,-0.5 -3.4,-0.8 -5.1,-0.7 -0.3,0 -0.6,0 -0.9,0 v 0 c -0.7,-0.1 -1.5,0 -2.2,0.2 -0.3,0.1 -0.5,0.1 -0.8,0.2 l -0.5,0.2 -0.6,0.3 -0.3,0.1 -0.6,0.3 -0.3,0.2 -0.6,0.4 -0.3,0.2 -0.5,0.4 -0.2,0.1 -0.5,0.5 c -0.1,0.1 -0.2,0.2 -0.3,0.3 -0.2,0.2 -0.3,0.3 -0.5,0.5 L 27,96.6 c -0.2,0.2 -0.3,0.4 -0.4,0.6 l -0.2,0.3 c -0.1,0.2 -0.3,0.4 -0.4,0.6 -0.1,0.1 -0.2,0.2 -0.2,0.3 -0.1,0.2 -0.2,0.4 -0.4,0.7 l -0.2,0.4 c -0.1,0.2 -0.2,0.5 -0.3,0.7 l -0.2,0.3 v 0 c -2.9,1.2 -5.9,2.5 -8.6,3.9 -0.4,0.2 -0.8,0.4 -1.1,0.6 0,-0.5 -0.1,-0.9 -0.2,-1.4 -0.1,-0.5 -0.4,-1 -0.6,-1.4 -1.3,-2.4 -3.7,-4 -6.5,-4 H 7.2 c -2.2,0.1 -4.3,1.2 -5.6,3 -0.5,0.6 -0.9,1.3 -1.2,2 -0.3,0.9 -0.4,1.8 -0.4,2.7 0,0.6 0.1,1.2 0.3,1.8 0.1,0.9 0.3,1.7 0.7,2.5 0.3,1.6 1.3,3 2.8,3.8 0.1,0.2 0.2,0.5 0.3,0.7 0.1,0.1 0.1,0.3 0.2,0.4 l 1.8,3.8 c 0.4,0.9 0.7,1.6 0.9,2.2 -0.2,0.7 -0.2,1.3 -0.2,2 0.2,2.9 2.2,5.4 5,6.2 h 0.4 c 0.5,0.4 0.9,0.7 1.4,0.9 0.5,0.2 1,0.4 1.5,0.5 l 0.4,0.2 6.3,16.4 c 0.5,1.4 1,2.9 1.6,4.5 0.3,1.2 0.9,2.4 1.6,3.4 0.7,1.1 1.7,1.9 2.8,2.6 1.6,1 3.5,1.5 5.4,1.5 v 0 c 0.8,0 1.6,0 2.4,-0.1 1,-0.2 25.9,-4.9 39.9,-14.9 3,-2.1 4.9,-5.4 5.1,-9.1 0.1,-1.6 -0.1,-3.3 -0.8,-4.9 z M 68.7,102.1 c 0,0.3 0,0.5 0,0.8 0.1,-0.3 0.1,-0.5 0,-0.8 z" id="path4" />
      <path class="st0" d="m 244.3,108.5 c -0.8,-0.2 -1.6,-0.2 -2.4,-0.3 -1.5,0 -3,0.4 -4.3,1 -1.1,-0.3 -2.2,-0.5 -3.3,-0.5 h -0.1 c -2.2,0 -4.4,0.7 -6.2,2.2 l -0.4,-0.3 c -4.5,-3.1 -10.4,-3.4 -15.2,-0.8 -1.4,-0.8 -2.9,-1.2 -4.5,-1.1 H 206 v -0.5 c 0,-5.5 -4.5,-10 -10,-10 h -0.4 c -5.5,0 -10,4.5 -10,10 v 0.5 h -0.6 -0.4 c -1,0 -2,0.1 -3,0.3 -1.5,-0.6 -3.1,-1 -4.7,-1 -2.5,0 -5,0.8 -7,2.3 -2,-1.5 -4.4,-2.4 -7,-2.4 -1.8,0 -3.6,0.3 -5.2,1.1 -1.5,-0.7 -3.2,-1.1 -4.9,-1.1 -1.7,0 -3.4,0.4 -5,1.1 -1.1,-0.3 -2.2,-0.4 -3.4,-0.4 H 144 c -0.3,0 -0.7,0 -1,0 -0.3,-2.4 -1.3,-4.6 -3,-6.2 -4,-4 -10.6,-4 -14.6,0 -1.5,1.5 -2.5,3.5 -2.9,5.7 -0.6,-0.1 -1.2,-0.2 -1.9,-0.2 -1.7,0 -3.4,0.4 -5,1.1 -1.1,-0.3 -2.2,-0.4 -3.3,-0.4 H 112 c -2.2,0 -4.3,0.7 -6,2 v -0.1 c -1.4,-5.4 -6,-10.9 -12,-10.9 -6,0 -10.5,5.5 -12,10.9 l -4.6,17.2 c -1.2,3.6 -0.6,7.6 1.4,10.8 1.6,2.2 4.1,3.6 6.8,3.8 h 0.9 c 2.8,0.1 5.5,-1 7.6,-2.9 2.1,1.9 4.7,2.9 7.5,2.9 v 0 h 0.7 c 1.5,-0.1 3,-0.5 4.4,-1.3 1.6,1 3.4,1.5 5.3,1.5 h 0.4 c 1.7,0 3.3,-0.4 4.8,-1.2 1.5,0.8 3.1,1.2 4.8,1.2 h 0.4 c 1.8,0 3.6,-0.5 5.1,-1.4 1.6,1 3.4,1.5 5.2,1.5 h 0.4 c 2,0 3.9,-0.6 5.6,-1.7 1.6,1.1 3.6,1.7 5.5,1.7 h 0.4 c 1.7,0 3.3,-0.4 4.7,-1.2 1.5,0.8 3.1,1.2 4.8,1.2 h 0.4 c 1.7,0 3.3,-0.4 4.8,-1.3 1.5,0.8 3.1,1.3 4.8,1.3 h 0.4 c 2,0 3.9,-0.6 5.5,-1.7 2,1.5 4.5,2.4 7.1,2.3 1.7,0 3.3,-0.4 4.8,-1.1 1,0.2 2,0.4 3,0.4 h 0.3 c 1.9,0 3.7,-0.5 5.3,-1.6 1.6,1 3.4,1.6 5.3,1.6 h 0.4 c 1.8,0 3.6,-0.5 5.1,-1.4 1.7,0.9 3.6,1.4 5.5,1.4 h 1.3 c 1.6,0 3.2,-0.4 4.5,-1.1 2.2,1.2 4.6,1.8 7.1,1.8 3,0 5.9,-1.1 8.2,-2.9 1.8,1.5 4.1,2.3 6.5,2.3 h 0.4 c 5.5,0 10,-4.5 10,-10 v -4.7 c 3.6,-1.7 5.7,-5.4 5.5,-9.3 v -3.1 c -0.3,-3.4 -2.7,-6.3 -6,-7 z" id="path6" />

      <linearGradient id="SVGID_1_" gradientUnits="userSpaceOnUse" x1="138.04201" y1="122.862" x2="144.61929" y2="122.862" gradientTransform="matrix(1,0,0,-1,-8.53,244)">
         <stop offset="0" style="stop-color:#FF5700" id="stop8" />
         <stop offset="1" style="stop-color:#FFAD00" id="stop10" />
      </linearGradient>
      <path class="st1" d="m 129.5,109.9 c 0,-0.9 0.3,-1.7 1,-2.4 1.3,-1.3 3.3,-1.3 4.6,0 0,0 0,0 0,0 0.6,0.6 1,1.5 1,2.4 0,0.9 -0.3,1.7 -1,2.3 -1.3,1.3 -3.3,1.3 -4.6,0 0,0 0,0 0,0 -0.6,-0.5 -1,-1.4 -1,-2.3 z m 0.2,8.9 c 0,-1.6 1.3,-2.8 2.8,-2.9 h 0.4 c 1.6,0 2.9,1.3 2.9,2.9 v 13.9 c 0,1.6 -1.3,2.9 -2.9,2.9 h -0.4 c -1.6,0 -2.9,-1.3 -2.9,-2.9 0,0 0,0 0,0 z" id="path13" style="fill:url(#SVGID_1_)" />

      <linearGradient id="SVGID_2_" gradientUnits="userSpaceOnUse" x1="219.86771" y1="118.3551" x2="236.0295" y2="118.3551" gradientTransform="matrix(1,0,0,-1,-8.53,244)">
         <stop offset="0" style="stop-color:#FF5700" id="stop15" />
         <stop offset="1" style="stop-color:#FFAD00" id="stop17" />
      </linearGradient>
      <path class="st2" d="m 220.9,131.1 c -0.4,0.4 -0.9,0.6 -1.4,0.6 -0.9,0 -1.7,-0.6 -1.9,-1.5 -0.4,-1.2 0.3,-2.5 1.6,-2.9 0.3,-0.1 0.5,-0.1 0.8,-0.1 h 7.5 c 0.1,-2.4 -0.3,-4.8 -1,-7.1 -0.6,-1.5 -1.6,-2.7 -2.9,-3.6 -1.2,-0.9 -2.7,-1.3 -4.2,-1.4 -2.3,-0.1 -4.4,1 -5.8,2.8 -1.5,2.2 -2.3,4.8 -2.2,7.5 -0.2,2.8 0.6,5.6 2.2,7.9 1.4,1.9 3.6,3 5.9,2.9 2.6,-0.2 4.9,-1.8 6.1,-4.1 0.8,-1.4 -0.2,-2.4 -1.6,-2.6 -1.3,-0.2 -3.1,1.6 -3.1,1.6 z m -3.7,-7.2 c -0.1,-1.1 0.1,-2.1 0.5,-3.1 0.3,-0.6 1,-1 1.8,-1 0.2,0 0.4,0 0.6,0 0.5,0.1 0.9,0.5 1.2,0.9 0.1,0.2 0.2,0.4 0.2,0.6 v 0 c 0.2,0.8 0.3,1.6 0.3,2.4 z" id="path20" style="fill:url(#SVGID_2_)" />

      <linearGradient id="SVGID_3_" gradientUnits="userSpaceOnUse" x1="123.8768" y1="118.5849" x2="133.75191" y2="118.5849" gradientTransform="matrix(1,0,0,-1,-8.53,244)">
         <stop offset="0" style="stop-color:#FF5700" id="stop22" />
         <stop offset="1" style="stop-color:#FFAD00" id="stop24" />
      </linearGradient>
      <path class="st3" d="m 124,116.6 c -0.8,-0.9 -2,-1.4 -3.3,-1.4 -1.2,0 -2.4,0.4 -3.3,1.2 -1.1,1.1 -2,2 -2.2,2.2 v 4.3 c 0,-1 0.9,-1.8 1.9,-1.7 0,0 0,0 0,0 0.5,0 0.9,0.2 1.2,0.6 l 0.3,0.4 c 0,0.7 0.2,2.5 0.2,4.2 v 6.3 c 0,1.6 1.3,2.9 2.9,2.9 h 0.4 c 1.6,0 2.9,-1.3 2.9,-2.9 0,0 0,0 0,0 v -12.4 c 0.2,-1.3 -0.2,-2.6 -1,-3.7 z" id="path27" style="fill:url(#SVGID_3_)" />

      <linearGradient id="SVGID_4_" gradientUnits="userSpaceOnUse" x1="117.9259" y1="118.2375" x2="123.3162" y2="118.2375" gradientTransform="matrix(1,0,0,-1,-8.53,244)">
         <stop offset="0" style="stop-color:#FF5700" id="stop29" />
         <stop offset="1" style="stop-color:#FFAD00" id="stop31" />
      </linearGradient>
      <path class="st4" d="m 115.3,118.6 v 0 c 0,-0.4 0,-0.9 0,-1.3 0,-0.7 -1.3,-1.3 -2.9,-1.3 H 112 c -1.6,0 -2.9,1.3 -2.9,2.9 0,0 0,0 0,0 v 13.9 c 0,1.6 1.3,2.9 2.9,2.9 v 0 h 0.4 c 1.6,0 2.9,-1.3 2.9,-3 0,0 0,0 0,0 v -9 c 0,-0.3 0,-0.5 0,-0.8 z" id="path34" style="fill:url(#SVGID_4_)" />

      <linearGradient id="SVGID_5_" gradientUnits="userSpaceOnUse" x1="165.72729" y1="118.5831" x2="175.7748" y2="118.5831" gradientTransform="matrix(1,0,0,-1,-8.53,244)">
         <stop offset="0" style="stop-color:#FF5700" id="stop36" />
         <stop offset="1" style="stop-color:#FFAD00" id="stop38" />
      </linearGradient>
      <path class="st5" d="m 162.9,115.2 c -1.1,0 -2.1,0.3 -3,0.8 -1,0.7 -1.9,1.5 -2.7,2.4 v 14.9 c 0,-0.2 0,-0.4 0,-0.6 v -8.8 c 0,-1.9 0.6,-2.8 1.9,-2.8 h 1.2 c 0.4,1.9 0.6,3.8 0.6,5.8 v 5.8 c 0,1.6 1.3,2.9 2.9,2.9 v 0 h 0.4 c 1.6,0 2.9,-1.3 2.9,-2.9 0,0 0,0 0,0 v -11.4 c 0.1,-4.1 -1.3,-6.1 -4.2,-6.1 z" id="path41" style="fill:url(#SVGID_5_)" />

      <linearGradient id="SVGID_6_" gradientUnits="userSpaceOnUse" x1="155.89529" y1="118.5536" x2="165.72729" y2="118.5536" gradientTransform="matrix(1,0,0,-1,-8.53,244)">
         <stop offset="0" style="stop-color:#FF5700" id="stop43" />
         <stop offset="1" style="stop-color:#FFAD00" id="stop45" />
      </linearGradient>
      <path class="st6" d="m 157.2,118.4 -0.2,0.2 c -0.4,-2.1 -2.2,-3.5 -4.3,-3.4 -1.2,0 -2.3,0.5 -3.2,1.2 -1.2,1.1 -2.2,1.4 -2.2,0.7 0,0 0,-0.1 0,-0.1 v 15.9 c 0,0 0,-0.2 0,-0.2 v -9 c 0,-0.7 0.1,-1.3 0.5,-1.9 0.3,-0.4 0.8,-0.7 1.3,-0.7 0.5,0 1,0.2 1.3,0.7 l 0.3,0.5 c 0,0.7 0.2,2.7 0.2,4.3 v 6.1 c 0,1.6 1.3,2.9 2.9,2.9 h 0.4 c 1.4,0 2.6,-1 2.8,-2.3 z" id="path48" style="fill:url(#SVGID_6_)" />

      <linearGradient id="SVGID_7_" gradientUnits="userSpaceOnUse" x1="149.6857" y1="118.2375" x2="155.89529" y2="118.2375" gradientTransform="matrix(1,0,0,-1,-8.53,244)">
         <stop offset="0" style="stop-color:#FF5700" id="stop50" />
         <stop offset="1" style="stop-color:#FFAD00" id="stop52" />
      </linearGradient>
      <path class="st7" d="m 147.4,117 c -0.1,-0.6 -1.4,-1.1 -2.9,-1.1 h -0.4 c -1.6,0 -2.9,1.3 -2.9,2.9 0,0 0,0 0,0 v 13.9 c 0,1.6 1.3,2.9 2.9,2.9 v 0 h 0.4 c 1.5,0 2.8,-1.2 2.9,-2.7 z" id="path55" style="fill:url(#SVGID_7_)" />

      <linearGradient id="SVGID_8_" gradientUnits="userSpaceOnUse" x1="179.2462" y1="118.227" x2="191.8811" y2="118.227" gradientTransform="matrix(1,0,0,-1,-8.53,244)">
         <stop offset="0" style="stop-color:#FF5700" id="stop57" />
         <stop offset="1" style="stop-color:#FFAD00" id="stop59" />
      </linearGradient>
      <path class="st8" d="m 179.4,116 c -0.7,-0.5 -1.6,-0.8 -2.5,-0.7 -1.9,0 -3.6,1.1 -4.5,2.8 -1.2,2.3 -1.8,4.9 -1.7,7.5 -0.1,2.7 0.4,5.4 1.7,7.8 0.8,1.7 2.6,2.8 4.5,2.9 0.9,0 1.7,-0.3 2.5,-0.8 v 0 0 c 0.3,-0.2 0.6,-0.5 0.8,-0.8 l 0.9,-1.2 c 1.1,-1.8 1.7,-3.8 2,-5.9 0.4,-3.2 -0.2,-6.4 -1.7,-9.3 -0.6,-0.8 -1.2,-1.6 -2,-2.3 z m 2.1,9.6 c 0,3.4 -0.8,5.1 -2.3,5.1 -1.5,0 -2.5,-1.7 -2.5,-5.1 0,-3.4 0.9,-4.9 2.5,-4.9 1.6,0 2.4,1.7 2.4,4.9 z" id="path62" style="fill:url(#SVGID_8_)" />

      <linearGradient id="SVGID_9_" gradientUnits="userSpaceOnUse" x1="190.1347" y1="118.2375" x2="196.36591" y2="118.2375" gradientTransform="matrix(1,0,0,-1,-8.53,244)">
         <stop offset="0" style="stop-color:#FF5700" id="stop64" />
         <stop offset="1" style="stop-color:#FFAD00" id="stop66" />
      </linearGradient>
      <path class="st9" d="m 184.9,115.9 h -0.4 c -1.6,0 -2.9,0.6 -2.9,1.2 v 7.3 c 0,0.4 0,0.8 0,1.2 0,0.4 0,0.9 0,1.3 v 6.1 c 0,0.4 0,0.9 0,1.3 0,0.7 1.3,1.3 2.9,1.3 h 0.3 c 1.6,0 2.9,-1.3 2.9,-2.9 v -13.9 c 0.1,-1.6 -1.2,-2.9 -2.8,-2.9 z" id="path69" style="fill:url(#SVGID_9_)" />

      <linearGradient id="SVGID_10_" gradientUnits="userSpaceOnUse" x1="207.4268" y1="118.3022" x2="218.16431" y2="118.3022" gradientTransform="matrix(1,0,0,-1,-8.53,244)">
         <stop offset="0" style="stop-color:#FF5700" id="stop71" />
         <stop offset="1" style="stop-color:#FFAD00" id="stop73" />
      </linearGradient>
      <path class="st10" d="m 205.8,127.2 c -0.8,-1.6 -0.7,-3.4 0.2,-4.9 l 2.9,-4.1 c 0.9,-1.3 0.4,-2.4 -1.2,-2.4 h -1.6 c -1.8,0.1 -3.4,1 -4.4,2.5 l -1.2,2 c -0.8,1.3 -1.4,2.4 -1.5,2.5 v 3.1 c 0,0.1 0.6,1.3 1.3,2.6 l 2.2,4.3 c 0.9,1.6 2.5,2.6 4.3,2.7 h 1.3 c 1.6,0 2.2,-1.1 1.4,-2.5 z" id="path76" style="fill:url(#SVGID_10_)" />

      <linearGradient id="SVGID_11_" gradientUnits="userSpaceOnUse" x1="201.13091" y1="123.4769" x2="207.4268" y2="123.4769" gradientTransform="matrix(1,0,0,-1,-8.53,244)">
         <stop offset="0" style="stop-color:#FF5700" id="stop78" />
         <stop offset="1" style="stop-color:#FFAD00" id="stop80" />
      </linearGradient>
      <path class="st11" d="m 198.9,122.9 v 0 c 0,0 0,-1.3 0,-2.9 v -11.6 c 0,-1.6 -1.3,-2.9 -2.9,-2.9 h -0.4 c -1.6,0 -2.9,1.3 -2.9,2.9 v 24.4 c 0,1.6 1.3,2.9 2.9,2.9 v 0 h 0.4 c 1.6,0 2.9,-1.3 2.9,-2.9 V 129 c 0,-1.6 0,-2.9 0,-2.9 v 0 z" id="path83" style="fill:url(#SVGID_11_)" />

      <linearGradient id="SVGID_12_" gradientUnits="userSpaceOnUse" x1="245.9137" y1="123.423" x2="251.4334" y2="123.423" gradientTransform="matrix(1,0,0,-1,-8.53,244)">
         <stop offset="0" style="stop-color:#FF5700" id="stop85" />
         <stop offset="1" style="stop-color:#FFAD00" id="stop87" />
      </linearGradient>
      <path class="st12" d="m 239,116.9 c -1,1.3 -1.6,2.4 -1.6,2.4 v 6.6 c 0,-3 1.1,-4.4 3.4,-4.4 h 0.6 c 0.8,0.1 1.4,-1.1 1.4,-2.7 v -3.2 c -0.3,-0.1 -0.7,-0.1 -1,-0.1 -1,0 -2.1,0.5 -2.8,1.4 z" id="path90" style="fill:url(#SVGID_12_)" />

      <linearGradient id="SVGID_13_" gradientUnits="userSpaceOnUse" x1="239.6825" y1="118.2375" x2="245.9137" y2="118.2375" gradientTransform="matrix(1,0,0,-1,-8.53,244)">
         <stop offset="0" style="stop-color:#FF5700" id="stop92" />
         <stop offset="1" style="stop-color:#FFAD00" id="stop94" />
      </linearGradient>
      <path class="st13" d="m 237.4,119 c 0,-0.3 0,-0.8 0,-1.4 0,-0.6 -1.6,-1.7 -3.2,-1.7 h -0.1 c -1.6,0 -2.9,1.3 -2.9,2.9 0,0 0,0 0,0 v 13.9 c 0,1.6 1.3,2.9 2.9,2.9 v 0 h 0.4 c 1.6,0 2.9,-1.3 2.9,-2.9 0,0 0,0 0,0 z" id="path97" style="fill:url(#SVGID_13_)" />

      <linearGradient id="SVGID_14_" gradientUnits="userSpaceOnUse" x1="92.445702" y1="122.7896" x2="112.6917" y2="122.7896" gradientTransform="matrix(1,0,0,-1,-8.53,244)">
         <stop offset="0" style="stop-color:#FF5700" id="stop99" />
         <stop offset="1" style="stop-color:#FFAD00" id="stop101" />
      </linearGradient>
      <path class="st14" d="M 103.7,129.8 99.1,112.6 C 98.3,109.5 96,107 94,107 c -2,0 -4.3,2.5 -5.2,5.6 l -4.6,17.2 c -0.8,3.1 0,5.5 1.8,5.6 2.7,0.2 3.6,-1.1 3.9,-2.4 0.3,-1.3 0.7,-2.6 1.4,-3.8 1.5,-0.9 3.5,-0.9 5,0 0.7,1.1 1.3,2.4 1.6,3.7 0.6,1.6 2.2,2.6 3.9,2.4 2.6,0 2.7,-2.4 1.9,-5.5 z M 96,125.5 h -4.4 c -0.3,0 -0.6,-0.2 -0.6,-0.6 0,-0.1 0,-0.1 0,-0.2 0,0 1.4,-5.4 2.3,-8.8 v 0 l 0.1,-0.5 c 0,-0.3 0.3,-0.5 0.5,-0.5 0.3,0 0.5,0.2 0.6,0.5 l 2.2,9.3 c 0.1,0.3 0,0.6 -0.3,0.8 -0.2,0.1 -0.3,0.1 -0.4,0 z" id="path104" style="fill:url(#SVGID_14_)" />
      <path class="st15" d="m 63.7,103.8 c -0.2,0.1 -0.3,0.2 -0.5,0.3 0.6,-0.2 3,-1.1 3.5,-1.1 0.9,-0.3 1.8,0.1 2.1,1 0,0 0,0.1 0,0.1 1.1,2.2 2,4.5 2.7,6.9 0,0 0.6,2.2 -0.8,2.2 -1,0.4 -2.1,0.7 -3.2,1 l -3.8,-10.4" id="path106" />
      <path class="st16" d="m 65.2,106.9 c 0.2,-0.3 0.4,-0.5 0.5,-0.8 0,-0.1 0.2,-0.3 0.3,-0.4 l 0.2,-0.4 c 0.2,-0.3 0.4,-0.5 0.7,-0.7 0.3,-0.2 0.6,-0.3 1,-0.1 0.2,0.1 0.3,0.2 0.3,0.4 0.1,0.2 0.1,0.3 0.1,0.5 0.1,0.3 0.1,0.7 0,1 v 0.2 c 0,0.1 0,0.2 0,0.2 -0.1,0.2 -0.2,0.3 -0.4,0.4 -0.1,0.1 -0.3,0.2 -0.5,0.2 H 67.2 67 c -0.1,-0.1 -0.2,-0.1 -0.2,-0.2 0,-0.1 0,-0.2 0,-0.3 v -0.1 0 c 0,0 0,-0.1 0,-0.2 0.1,-0.1 0.1,-0.1 0.2,-0.2 l 0.2,-0.2 c 0.2,-0.2 0.3,-0.4 0.6,-0.6 0.3,-0.1 0.7,-0.1 1,0 0.1,0 0.2,0.1 0.2,0.2 0.1,0.1 0.1,0.1 0.2,0.2 0,0.1 0,0.2 0,0.3 0,0 0,0.1 0,0.1 v 0.1 c 0,0.3 0,0.7 0,1 0,0.2 -0.1,0.3 -0.2,0.5 l -0.2,0.2 -0.2,0.2 c -0.1,0.1 -0.3,0.2 -0.4,0.3 -0.1,0.1 -0.3,0.2 -0.5,0.2 -0.1,0 -0.2,0 -0.3,0 -0.1,-0.1 -0.2,-0.2 -0.2,-0.3 0,0 0,-0.1 0,-0.1 v 0 0 0 c 0,-0.1 0,-0.2 0,-0.3 0.1,-0.2 0.2,-0.3 0.4,-0.4 l 0.5,-0.2 c 0.1,-0.1 0.3,-0.2 0.5,-0.2 0.2,-0.1 0.4,-0.1 0.5,0 0.2,0 0.3,0.1 0.5,0.3 0.1,0.1 0.2,0.3 0.3,0.5 0,0.2 0,0.4 0,0.5 0,0.2 0,0.3 0,0.5 -0.1,0.3 -0.3,0.6 -0.5,0.9 -0.1,0.1 -0.3,0.2 -0.4,0.3 -0.1,0.1 -0.3,0.1 -0.5,0.2 -0.2,0 -0.3,0 -0.5,0 -0.2,0 -0.4,0 -0.5,-0.1 -0.1,0 -0.2,-0.1 -0.2,-0.2 h -0.1 v -0.2 -0.1 0 0 0 l 0.1,-0.1 0.2,-0.1 v 0 0 0 l 0.2,-0.1 c 0.1,-0.1 0.3,-0.2 0.5,-0.2 0.2,-0.1 0.3,-0.1 0.5,-0.2 h 0.5 c 0.2,0.1 0.3,0.1 0.5,0.3 0.1,0.1 0.1,0.1 0.2,0.2 0,0.1 0,0.2 0,0.3 l 0.2,-0.2 c 0,0.1 0,0.2 0,0.2 0,0.2 -0.1,0.3 -0.1,0.5 -0.1,0.2 -0.2,0.3 -0.3,0.4 l -0.5,0.2 c -0.2,0.1 -0.3,0.1 -0.5,0.2 h -0.5 l -0.5,-0.2 -0.5,-0.1 H 67 66.8 c -0.1,0 -0.2,0 -0.2,0 0,0 -0.2,0 -0.2,0 -0.1,0 0.2,0 0.2,0 h 0.2 0.2 0.2 c 0.2,0 0.3,0.1 0.5,0.1 0.1,0.1 0.3,0.1 0.5,0.1 0.3,0 0.6,0 0.9,-0.2 l 0.4,-0.2 c 0.1,-0.1 0.2,-0.2 0.3,-0.3 0,-0.2 0,-0.3 0,-0.5 0,-0.2 0,-0.3 0,-0.5 0,-0.1 0,-0.3 -0.1,-0.4 -0.1,-0.1 -0.2,-0.2 -0.4,-0.2 -0.3,-0.1 -0.6,0 -0.9,0.1 l -0.4,0.2 h -0.1 v 0 0 0 l -0.2,0.1 v 0 0 c 0,0 0,0.1 0,0.2 h 0.2 c 0.1,0.1 0.3,0.1 0.4,0.1 0.2,0 0.3,0 0.5,0 0.1,0 0.3,-0.1 0.4,-0.2 0.1,-0.1 0.2,-0.2 0.3,-0.3 0.2,-0.2 0.3,-0.5 0.4,-0.8 0,-0.2 0,-0.3 0,-0.5 0,-0.1 0,-0.3 0,-0.4 -0.1,-0.1 -0.1,-0.3 -0.2,-0.4 -0.1,-0.1 -0.2,-0.2 -0.3,-0.2 -0.3,0 -0.6,0 -0.8,0.2 l -0.4,0.2 c -0.1,0.1 -0.2,0.2 -0.3,0.3 0,0 0,0.1 0,0.2 0,0.1 0,0.1 0,0.2 0,0.1 0,0.1 0.2,0.1 0.1,0 0.3,-0.1 0.4,-0.2 0.1,-0.1 0.3,-0.2 0.4,-0.3 l 0.2,-0.2 c 0.1,0 0.1,-0.1 0.1,-0.2 0.1,-0.1 0.1,-0.2 0.2,-0.4 0,-0.3 0,-0.6 0,-0.9 v 0.1 c 0,-0.1 0,-0.1 0,-0.2 0,-0.1 -0.1,-0.2 -0.2,-0.3 h -0.4 c -0.2,0 -0.3,0 -0.5,0 -0.3,0.1 -0.5,0.3 -0.8,0.5 l -0.2,0.2 -0.2,0.2 c 0,0 0,0 0,0.2 0,0.1 0,0.1 0,0.2 0,0 0,0.1 0.1,0.1 h 0.2 c 0.1,0 0.3,-0.1 0.4,-0.2 0.1,-0.1 0.2,-0.2 0.3,-0.3 0.1,-0.1 0.1,-0.3 0.2,-0.4 0.1,-0.3 0.1,-0.6 0,-0.9 0,-0.2 0,-0.3 0,-0.5 -0.1,-0.1 -0.2,-0.2 -0.3,-0.3 -0.1,0 -0.3,0 -0.4,0 -0.2,0 -0.3,0.1 -0.4,0.2 -0.2,0.2 -0.5,0.4 -0.6,0.7 -0.1,0.1 -0.2,0.3 -0.3,0.4 l -0.4,0.6 -0.2,0.4 c -0.3,0 -0.4,0.2 -0.5,0.3 z" id="path108" />
      <path class="st16" d="m 65.1,103.8 c 0.2,-0.1 0.4,-0.2 0.6,-0.3 0.2,-0.1 0.4,-0.1 0.7,-0.2 0.5,-0.1 1,0 1.5,0.2 0.4,0.2 0.8,0.5 1.1,0.9 0.1,0.2 0.2,0.4 0.3,0.6 0.1,0.2 0.2,0.4 0.3,0.6 0.3,0.9 0.7,1.7 1,2.6 0.2,0.5 0.3,0.9 0.5,1.3 l 0.2,0.7 c 0.1,0.2 0.1,0.5 0.1,0.7 0,-0.2 -0.1,-0.5 -0.2,-0.7 0,-0.2 -0.1,-0.4 -0.2,-0.6 -0.1,-0.2 -0.3,-0.9 -0.5,-1.3 -0.3,-0.9 -0.7,-1.7 -1,-2.6 L 69.2,105 c -0.1,-0.2 -0.2,-0.4 -0.3,-0.6 -0.2,-0.4 -0.6,-0.8 -1,-1 -0.4,-0.2 -0.9,-0.3 -1.3,-0.2 -0.6,0.1 -1.1,0.3 -1.5,0.6 z" id="path110" />
      <path class="st17" d="m 18.4,109 c 0,0 -4.5,2 -2,8 0,0 6.7,15.9 12.5,32.9 0.5,2.4 2.9,3.9 5.3,3.4 0.1,0 0.2,0 0.3,-0.1 0,0 24.7,-4.5 37.7,-14.1 2.5,-1.7 3.4,-4.9 2.2,-7.7 -2.5,-11.5 -6.7,-22.6 -12.5,-32.9 -1.5,-2.8 -4.9,-3.9 -7.7,-2.4 0,0 0,0 0,0 -12.4,3.3 -24.3,7.6 -35.8,12.9 z" id="path112" />
      <path class="st18" d="m 56.8,96 v 0.3 l 15.4,42 c 0,0 4.3,-3.5 2.2,-6.7 -0.8,-4.7 -2.2,-9.4 -3.9,-13.9 -2.4,-6.1 -5.2,-12 -8.2,-17.8 -1,-2.3 -3.1,-3.8 -5.5,-3.9 z" id="path114" />
      <path class="st19" d="m 17.8,109.9 0.2,0.2 18.3,42.7 c 0,0 -6.5,1.8 -7,-2 L 16.2,116.4 c -0.8,-2.3 -0.2,-4.8 1.6,-6.5 z" id="path116" />
      <polyline class="st20" points="18.6,111.5 18.9,111.4 19.1,112.1 18.8,112.2 18.6,111.5  " id="polyline118" />
      <path class="st20" d="m 18.6,111.4 c -0.1,0.1 -0.2,0.3 -0.2,0.5 0,0.2 0.2,0.4 0.4,0.4 0,0 0.1,0 0.1,0 v 0 z" id="path120" />
      <path class="st20" d="m 18.8,111.3 v 0 l 0.3,0.8 c 0.2,-0.1 0.2,-0.3 0.2,-0.4 0,-0.2 -0.2,-0.4 -0.5,-0.4 z" id="path122" />
      <polyline class="st21" points="18.6,111.5 18.9,111.4 19.1,112.1 18.8,112.2 18.6,111.5  " id="polyline124" />
      <polygon class="st22" points="19.1,112.1 18.8,111.4 18.8,111.5 19,112.1 " id="polygon126" />
      <path class="st23" d="m 18.6,111.4 c -0.1,0.1 -0.2,0.2 -0.2,0.4 0,0.2 0.2,0.4 0.5,0.4 0,0 0,0 0,0 v 0 z" id="path128" />
      <path class="st23" d="m 18.8,111.3 v 0 l 0.3,0.8 c 0.2,-0.1 0.2,-0.3 0.2,-0.4 0,-0.2 -0.2,-0.4 -0.5,-0.4 z" id="path130" />
      <polyline class="st20" points="58.2,98.4 58.5,98.3 58.7,99 58.4,99.1 58.2,98.4  " id="polyline132" />
      <path class="st20" d="m 58.2,98.3 c -0.2,0.1 -0.2,0.3 -0.3,0.5 0,0.2 0.2,0.4 0.4,0.4 0,0 0.1,0 0.1,0 v 0 z" id="path134" />
      <path class="st20" d="m 58.4,98.3 v 0 l 0.3,0.8 c 0.2,-0.1 0.3,-0.4 0.2,-0.6 0,-0.2 -0.2,-0.3 -0.5,-0.2 z" id="path136" />
      <polyline class="st21" points="58.2,98.4 58.5,98.3 58.7,99 58.4,99.1 58.2,98.4  " id="polyline138" />
      <polygon class="st22" points="58.7,99 58.4,98.3 58.3,98.4 58.6,99 " id="polygon140" />
      <path class="st23" d="m 58.2,98.3 c -0.1,0.1 -0.2,0.2 -0.2,0.4 0,0.2 0.2,0.4 0.5,0.4 v 0 z" id="path142" />
      <path class="st23" d="m 58.4,98.3 v 0 l 0.3,0.8 c 0.2,-0.1 0.3,-0.4 0.2,-0.6 0,-0.2 -0.2,-0.3 -0.5,-0.2 z" id="path144" />
      <polyline class="st20" points="26.3,131.6 26.6,131.5 26.8,132.2 26.5,132.3 26.3,131.6  " id="polyline146" />
      <path class="st20" d="m 26.3,131.5 c -0.2,0.1 -0.2,0.3 -0.3,0.5 0,0.2 0.2,0.4 0.4,0.4 0,0 0.1,0 0.1,0 v 0 z" id="path148" />
      <path class="st20" d="m 26.6,131.5 v 0 l 0.3,0.8 c 0.2,-0.1 0.3,-0.4 0.2,-0.6 -0.2,-0.1 -0.3,-0.2 -0.5,-0.2 z" id="path150" />
      <polyline class="st21" points="26.3,131.6 26.6,131.5 26.8,132.2 26.5,132.3 26.3,131.6  " id="polyline152" />
      <polygon class="st22" points="26.8,132.2 26.5,131.5 26.7,132.2 " id="polygon154" />
      <path class="st23" d="m 26.3,131.5 c -0.1,0.1 -0.2,0.2 -0.2,0.4 0,0.2 0.2,0.4 0.4,0.4 0,0 0,0 0,0 v 0 z" id="path156" />
      <path class="st23" d="m 26.6,131.5 v 0 l 0.3,0.8 c 0.2,-0.1 0.3,-0.4 0.2,-0.6 -0.2,-0.1 -0.3,-0.2 -0.5,-0.2 z" id="path158" />
      <polyline class="st20" points="34.2,150.1 34.5,150.1 34.7,150.7 34.4,150.8 34.2,150.1  " id="polyline160" />
      <path class="st20" d="m 34.3,150.1 c -0.2,0.1 -0.2,0.3 -0.3,0.5 0,0.2 0.2,0.4 0.4,0.4 0,0 0.1,0 0.1,0 v 0 z" id="path162" />
      <path class="st20" d="m 34.5,150 v 0 l 0.3,0.8 c 0.1,-0.1 0.2,-0.3 0.2,-0.4 0,-0.3 -0.2,-0.4 -0.5,-0.4 0,0 0,0 0,0 z" id="path164" />
      <polyline class="st21" points="34.2,150.1 34.5,150.1 34.7,150.7 34.4,150.8 34.2,150.1  " id="polyline166" />
      <polygon class="st22" points="34.7,150.7 34.4,150.1 34.6,150.8 " id="polygon168" />
      <path class="st23" d="m 34.3,150.1 c -0.1,0.1 -0.2,0.2 -0.2,0.4 0,0.2 0.2,0.4 0.5,0.4 v 0 z" id="path170" />
      <path class="st23" d="m 34.5,150 v 0 l 0.3,0.8 c 0.1,-0.1 0.2,-0.3 0.2,-0.4 0,-0.3 -0.2,-0.4 -0.5,-0.4 0,0 0,0 0,0 z" id="path172" />
      <polyline class="st20" points="65.7,117.7 66,117.6 66.2,118.3 65.9,118.4 65.7,117.8  " id="polyline174" />
      <path class="st20" d="m 65.7,117.7 c -0.2,0.1 -0.2,0.3 -0.3,0.5 0,0.2 0.2,0.4 0.4,0.4 0,0 0.1,0 0.1,0 v 0 z" id="path176" />
      <path class="st20" d="m 65.9,117.6 v 0 l 0.3,0.8 c 0.2,-0.1 0.3,-0.3 0.2,-0.4 0,-0.3 -0.2,-0.4 -0.5,-0.4 0.1,0 0,0 0,0 z" id="path178" />
      <polyline class="st21" points="65.7,117.7 66,117.6 66.2,118.3 65.9,118.4 65.7,117.8  " id="polyline180" />
      <polygon class="st22" points="66.2,118.3 65.9,117.7 65.8,117.7 66.1,118.4 " id="polygon182" />
      <path class="st23" d="m 65.7,117.7 c -0.1,0.1 -0.2,0.2 -0.2,0.4 0,0.2 0.2,0.4 0.5,0.4 0,0 0,0 0,0 v 0 z" id="path184" />
      <path class="st23" d="m 65.9,117.6 v 0 l 0.3,0.8 c 0.2,-0.1 0.3,-0.3 0.2,-0.4 0,-0.3 -0.2,-0.4 -0.5,-0.4 0.1,0 0,0 0,0 z" id="path186" />
      <polyline class="st20" points="71.3,136.4 71.6,136.3 71.8,137 71.5,137 71.3,136.4  " id="polyline188" />
      <path class="st20" d="m 71.3,136.3 c -0.1,0.1 -0.2,0.3 -0.2,0.5 0,0.3 0.2,0.4 0.5,0.4 v 0 z" id="path190" />
      <path class="st20" d="m 71.6,136.2 v 0 l 0.3,0.8 c 0.2,-0.1 0.3,-0.3 0.2,-0.4 0,-0.2 -0.2,-0.4 -0.5,-0.4 0,0 0,0 0,0 z" id="path192" />
      <polyline class="st21" points="71.3,136.4 71.6,136.3 71.8,137 71.5,137 71.3,136.4  " id="polyline194" />
      <polygon class="st22" points="71.8,137 71.6,136.3 71.5,136.3 71.7,137 " id="polygon196" />
      <path class="st23" d="m 71.3,136.3 c -0.2,0.1 -0.2,0.4 -0.1,0.6 0.1,0.1 0.2,0.2 0.4,0.2 v 0 z" id="path198" />
      <path class="st23" d="m 71.6,136.2 v 0 l 0.3,0.8 c 0.2,-0.1 0.3,-0.3 0.2,-0.4 0,-0.2 -0.2,-0.4 -0.5,-0.4 0,0 0,0 0,0 z" id="path200" />
      <g class="st24" id="g204">
         <path class="st16" d="m 60.1,97.4 c 0.8,1.4 1.5,2.9 2.2,4.3 0.6,1.4 1.4,2.9 2.2,4.3 0.8,1.4 1.3,3 1.9,4.5 0.6,1.5 1.3,3 1.9,4.5 0.6,1.5 1.1,3.1 1.7,4.6 0.5,1.5 1,3.1 1.5,4.7 0.5,1.6 0.9,3.1 1.3,4.7 0.4,1.6 0.7,3.2 0.9,4.8 -0.7,-3.2 -1.6,-6.3 -2.6,-9.4 -0.5,-1.6 -1,-3.1 -1.6,-4.6 -0.6,-1.5 -1.1,-3.1 -1.7,-4.6 -0.6,-1.5 -1.2,-3 -1.8,-4.5 -0.6,-1.5 -1.3,-3 -1.9,-4.5 -1.4,-2.8 -2.7,-5.8 -4,-8.8 z" id="path202" />
      </g>
      <path class="st25" d="m 63.9,102.4 -2.2,2.5 c -1,1.2 -1.1,2.8 -0.4,4.1 0.6,1.6 1,3.3 1.1,5 0,0 0.2,2.6 4.3,1.8 l 2.7,-0.6 c -1.5,-4.4 -3.3,-8.7 -5.5,-12.8 z" id="path206" />
      <path class="st26" d="m 64.2,102.7 -2.2,2.4 c -0.9,1.1 -1,2.6 -0.3,3.9 0.6,1.5 0.9,3.1 1.1,4.7 0,0 0.2,2.4 4,1.7 l 2.5,-0.6 c -1.4,-4.1 -3.1,-8.2 -5.1,-12.1 z" id="path208" />
      <polyline class="st20" points="63.4,105 63.3,104.7 64,104.4 64.1,104.7 63.4,105  " id="polyline210" />
      <path class="st20" d="m 63.3,104.9 c 0.1,0.1 0.3,0.2 0.5,0.2 0.2,0 0.4,-0.2 0.4,-0.5 0,0 0,-0.1 0,-0.1 v 0 z" id="path212" />
      <path class="st20" d="m 63.2,104.7 v 0 l 0.8,-0.3 c -0.1,-0.2 -0.3,-0.2 -0.4,-0.2 -0.2,0 -0.4,0.2 -0.4,0.5 0,0 0,0 0,0 z" id="path214" />
      <polyline class="st21" points="63.4,105 63.3,104.7 64,104.4 64.1,104.7 63.4,105  " id="polyline216" />
      <polygon class="st22" points="64,104.4 63.3,104.7 63.3,104.8 64,104.6 " id="polygon218" />
      <path class="st23" d="m 63.3,104.9 c 0.1,0.1 0.3,0.2 0.4,0.2 0.2,0 0.4,-0.2 0.4,-0.5 v 0 z" id="path220" />
      <path class="st23" d="m 63.2,104.7 v 0 l 0.8,-0.3 c -0.1,-0.2 -0.3,-0.2 -0.4,-0.2 -0.2,0 -0.4,0.2 -0.4,0.5 0,0 0,0 0,0 z" id="path222" />
      <polyline class="st20" points="66.9,114.4 67,114.2 67.7,114.4 67.6,114.7 66.9,114.5  " id="polyline224" />
      <path class="st20" d="m 66.9,114.4 c 0,0.2 0.1,0.4 0.2,0.5 0.2,0.2 0.5,0 0.6,-0.2 v 0 z" id="path226" />
      <path class="st20" d="m 67,114.3 v 0 l 0.8,0.3 c 0,-0.2 0,-0.3 -0.2,-0.5 -0.2,-0.1 -0.5,-0.1 -0.6,0.2 0,-0.1 0,-0.1 0,0 z" id="path228" />
      <polyline class="st21" points="66.9,114.4 67,114.2 67.7,114.4 67.6,114.7 66.9,114.5  " id="polyline230" />
      <polygon class="st22" points="67.7,114.4 67,114.2 67,114.3 67.7,114.5 " id="polygon232" />
      <path class="st23" d="m 66.9,114.4 c 0,0.2 0.1,0.3 0.2,0.4 0.2,0.1 0.5,0.1 0.6,-0.1 v 0 z" id="path234" />
      <path class="st23" d="m 67,114.3 v 0 l 0.8,0.3 c 0,-0.2 0,-0.3 -0.2,-0.5 -0.2,-0.1 -0.5,-0.1 -0.6,0.2 0,-0.1 0,-0.1 0,0 z" id="path236" />
      <path class="st27" d="m 64.9,104.3 -3.3,3.1 c 0.1,0.4 0.1,0.7 0.3,1.1 l 3.4,-3.3 c -0.1,-0.3 -0.3,-0.6 -0.4,-0.9 z" id="path238" />
      <path class="st27" d="m 66.4,107.6 -3.7,3.6 c 0,0.3 0.2,0.7 0.2,1.1 l 3.9,-3.8 z" id="path240" />
      <path class="st27" d="m 68,111.1 -3.9,3.8 0.2,0.5 c 0.2,0.1 0.4,0.2 0.5,0.2 l 3.6,-3.4 z" id="path242" />
      <polyline class="st20" points="63.2,110.1 63.5,110 63.7,110.7 63.4,110.8 63.2,110.1  " id="polyline244" />
      <path class="st20" d="m 63.2,109.9 c -0.1,0.1 -0.3,0.3 -0.3,0.4 0,0.2 0.2,0.4 0.4,0.4 0,0 0.1,0 0.1,0 v 0 z" id="path246" />
      <path class="st20" d="m 63.5,109.9 v 0 l 0.2,0.9 c 0.2,-0.1 0.3,-0.2 0.3,-0.4 0,-0.3 -0.2,-0.5 -0.5,-0.5 0.1,0 0.1,0 0,0 z" id="path248" />
      <polyline class="st21" points="63.2,110.1 63.5,110 63.7,110.7 63.4,110.8 63.2,110.1  " id="polyline250" />
      <polygon class="st22" points="63.6,110.7 63.4,110 63.5,110.7 " id="polygon252" />
      <path class="st23" d="m 63.2,109.9 c -0.2,0.1 -0.3,0.4 -0.2,0.6 0.1,0.1 0.2,0.2 0.4,0.2 v 0 z" id="path254" />
      <path class="st23" d="m 63.5,109.9 v 0 l 0.2,0.9 c 0.2,-0.1 0.3,-0.2 0.3,-0.4 0,-0.3 -0.2,-0.5 -0.5,-0.5 0.1,0 0.1,0 0,0 z" id="path256" />
      <path class="st28" d="m 33.5,107.2 c 0,0 -10.6,13.2 -4.9,21.4 5.2,7.5 16,5.8 24,-2.9 l -1.8,-12.9 z" id="path258" />
      <path class="st29" d="m 56.6,115.5 c 0.4,7.3 -5.2,13.4 -12.4,13.8 -7.2,0.4 -13.4,-5.2 -13.8,-12.4 -0.4,-7.3 5.2,-13.4 12.4,-13.8 0,0 0,0 0,0 7.2,-0.4 13.4,5.1 13.8,12.4 z" id="path260" />
      <path class="st18" d="m 56.5,115.5 c 0.4,7.3 -5.2,13.4 -12.5,13.8 -7.3,0.4 -13.4,-5.2 -13.8,-12.5 -0.4,-7.2 5.2,-13.4 12.4,-13.8 7.4,-0.3 13.5,5.2 13.9,12.5 0,0 0,0 0,0 z" id="path262" />
      <polyline class="st20" points="33.1,122.5 33.4,122.5 33.6,123.1 33.3,123.2 33.1,122.5  " id="polyline264" />
      <path class="st20" d="m 33.1,122.5 c -0.2,0.1 -0.2,0.3 -0.2,0.5 0,0.2 0.2,0.4 0.5,0.4 v 0 z" id="path266" />
      <path class="st20" d="m 33.3,122.4 v 0 l 0.3,0.8 c 0.2,-0.1 0.4,-0.3 0.3,-0.5 0,-0.2 -0.3,-0.4 -0.6,-0.3 z" id="path268" />
      <polyline class="st21" points="33.1,122.5 33.4,122.5 33.6,123.1 33.3,123.2 33.1,122.5  " id="polyline270" />
      <polygon class="st22" points="33.6,123.1 33.3,122.5 33.5,123.2 " id="polygon272" />
      <path class="st30" d="m 33.1,122.5 c -0.1,0.1 -0.2,0.2 -0.2,0.4 0,0.2 0.2,0.4 0.5,0.4 0,0 0,0 0,0 v 0 z" id="path274" />
      <path class="st30" d="m 33.3,122.4 v 0 l 0.3,0.8 c 0.2,-0.1 0.4,-0.3 0.3,-0.5 0,-0.2 -0.3,-0.4 -0.6,-0.3 z" id="path276" />
      <path class="st31" d="m 54.2,115 c 0.3,6.1 -4.3,11.3 -10.4,11.6 -6.1,0.3 -11.3,-4.3 -11.6,-10.4 -0.3,-6.1 4.3,-11.3 10.4,-11.6 0,0 0,0 0,0 6.1,-0.4 11.3,4.3 11.6,10.4 z" id="path278" />
      <path class="st32" d="m 54.4,114.9 c 0.3,6.1 -4.4,11.3 -10.5,11.6 -6.1,0.3 -11.3,-4.4 -11.6,-10.5 -0.3,-6.1 4.4,-11.3 10.4,-11.6 6.2,-0.3 11.4,4.3 11.7,10.5 0,-0.1 0,0 0,0 z" id="path280" />
      <path class="st15" d="m 49.6,114.4 c 0.2,3.5 -2.5,6.5 -6,6.6 -3.5,0.2 -6.5,-2.5 -6.6,-6 -0.2,-3.5 2.5,-6.5 6,-6.6 0,0 0,0 0,0 3.5,-0.1 6.5,2.5 6.6,6 z" id="path282" />
      <g class="st33" id="g364">
         <line class="st34" x1="42.099998" y1="110.8" x2="42.5" y2="112.1" id="line284" />
         <path class="st16" d="m 42.1,110.8 c 0.1,0.2 0.2,0.4 0.2,0.6 0.1,0.2 0.1,0.4 0.2,0.6 -0.1,-0.2 -0.2,-0.4 -0.2,-0.6 -0.1,-0.1 -0.2,-0.4 -0.2,-0.6 z" id="path286" />
         <line class="st34" x1="43.799999" y1="110.6" x2="43.700001" y2="111.9" id="line288" />
         <path class="st16" d="m 43.8,110.6 c 0,0.2 0,0.4 0,0.7 0,0.2 0,0.4 -0.1,0.6 0,-0.2 0,-0.4 0,-0.6 0,-0.2 0,-0.5 0.1,-0.7 z" id="path290" />
         <line class="st34" x1="45.099998" y1="111" x2="44.5" y2="112.2" id="line292" />
         <path class="st16" d="m 45.1,111 c -0.1,0.2 -0.1,0.4 -0.2,0.6 -0.1,0.2 -0.2,0.4 -0.3,0.6 0.1,-0.2 0.1,-0.4 0.2,-0.6 0,-0.3 0.1,-0.5 0.3,-0.6 z" id="path294" />
         <line class="st34" x1="46.200001" y1="111.6" x2="45.299999" y2="112.6" id="line296" />
         <path class="st16" d="m 46.2,111.6 c -0.1,0.2 -0.2,0.4 -0.4,0.5 -0.1,0.2 -0.3,0.3 -0.5,0.5 0.1,-0.2 0.2,-0.4 0.4,-0.5 0.1,-0.2 0.3,-0.3 0.5,-0.5 z" id="path298" />
         <line class="st34" x1="47" y1="112.6" x2="45.900002" y2="113.3" id="line300" />
         <path class="st16" d="m 47,112.6 c -0.2,0.1 -0.3,0.3 -0.5,0.4 -0.2,0.1 -0.4,0.2 -0.6,0.3 l 0.5,-0.4 z" id="path302" />
         <line class="st34" x1="47.5" y1="113.8" x2="46.200001" y2="114.1" id="line304" />
         <path class="st16" d="m 47.5,113.8 -0.6,0.2 c -0.2,0.1 -0.4,0.1 -0.6,0.1 0.2,-0.1 0.4,-0.1 0.6,-0.2 0.2,0 0.4,-0.1 0.6,-0.1 z" id="path306" />
         <line class="st34" x1="47.599998" y1="115.1" x2="46.400002" y2="115" id="line308" />
         <path class="st16" d="m 47.7,115.1 c -0.2,0 -0.4,0 -0.7,0 -0.2,0 -0.4,0 -0.6,0 0.2,0 0.4,0 0.7,0 0.1,-0.1 0.4,-0.1 0.6,0 z" id="path310" />
         <line class="st34" x1="47.400002" y1="116.3" x2="46.200001" y2="115.9" id="line312" />
         <path class="st16" d="m 47.4,116.4 -0.6,-0.2 -0.5,-0.4 c 0.4,0.1 0.8,0.3 1.2,0.5 z" id="path314" />
         <line class="st34" x1="46.299999" y1="117.6" x2="45.400002" y2="116.7" id="line316" />
         <path class="st16" d="m 46.3,117.6 c -0.2,-0.1 -0.3,-0.3 -0.5,-0.4 -0.2,-0.2 -0.3,-0.3 -0.5,-0.5 0.2,0.1 0.4,0.3 0.5,0.4 0.2,0.1 0.4,0.3 0.5,0.5 z" id="path318" />
         <line class="st34" x1="44.900002" y1="118.6" x2="44.400002" y2="117.3" id="line320" />
         <path class="st16" d="m 44.9,118.6 c -0.1,-0.2 -0.2,-0.4 -0.3,-0.6 -0.1,-0.2 -0.2,-0.4 -0.2,-0.6 0.1,0.2 0.2,0.4 0.3,0.6 0.1,0.1 0.2,0.4 0.2,0.6 z" id="path322" />
         <line class="st34" x1="43.700001" y1="118.9" x2="43.5" y2="117.6" id="line324" />
         <path class="st16" d="m 43.7,118.9 c -0.1,-0.2 -0.1,-0.4 -0.1,-0.6 0,-0.2 0,-0.4 0,-0.7 0.1,0.2 0.1,0.4 0.1,0.6 0,0.2 0,0.5 0,0.7 z" id="path326" />
         <line class="st34" x1="42.400002" y1="118.8" x2="42.599998" y2="117.6" id="line328" />
         <path class="st16" d="m 42.4,118.8 c 0,-0.2 0,-0.4 0,-0.6 0,-0.2 0.1,-0.4 0.2,-0.6 0,0.2 0,0.4 0,0.6 -0.1,0.2 -0.1,0.4 -0.2,0.6 z" id="path330" />
         <line class="st34" x1="41.200001" y1="118.4" x2="41.799999" y2="117.3" id="line332" />
         <path class="st16" d="m 41.2,118.4 c 0.1,-0.2 0.2,-0.4 0.3,-0.6 0,-0.2 0.2,-0.4 0.3,-0.5 -0.1,0.2 -0.2,0.4 -0.3,0.6 z" id="path334" />
         <line class="st34" x1="40.099998" y1="117.6" x2="41.099998" y2="116.7" id="line336" />
         <path class="st16" d="m 40.1,117.6 c 0.1,-0.2 0.3,-0.3 0.5,-0.5 0.2,-0.1 0.3,-0.3 0.5,-0.4 -0.1,0.2 -0.3,0.3 -0.4,0.5 -0.2,0.2 -0.4,0.3 -0.6,0.4 z" id="path338" />
         <line class="st34" x1="39.400002" y1="116.6" x2="40.599998" y2="116" id="line340" />
         <path class="st16" d="m 39.4,116.6 c 0.2,-0.1 0.4,-0.2 0.6,-0.3 0.2,-0.1 0.4,-0.2 0.6,-0.3 l -0.6,0.3 z" id="path342" />
         <line class="st34" x1="39" y1="115.4" x2="40.299999" y2="115.1" id="line344" />
         <path class="st16" d="m 39,115.4 c 0.2,-0.1 0.4,-0.1 0.6,-0.2 0.2,0 0.4,0 0.7,0 l -0.6,0.2 c -0.3,-0.1 -0.5,0 -0.7,0 z" id="path346" />
         <line class="st34" x1="39" y1="114.1" x2="40.299999" y2="114.3" id="line348" />
         <path class="st16" d="m 39,114.1 c 0.2,0 0.4,0 0.6,0 0.2,0 0.4,0.1 0.6,0.1 h -0.6 z" id="path350" />
         <line class="st34" x1="39.400002" y1="112.9" x2="40.599998" y2="113.4" id="line352" />
         <path class="st16" d="m 39.4,112.9 c 0.2,0 0.4,0.1 0.6,0.2 0.2,0.1 0.4,0.2 0.6,0.3 L 40,113.2 Z" id="path354" />
         <line class="st34" x1="40.099998" y1="111.9" x2="41.099998" y2="112.7" id="line356" />
         <path class="st16" d="m 40.1,111.9 c 0.2,0.1 0.4,0.2 0.5,0.4 0.2,0.1 0.3,0.3 0.5,0.4 -0.2,-0.1 -0.4,-0.2 -0.5,-0.4 -0.2,-0.1 -0.4,-0.3 -0.5,-0.4 z" id="path358" />
         <line class="st34" x1="41" y1="111" x2="41.799999" y2="112.1" id="line360" />
         <path class="st16" d="m 41,111 c 0.2,0.2 0.3,0.3 0.4,0.5 0.1,0.2 0.2,0.4 0.3,0.6 l -0.4,-0.5 C 41.2,111.4 41.1,111.2 41,111 Z" id="path362" />
      </g>
      <path d="m 46.6,114.6 c 0.1,1.8 -1.3,3.3 -3,3.4 -1.7,0.1 -3.3,-1.3 -3.4,-3 -0.1,-1.8 1.3,-3.3 3,-3.4 0,0 0,0 0,0 1.7,-0.2 3.3,1.2 3.4,3 z" id="path366" />
      <path class="st16" d="m 46.3,110.7 c 0,0.7 -0.5,1.3 -1.2,1.4 -0.7,0 -1.3,-0.5 -1.4,-1.2 0,-0.7 0.5,-1.3 1.2,-1.4 0,0 0,0 0,0 0.7,0 1.3,0.5 1.4,1.2 0,0 0,0 0,0 z" id="path368" />
      <path class="st16" d="m 42.1,119.3 c 0,0.3 -0.2,0.5 -0.5,0.5 0,0 0,0 0,0 -0.3,0 -0.5,-0.2 -0.5,-0.5 0,-0.3 0.2,-0.5 0.5,-0.5 0,0 0,0 0,0 0.3,0.1 0.5,0.3 0.5,0.5 z" id="path370" />
      <path class="st35" d="m 45.6,114.6 c 0.1,1.3 -0.9,2.4 -2.2,2.4 -1.3,0.1 -2.4,-0.9 -2.4,-2.2 -0.1,-1.3 0.9,-2.4 2.2,-2.4 0,0 0,0 0,0 1.3,0 2.3,1 2.4,2.2 z" id="path372" />
      <polyline class="st20" points="40,127.1 40.3,127.2 39.9,127.8 39.6,127.6 40,127.1  " id="polyline374" />
      <path class="st20" d="m 40.1,127 c -0.2,-0.1 -0.4,-0.1 -0.5,0 -0.2,0.1 -0.2,0.4 -0.1,0.5 0,0 0.1,0.1 0.1,0.1 v 0 z" id="path376" />
      <path class="st20" d="m 40.3,127.2 v 0 l -0.5,0.7 c 0.1,0.1 0.3,0.1 0.5,0 0.2,-0.1 0.3,-0.4 0.1,-0.6 0,0 0,-0.1 -0.1,-0.1 z" id="path378" />
      <polyline class="st21" points="40,127.1 40.3,127.2 39.9,127.8 39.6,127.6 40,127.1  " id="polyline380" />
      <polygon class="st22" points="39.8,127.8 40.2,127.2 39.7,127.7 " id="polygon382" />
      <path class="st30" d="m 40.1,127 c -0.1,-0.1 -0.3,-0.1 -0.4,0 -0.2,0.2 -0.2,0.5 0,0.6 v 0 z" id="path384" />
      <path class="st30" d="m 40.3,127.2 v 0 l -0.5,0.7 c 0.1,0.1 0.3,0.1 0.5,0 0.2,-0.1 0.3,-0.4 0.1,-0.6 0,0 0,-0.1 -0.1,-0.1 z" id="path386" />
      <polyline class="st20" points="48.7,126.5 48.9,126.2 49.5,126.6 49.3,126.9 48.7,126.5  " id="polyline388" />
      <path class="st20" d="m 48.7,126.4 c 0,0.2 0,0.4 0.1,0.5 0.1,0.2 0.4,0.2 0.5,0.1 0,0 0.1,-0.1 0.1,-0.1 v 0 z" id="path390" />
      <path class="st20" d="m 48.8,126.2 v 0 l 0.8,0.4 c 0.1,-0.1 0.1,-0.3 0,-0.5 -0.2,-0.2 -0.5,-0.2 -0.7,-0.1 0,0.1 -0.1,0.2 -0.1,0.2 z" id="path392" />
      <polyline class="st21" points="48.7,126.5 48.9,126.2 49.5,126.6 49.3,126.9 48.7,126.5  " id="polyline394" />
      <polygon class="st22" points="49.5,126.6 48.9,126.3 48.8,126.4 49.4,126.7 " id="polygon396" />
      <path class="st30" d="m 48.7,126.4 c 0,0.2 0,0.3 0.1,0.4 0.2,0.2 0.5,0.2 0.6,0 v 0 z" id="path398" />
      <path class="st30" d="m 48.8,126.2 v 0 l 0.8,0.4 c 0.1,-0.1 0.1,-0.3 0,-0.5 -0.2,-0.2 -0.5,-0.2 -0.7,-0.1 0,0.1 -0.1,0.2 -0.1,0.2 z" id="path400" />
      <polyline class="st20" points="54.9,119 55.2,119 55.3,119.6 55,119.7 54.9,119  " id="polyline402" />
      <path class="st20" d="m 54.9,118.9 c -0.2,0.1 -0.3,0.2 -0.3,0.4 0,0.2 0.1,0.5 0.5,0.5 v 0 z" id="path404" />
      <path class="st20" d="m 55.2,118.9 v 0 l 0.1,0.9 c 0.2,0 0.3,-0.2 0.3,-0.4 0.1,-0.3 -0.1,-0.5 -0.4,-0.5 0,0 0,0 0,0 z" id="path406" />
      <polyline class="st21" points="54.9,119 55.2,119 55.3,119.6 55,119.7 54.9,119  " id="polyline408" />
      <polygon class="st22" points="55.3,119.7 55.2,119 55.1,119 55.2,119.7 " id="polygon410" />
      <path class="st30" d="m 54.9,118.9 c -0.2,0.1 -0.3,0.4 -0.2,0.6 0.1,0.1 0.2,0.2 0.4,0.3 v 0 z" id="path412" />
      <path class="st30" d="m 55.2,118.9 v 0 l 0.1,0.9 c 0.2,0 0.3,-0.2 0.3,-0.4 0.1,-0.3 -0.1,-0.5 -0.4,-0.5 0,0 0,0 0,0 z" id="path414" />
      <polyline class="st20" points="53,109.4 53.2,109.1 53.8,109.3 53.7,109.6 53.1,109.4  " id="polyline416" />
      <path class="st20" d="m 53,109.3 c 0,0.2 0.1,0.4 0.2,0.5 0.2,0.1 0.4,0.1 0.6,-0.1 0,0 0,0 0,-0.1 v 0 z" id="path418" />
      <path class="st20" d="m 53.1,109.1 v 0 l 0.8,0.3 c 0,-0.2 0,-0.3 -0.2,-0.4 -0.2,-0.2 -0.5,-0.2 -0.6,0.1 0,-0.1 0,0 0,0 z" id="path420" />
      <polyline class="st21" points="53,109.4 53.2,109.1 53.8,109.3 53.7,109.6 53.1,109.4  " id="polyline422" />
      <polygon class="st22" points="53.8,109.3 53.1,109.1 53.1,109.2 53.8,109.5 " id="polygon424" />
      <path class="st30" d="m 53,109.3 c 0,0.2 0.1,0.3 0.2,0.4 0.2,0.1 0.5,0.1 0.6,-0.1 v 0 z" id="path426" />
      <path class="st30" d="m 53.1,109.1 v 0 l 0.8,0.3 c 0,-0.2 0,-0.3 -0.2,-0.4 -0.2,-0.2 -0.5,-0.2 -0.6,0.1 0,-0.1 0,0 0,0 z" id="path428" />
      <polyline class="st20" points="46.5,103.8 46.8,103.8 47,104.5 46.7,104.6 46.5,103.9  " id="polyline430" />
      <path class="st20" d="m 46.6,103.8 c -0.2,0.1 -0.3,0.3 -0.3,0.4 0,0.3 0.2,0.4 0.5,0.4 v 0 z" id="path432" />
      <path class="st20" d="m 46.8,103.7 v 0 l 0.2,0.9 c 0.2,-0.1 0.3,-0.2 0.3,-0.4 0,-0.2 -0.2,-0.5 -0.5,-0.5 0.1,0 0,0 0,0 z" id="path434" />
      <polyline class="st21" points="46.5,103.8 46.8,103.8 47,104.5 46.7,104.6 46.5,103.9  " id="polyline436" />
      <polygon class="st22" points="47,104.5 46.8,103.8 46.7,103.8 46.9,104.5 " id="polygon438" />
      <path class="st30" d="m 46.6,103.8 c -0.1,0.1 -0.2,0.2 -0.2,0.4 0,0.3 0.2,0.5 0.5,0.5 v 0 z" id="path440" />
      <path class="st30" d="m 46.8,103.7 v 0 l 0.2,0.9 c 0.2,-0.1 0.3,-0.2 0.3,-0.4 0,-0.2 -0.2,-0.5 -0.5,-0.5 0.1,0 0,0 0,0 z" id="path442" />
      <polyline class="st20" points="37.4,104.9 37.6,105.1 37.2,105.7 36.9,105.5 37.4,104.9  " id="polyline444" />
      <path class="st20" d="m 37.5,104.9 c -0.2,-0.1 -0.4,-0.1 -0.5,0 -0.2,0.1 -0.2,0.4 -0.1,0.6 0,0 0,0.1 0.1,0.1 v 0 z" id="path446" />
      <path class="st20" d="m 37.7,105.1 v 0 l -0.5,0.7 c 0.2,0.1 0.4,0 0.5,-0.1 0.1,-0.2 0.1,-0.5 0,-0.6 z" id="path448" />
      <polyline class="st21" points="37.4,104.9 37.6,105.1 37.2,105.7 36.9,105.5 37.4,104.9  " id="polyline450" />
      <polygon class="st22" points="37.2,105.7 37.6,105.1 37.5,105.1 37.1,105.6 " id="polygon452" />
      <path class="st30" d="m 37.5,104.9 c -0.1,-0.1 -0.3,-0.1 -0.4,0 -0.2,0.2 -0.2,0.5 0,0.6 v 0 z" id="path454" />
      <path class="st30" d="m 37.7,105.1 v 0 l -0.5,0.7 c 0.2,0.1 0.4,0 0.5,-0.1 0.1,-0.2 0.1,-0.5 0,-0.6 z" id="path456" />
      <polyline class="st20" points="31.6,112.2 31.9,112.4 31.5,113 31.2,112.8 31.6,112.2  " id="polyline458" />
      <path class="st20" d="m 31.7,112.1 c -0.2,-0.1 -0.3,-0.1 -0.5,0 -0.2,0.1 -0.2,0.4 -0.1,0.6 0,0 0,0.1 0.1,0.1 v 0 z" id="path460" />
      <path class="st20" d="m 31.9,112.3 v 0 l -0.5,0.7 c 0.2,0.1 0.3,0.1 0.5,0 0.2,-0.1 0.2,-0.4 0,-0.7 0.1,0.1 0,0.1 0,0 z" id="path462" />
      <polyline class="st21" points="31.6,112.2 31.9,112.4 31.5,113 31.2,112.8 31.6,112.2  " id="polyline464" />
      <polygon class="st22" points="31.4,113 31.8,112.4 31.8,112.3 31.3,112.9 " id="polygon466" />
      <path class="st30" d="m 31.7,112.1 c -0.1,-0.1 -0.3,-0.1 -0.4,0 -0.2,0.2 -0.2,0.5 0,0.6 0,0 0,0 0,0 v 0 z" id="path468" />
      <path class="st30" d="m 31.9,112.3 v 0 l -0.5,0.7 c 0.2,0.1 0.3,0.1 0.5,0 0.2,-0.1 0.2,-0.4 0,-0.7 0.1,0.1 0,0.1 0,0 z" id="path470" />
      <path class="st36" d="m 33.8,109.7 c 0,0 -1.8,15.5 16,14.6 l -1.2,4.3 c -2.3,0.8 -4.7,1 -7,0.6 -6.2,-1.1 -13.9,-5.7 -10.7,-17.6 0,0 1,-0.7 2.9,-1.9 z" id="path472" />
      <path class="st37" d="m 38.8,134.1 c 0,0 -6.5,1.6 -0.3,7 0,0 3.4,3.7 13.1,2.3 0,0 11.2,-1.5 11.3,-10.8 0,0 0.6,-6.5 -3.3,-7.8 0,0 -2.6,-0.6 -5.1,2.9 -0.8,1.1 -1.8,2.1 -3,3 -1.1,0.8 -2.3,1.4 -3.7,1.7 -1.7,0.5 -4.9,0.7 -5.9,1 -1,0.1 -2.1,0.4 -3.1,0.7 z" id="path474" />
      <path class="st16" d="m 61.6,126.4 c -0.5,-0.7 -1.2,-1.3 -2,-1.6 0,0 -2.5,-0.6 -5.1,2.9 -0.8,1.1 -1.8,2.1 -3,3 -1.1,0.8 -2.3,1.4 -3.7,1.7 -1.7,0.5 -4.9,0.7 -5.9,1 -1,0.2 -2.1,0.4 -3.1,0.8 0,0 -4.6,1.2 -2.3,4.8 6.2,-1 19.6,-4 25.1,-12.6 z" id="path476" />
      <path class="st16" d="m 51.6,143.4 c 0,0 9.2,-1.2 11,-8.4 -5,4.1 -10.8,7 -17.1,8.6 2,0.2 4.1,0.1 6.1,-0.2 z" id="path478" />
      <path class="st16" d="m 57.3,127.3 c -2.2,2.5 -4.9,4.5 -8,5.8 -4.3,1.7 -8.8,2.9 -13.4,3.5 -0.1,0.8 0.1,1.6 0.6,2.3 5.8,-0.9 18,-3.6 24.1,-11.1 -0.7,-0.9 -2,-2 -3.3,-0.5 z" id="path480" />
      <path class="st38" d="m 53.9,143.4 c -0.8,0.3 -1.7,0.5 -2.5,0.6 -9.5,1.4 -13.1,-2.2 -13.4,-2.4 -2.2,-1.8 -3,-3.5 -2.7,-4.9 0.3,-1.4 2.4,-2.5 3,-2.7 h 0.2 c 1,-0.3 2.1,-0.6 3.1,-0.8 0.5,-0.1 1.2,-0.2 2.2,-0.3 1.3,-0.1 2.6,-0.3 3.8,-0.6 1.3,-0.3 2.5,-0.9 3.5,-1.7 v 0 c 1.1,-0.8 2.1,-1.8 2.8,-2.9 0.9,-1.3 2.1,-2.3 3.6,-2.8 0.6,-0.2 1.3,-0.3 1.9,-0.2 v 0 c 4.1,1.3 3.6,7.7 3.6,8.2 -0.1,6.7 -5.8,9.4 -9.1,10.5 z m -15.4,-8.6 c -0.4,0.1 -2.2,0.8 -2.5,2.2 -0.3,1.4 0.6,2.6 2.5,4.2 v 0 c 0.8,0.7 1.8,1.3 2.8,1.6 4,1.2 8.3,1.2 12.3,0 3.2,-1 8.6,-3.6 8.6,-9.9 v 0 c 0,0 0.5,-6.2 -3,-7.4 -0.5,-0.1 -1,0 -1.5,0.1 -1.3,0.5 -2.4,1.4 -3.2,2.6 -0.8,1.2 -1.9,2.2 -3,3 -1.1,0.9 -2.4,1.5 -3.8,1.8 -1.3,0.3 -2.6,0.5 -3.9,0.7 -0.7,0.1 -1.4,0.2 -2,0.3 v 0 c -1,0.2 -2,0.4 -3,0.8 v 0 z" id="path482" />
      <path class="st16" d="m 29.4,103 c 3.4,-3.2 7.9,-5.2 12.5,-5.5 0.1,0 -9.4,-3.8 -12.5,5.5 z" id="path484" />
      <path class="st39" d="m 41.8,97.5 c -1,-0.4 -9.5,-3.2 -12.4,5.5 1.1,-2 2.8,-3.6 4.8,-4.6 2.5,-0.8 5,-1.1 7.6,-0.9 z" id="path486" />
      <path class="st16" d="m 14.7,120.6 c -0.1,0.2 -0.2,0.5 -0.3,0.8 -0.2,-0.2 -0.5,-0.3 -0.8,-0.3 -1,-3.3 -2.4,-6.4 -4.2,-9.3 -0.2,-0.5 -0.2,-1 0,-1.5 0.2,-0.7 0.2,-1.5 0,-2.2 -0.8,0.1 -1.7,-0.1 -2.5,-0.3 v -1.1 c 0.9,0.3 1.8,-0.2 2.1,-1.1 0.1,-0.2 0.1,-0.4 0.1,-0.6 0,-0.9 -0.7,-1.7 -1.6,-1.8 -0.9,-0.1 -1.7,0.7 -1.8,1.6 0,0.1 0,0.2 0,0.3 0,0.6 0.3,1.1 0.8,1.4 l -0.1,1.8 c 0.9,0.3 1.9,0.3 2.8,0.2 0,0 0,0.3 -0.2,0.9 -0.3,0.9 -0.2,2 0.3,2.8 l 1.9,4 c 0.8,1.6 1.4,3.3 1.8,5 -0.4,0.2 -0.7,0.7 -0.6,1.1 0,0.6 0.4,1 1,1.1 0.6,0.2 1.3,-0.3 1.4,0 0.4,0.6 1,1.1 1.6,1.4 -0.3,-1.4 -0.9,-2.9 -1.7,-4.2 z" id="path488" />
      <path class="st16" d="m 17.9,125.4 c 0.1,-2.1 -0.8,-4.2 -2.3,-5.7 0,0 0,0 -0.1,0 -0.2,0.2 -0.4,0.4 -0.5,0.7 0.9,1.4 1.5,3 1.7,4.7 0.3,0.1 0.7,0.3 1.2,0.3 -0.1,0 0,0 0,0 z" id="path490" />
      <path class="st16" d="m 9.1,105 v -0.4 c -1,-0.4 -2.2,-0.4 -3.2,0 0,0.2 0,0.4 0,0.6 0,0.3 0.1,0.5 0.2,0.8 0.9,0.3 1.9,0.3 2.8,0.2 0.2,-0.3 0.3,-0.8 0.2,-1.2 z" id="path492" />
      <path class="st16" d="m 8.9,106 c 0.2,-0.3 0.3,-0.6 0.2,-1 0,-0.1 0,-0.2 0,-0.4 -1.1,-0.5 -2.3,-0.6 -3.4,-0.1 0,0.2 0,0.4 0,0.6 0,0.2 0.1,0.5 0.2,0.7 1,0.4 2,0.5 3,0.2 z" id="path494" />
      <path class="st16" d="M 6.3,103.8" id="path496" />
      <path class="st16" d="M 16.3,125" id="path498" />
      <path class="st40" d="m 9,104.9 c 0,0 0,0.2 0,0.2 0,0 0,0 0,-0.2 0,-0.1 -0.1,-0.1 0,-0.1 0.1,0 0,0 0,0.1 z" id="path500" />
   </g>
</svg>
