<?xml version="1.0" encoding="utf-8"?>
<!-- Generator: Adobe Illustrator 25.2.0, SVG Export Plug-In . SVG Version: 6.00 Build 0)  -->
<svg version="1.1" id="Layer_1" xmlns="http://www.w3.org/2000/svg" xmlns:xlink="http://www.w3.org/1999/xlink" x="0px" y="0px"
	 viewBox="0 0 250 250" style="enable-background:new 0 0 250 250;" xml:space="preserve">
<style type="text/css">
	.st0{fill:#67468D;}
</style>
<g>
	<g>
		<path class="st0" d="M34.8,163.1c-2.3,0-4.6-0.6-6.6-1.8L6.6,148.9c-4.1-2.4-6.6-6.8-6.6-11.5v-24.9c0-4.7,2.5-9.1,6.6-11.5
			l21.6-12.4c4.1-2.4,9.2-2.4,13.2,0L63,101.1c4.1,2.4,6.6,6.8,6.6,11.5v24.9c0,4.7-2.5,9.1-6.6,11.5l-21.6,12.4
			C39.4,162.5,37.1,163.1,34.8,163.1z M34.8,90.1c-1.7,0-3.5,0.4-5,1.3L8.2,103.9c-3.1,1.8-5,5.1-5,8.7v24.9c0,3.6,1.9,6.9,5,8.7
			l21.6,12.4c3.1,1.8,6.9,1.8,10,0l21.6-12.4c3.1-1.8,5-5.1,5-8.7v-24.9c0-3.6-1.9-6.9-5-8.7L39.8,91.4
			C38.3,90.5,36.5,90.1,34.8,90.1z"/>
		<path class="st0" d="M59.7,125.2c-0.2-6.4-6.4-11.7-12.8-10.9c-1.8,0.2-1.5,0.2-1.9-1.2c-1.3-4.8-4.9-8.8-9-9.3
			c-0.4,0-0.8-0.1-1.3-0.1c-0.4,0-0.8,0-1.3,0.1c-4.1,0.5-7.8,4.4-9,9.3c-0.4,1.4-0.1,1.4-1.9,1.2c-6.4-0.8-12.6,4.5-12.8,10.9
			c0,0,0,0.1,0,0.1c0,0,0,0.1,0,0.1c0.2,6.4,6.4,11.7,12.8,10.9c1.8-0.2,1.5-0.2,1.9,1.2c1.3,4.8,4.9,8.8,9,9.3
			c0.4,0,0.8,0.1,1.3,0.1c0.4,0,0.8,0,1.3-0.1c4.1-0.5,7.8-4.4,9-9.3c0.4-1.4,0.1-1.4,1.9-1.2c6.4,0.8,12.6-4.5,12.8-10.9
			C59.7,125.3,59.7,125.3,59.7,125.2C59.7,125.2,59.7,125.2,59.7,125.2z M34.6,106.5c0,0,0.2,0,0.3,0c4.3,0,8.2,4.6,7.6,8.9
			c-0.1,0.7-0.5,1.3-0.9,1.7c-1.7,1.7-6.7,6.1-6.7,6.1s0,0-0.1-0.1l0,0c0,0,0,0,0,0c0,0,0,0,0,0l0,0c0,0-0.1,0.1-0.1,0.1
			s-5-4.4-6.7-6.1c-0.5-0.5-0.8-1-0.9-1.7C26.3,111.2,30.2,106.5,34.6,106.5z M16.5,132.2c-2.6-1.5-4-4-4-6.9c0-2.9,1.4-5.4,4-6.9
			c3.5-2.1,7.1-1.7,9.9,1.1c1.5,1.5,5.6,5.4,6,5.8c-0.4,0.4-4.5,4.3-6,5.8C23.5,133.9,20,134.2,16.5,132.2z M34.8,144
			c0,0-0.2,0-0.3,0c-4.3,0-8.2-4.6-7.6-8.9c0.1-0.7,0.5-1.3,0.9-1.7c1.7-1.7,6.7-6.1,6.7-6.1s0,0,0.1,0.1l0,0c0,0,0,0,0,0
			c0,0,0,0,0,0l0,0c0,0,0.1-0.1,0.1-0.1s5,4.4,6.7,6.1c0.5,0.5,0.8,1,0.9,1.7C43.1,139.3,39.1,144,34.8,144z M52.9,132.2
			c-3.5,2.1-7.1,1.7-9.9-1.1c-1.5-1.5-5.6-5.4-6-5.8c0.4-0.4,4.5-4.3,6-5.8c2.9-2.8,6.4-3.2,9.9-1.1c2.6,1.5,4,4,4,6.9
			C56.9,128.1,55.5,130.7,52.9,132.2z"/>
		<g>
			<path class="st0" d="M96.9,119.5c-1.9-1.1-4.1-1.7-6.5-1.7c-2.1,0-4.1,0.5-5.8,1.4c-1.7,0.9-3.1,2.2-4.1,3.8v-2.6v-11.6
				c0-0.4-0.1-0.8-0.4-1c-0.2-0.2-0.6-0.4-1-0.4c-0.4,0-0.7,0.1-1,0.4c-0.3,0.2-0.4,0.6-0.4,1v19.2v2.6v0.1v11.5
				c0,0.4,0.1,0.8,0.4,1c0.2,0.2,0.6,0.4,1,0.4c0.4,0,0.7-0.1,1-0.4c0.3-0.2,0.4-0.6,0.4-1v-3.7c1,1.2,2.2,2.2,3.6,3
				c1.9,1.1,4,1.6,6.4,1.6c2.4,0,4.6-0.6,6.5-1.7c1.9-1.1,3.5-2.6,4.6-4.6c1.1-1.9,1.7-4.1,1.7-6.5c0-2.4-0.6-4.5-1.7-6.4
				C100.3,122.1,98.8,120.6,96.9,119.5z M99,135.7c-0.9,1.5-2.1,2.8-3.6,3.7c-1.5,0.9-3.2,1.3-5.1,1.3c-1.9,0-3.6-0.4-5.1-1.3
				c-1.5-0.9-2.7-2.1-3.6-3.7c-0.9-1.5-1.3-3.3-1.3-5.2c0-1.9,0.4-3.6,1.3-5.2c0.9-1.5,2-2.8,3.6-3.6c1.5-0.9,3.2-1.3,5.1-1.3
				c1.9,0,3.6,0.4,5.1,1.3c1.5,0.9,2.7,2.1,3.6,3.6c0.9,1.5,1.3,3.3,1.3,5.2C100.4,132.4,99.9,134.1,99,135.7z"/>
			<path class="st0" d="M164.9,119.2c-1.4-0.9-3-1.4-4.9-1.4c-1.8,0-3.4,0.4-4.9,1.3c-1.5,0.9-2.6,2-3.4,3.6
				c-0.8-1.5-1.9-2.7-3.3-3.6c-1.4-0.9-3-1.3-4.7-1.3c-1.4,0-2.8,0.3-4,0.9c-1.2,0.6-2.3,1.5-3.1,2.5v-1.8c0-0.4-0.1-0.8-0.4-1
				c-0.2-0.2-0.6-0.4-1-0.4c-0.4,0-0.7,0.1-1,0.4c-0.3,0.2-0.4,0.6-0.4,1v22.1c0,0.4,0.1,0.7,0.4,1c0.3,0.3,0.6,0.4,1,0.4
				c0.4,0,0.8-0.1,1-0.4c0.2-0.3,0.4-0.6,0.4-1v-13.9c0-2.1,0.7-3.8,2-5.2c1.3-1.3,3-2,5.1-2c1.9,0,3.5,0.7,4.8,2.2
				c1.2,1.5,1.9,3.4,1.9,5.7v13.1c0,0.4,0.1,0.7,0.4,1c0.3,0.3,0.6,0.4,1,0.4c0.4,0,0.8-0.1,1-0.4c0.2-0.3,0.4-0.6,0.4-1v-13.1v-0.3
				c-0.1-2.3,0.6-4.1,1.9-5.5c1.3-1.4,3-2.1,5.1-2.1c1.9,0,3.5,0.7,4.8,2.2c1.2,1.5,1.9,3.4,1.9,5.7v13.1c0,0.4,0.1,0.7,0.4,1
				c0.3,0.3,0.6,0.4,1,0.4c0.4,0,0.8-0.1,1-0.4c0.2-0.3,0.4-0.6,0.4-1v-13.1c0-2.1-0.4-3.9-1.2-5.5
				C167.4,121.3,166.3,120.1,164.9,119.2z"/>
			<path class="st0" d="M192.8,119.5c-1.9-1.1-4.1-1.7-6.5-1.7c-2.1,0-4.1,0.5-5.8,1.4c-1.7,0.9-3.1,2.2-4.1,3.8v-2.6v-11.6
				c0-0.4-0.1-0.8-0.4-1c-0.2-0.2-0.6-0.4-1-0.4c-0.4,0-0.7,0.1-1,0.4c-0.3,0.2-0.4,0.6-0.4,1v19.2v2.6v0.1v11.5
				c0,0.4,0.1,0.8,0.4,1c0.2,0.2,0.6,0.4,1,0.4c0.4,0,0.7-0.1,1-0.4c0.3-0.2,0.4-0.6,0.4-1v-3.7c1,1.2,2.2,2.2,3.6,3
				c1.9,1.1,4,1.6,6.4,1.6c2.4,0,4.6-0.6,6.5-1.7c1.9-1.1,3.5-2.6,4.6-4.6c1.1-1.9,1.7-4.1,1.7-6.5c0-2.4-0.6-4.5-1.7-6.4
				C196.3,122.1,194.8,120.6,192.8,119.5z M195,135.7c-0.9,1.5-2.1,2.8-3.6,3.7c-1.5,0.9-3.2,1.3-5.1,1.3c-1.9,0-3.6-0.4-5.1-1.3
				c-1.5-0.9-2.7-2.1-3.6-3.7c-0.9-1.5-1.3-3.3-1.3-5.2c0-1.9,0.4-3.6,1.3-5.2c0.9-1.5,2-2.8,3.6-3.6c1.5-0.9,3.2-1.3,5.1-1.3
				c1.9,0,3.6,0.4,5.1,1.3c1.5,0.9,2.7,2.1,3.6,3.6c0.9,1.5,1.3,3.3,1.3,5.2C196.3,132.4,195.9,134.1,195,135.7z"/>
			<path class="st0" d="M218.7,119.5c-1.7-1-3.7-1.6-5.9-1.6c-2.3,0-4.3,0.5-6.1,1.6c-1.8,1.1-3.1,2.6-4.1,4.5
				c-1,1.9-1.5,4.1-1.5,6.6c0,2.4,0.5,4.6,1.6,6.5c1.1,1.9,2.5,3.4,4.4,4.5c1.9,1.1,4,1.6,6.4,1.6c1.4,0,2.9-0.3,4.5-0.9
				c1.6-0.6,2.8-1.3,3.8-2.2c0.3-0.3,0.4-0.6,0.4-0.9c0-0.4-0.2-0.7-0.5-1c-0.2-0.2-0.5-0.3-0.8-0.3c-0.3,0-0.7,0.1-1,0.4
				c-0.7,0.7-1.6,1.2-2.8,1.6c-1.2,0.4-2.4,0.6-3.6,0.6c-1.8,0-3.3-0.4-4.8-1.2c-1.4-0.8-2.6-1.9-3.4-3.3c-0.8-1.4-1.3-3-1.4-4.8h19
				c0.4,0,0.7-0.1,1-0.3c0.2-0.2,0.4-0.5,0.4-0.9c0-2.4-0.5-4.5-1.5-6.3C221.8,121.9,220.4,120.5,218.7,119.5z M203.9,129
				c0.3-2.6,1.3-4.6,2.9-6.2c1.6-1.6,3.6-2.4,6-2.4c2.4,0,4.5,0.8,6.1,2.4c1.6,1.6,2.5,3.6,2.7,6.2H203.9z"/>
			<path class="st0" d="M248.5,123.8c-1-1.8-2.3-3.3-4.1-4.3c-1.7-1-3.7-1.6-5.9-1.6c-2.3,0-4.3,0.5-6.1,1.6
				c-1.8,1.1-3.1,2.6-4.1,4.5c-1,1.9-1.5,4.1-1.5,6.6c0,2.4,0.5,4.6,1.6,6.5c1.1,1.9,2.5,3.4,4.4,4.5c1.9,1.1,4,1.6,6.4,1.6
				c1.4,0,2.9-0.3,4.5-0.9c1.6-0.6,2.8-1.3,3.8-2.2c0.3-0.3,0.4-0.6,0.4-0.9c0-0.4-0.2-0.7-0.5-1c-0.2-0.2-0.5-0.3-0.8-0.3
				c-0.3,0-0.7,0.1-1,0.4c-0.7,0.7-1.6,1.2-2.8,1.6c-1.2,0.4-2.4,0.6-3.6,0.6c-1.8,0-3.3-0.4-4.8-1.2c-1.4-0.8-2.6-1.9-3.4-3.3
				c-0.8-1.4-1.3-3-1.4-4.8h19c0.4,0,0.7-0.1,1-0.3c0.2-0.2,0.4-0.5,0.4-0.9C250,127.7,249.5,125.6,248.5,123.8z M229.7,129
				c0.3-2.6,1.3-4.6,2.9-6.2c1.6-1.6,3.6-2.4,6-2.4c2.4,0,4.5,0.8,6.1,2.4c1.6,1.6,2.5,3.6,2.7,6.2H229.7z"/>
			<path class="st0" d="M129.1,118c-0.4,0-0.7,0.1-1,0.4c-0.3,0.2-0.4,0.6-0.4,1v3.1c-1-1.2-2.1-2.2-3.5-3c-1.9-1.1-4.1-1.7-6.4-1.7
				c-2.4,0-4.6,0.6-6.5,1.7c-1.9,1.1-3.5,2.6-4.6,4.6c-1.1,1.9-1.7,4.1-1.7,6.5c0,2.4,0.6,4.5,1.7,6.4c1.1,1.9,2.6,3.5,4.6,4.6
				c1.9,1.1,4.1,1.7,6.5,1.7c2.1,0,4.1-0.5,5.8-1.4c1.7-0.9,3.1-2.2,4.1-3.8v3.5c0,0.4,0.1,0.7,0.4,1c0.3,0.3,0.6,0.4,1,0.4
				c0.4,0,0.8-0.1,1-0.4c0.2-0.3,0.4-0.6,0.4-1v-8l0,0v-14.2c0-0.4-0.1-0.8-0.4-1C129.9,118.1,129.6,118,129.1,118z M126.5,135.7
				c-0.9,1.5-2,2.8-3.6,3.6c-1.5,0.9-3.2,1.3-5.1,1.3c-1.9,0-3.6-0.4-5.1-1.3c-1.5-0.9-2.7-2.1-3.6-3.6c-0.9-1.5-1.3-3.3-1.3-5.2
				s0.4-3.6,1.3-5.2c0.9-1.5,2.1-2.8,3.6-3.7c1.5-0.9,3.2-1.3,5.1-1.3c1.9,0,3.6,0.4,5.1,1.3c1.5,0.9,2.7,2.1,3.6,3.7
				c0.9,1.5,1.3,3.3,1.3,5.2S127.3,134.2,126.5,135.7z"/>
		</g>
	</g>
</g>
</svg>
