<?xml version="1.0" encoding="utf-8"?>
<!-- Generator: Adobe Illustrator 25.2.0, SVG Export Plug-In . SVG Version: 6.00 Build 0)  -->
<svg version="1.1" id="Layer_1" xmlns="http://www.w3.org/2000/svg" xmlns:xlink="http://www.w3.org/1999/xlink" x="0px" y="0px"
	 viewBox="0 0 250 250" style="enable-background:new 0 0 250 250;" xml:space="preserve">
<style type="text/css">
	.st0{fill:#25A4D3;}
</style>
<g id="Layer_2_1_">
	<g>
		<g id="Layer_1-2_8_">
			<path class="st0" d="M93.5,111c-6,0-9.9,3.5-12.5,7.5V99.9c0-0.8-0.6-1.5-1.4-1.5c0,0-0.1,0-0.1,0c-0.8,0-1.4,0.6-1.4,1.3
				c0,0,0,0.1,0,0.1v40.9c0,0.8,0.6,1.5,1.5,1.5c0,0,0,0,0,0c0.8,0,1.4-0.6,1.4-1.4c0,0,0,0,0-0.1v-5.3c2.5,3.8,6.4,7.2,12.5,7.2
				c7.3,0,14.7-6,14.7-15.9v-0.1C108.3,116.8,100.8,111,93.5,111z M105.1,126.9c0,8.1-5.3,12.9-11.9,12.9c-6.3,0-12.4-5.2-12.4-13
				v-0.1c0-7.7,6.1-13,12.4-13c6.3,0,11.9,5.1,11.9,13.1V126.9z"/>
			<path class="st0" d="M128.8,112.8c0-0.9-0.6-1.6-1.5-1.6c0,0,0,0-0.1,0c-4.3,0-9.6,3.2-12.2,9.1v-7.4c0-0.8-0.6-1.5-1.4-1.5
				c-0.8,0-1.5,0.6-1.5,1.4c0,0.1,0,0.1,0,0.2v27.8c0,0.8,0.6,1.5,1.4,1.5s1.5-0.6,1.5-1.4c0-0.1,0-0.1,0-0.2v-11.2
				c0-9.7,5.8-14.6,12.2-15.1C128.1,114.4,128.7,113.7,128.8,112.8z"/>
			<path class="st0" d="M142.4,111c-8.2,0-14.4,7-14.4,15.8v0.1c0,9.4,6.9,15.8,14.9,15.8c5.5,0,8.8-2,11.8-4.9
				c0.3-0.3,0.5-0.6,0.5-1c0-0.8-0.6-1.4-1.4-1.4c0,0,0,0,0,0c-0.4,0-0.7,0.1-1,0.4c-2.4,2.4-5.5,4.2-9.8,4.2
				c-5.9,0-11.3-4.4-11.9-11.9h23.8c0.8,0,1.4-0.6,1.4-1.4C156.3,118,150.9,111,142.4,111z M131.1,125.4c0.5-6.7,5.2-11.8,11.2-11.8
				c7,0,10.5,5.6,10.9,11.8H131.1z"/>
			<path class="st0" d="M174.6,111c-8.2,0-14.4,7-14.4,15.8v0.1c0,9.4,6.9,15.8,14.8,15.8c5.5,0,8.9-2,11.8-4.9
				c0.3-0.3,0.5-0.6,0.5-1c0-0.8-0.6-1.4-1.4-1.4c0,0,0,0,0,0c-0.4,0-0.7,0.1-1,0.4c-2.4,2.4-5.5,4.2-9.8,4.2
				c-5.9,0-11.3-4.4-11.9-11.9h23.8c0.8,0,1.4-0.6,1.4-1.4C188.5,118,183.1,111,174.6,111z M163.3,125.4c0.5-6.7,5.2-11.8,11.2-11.8
				c7,0,10.5,5.6,10.9,11.8H163.3z"/>
			<path class="st0" d="M216,139.4h-20.8l21.1-25.2c0.3-0.3,0.5-0.8,0.5-1.2v-0.1c-0.1-0.7-0.7-1.2-1.4-1.2h-22.7
				c-0.7,0-1.3,0.6-1.3,1.3c0,0.7,0.6,1.3,1.3,1.3l0,0h20l-21.2,25.2c-0.3,0.3-0.5,0.8-0.5,1.2v0.1c0.1,0.7,0.7,1.2,1.4,1.2H216
				c0.7,0,1.3-0.6,1.3-1.3C217.3,139.9,216.8,139.4,216,139.4L216,139.4z"/>
			<path class="st0" d="M248.1,111.4c-0.7,0-1.2,0.4-1.4,1.1l-10.6,26.3L224,112.6c-0.3-0.7-0.7-1.2-1.5-1.2c-0.8,0-1.5,0.6-1.5,1.4
				c0,0,0,0,0,0.1c0,0.3,0.1,0.6,0.2,0.9l13.5,28l-0.2,0.4c-2,4.5-4,6.7-7.3,6.7c-1.3,0-2.6-0.2-3.9-0.6c-0.3-0.1-0.6-0.2-0.9-0.2
				c-0.7,0-1.4,0.6-1.4,1.3c0,0,0,0,0,0c0,0.6,0.3,1.1,0.8,1.2c1.6,0.6,3.4,1,5.2,0.9c4.3,0,7.4-2.3,10.1-8.6l12.3-29.3
				c0.1-0.2,0.2-0.5,0.2-0.8C249.6,112.1,248.9,111.4,248.1,111.4C248.1,111.4,248.1,111.4,248.1,111.4z"/>
			<path class="st0" d="M52.9,115.8c-0.9-10.6-10.3-18.4-20.8-17.4c-6.7,0.6-12.7,4.7-15.6,10.8c-9.1,0.2-16.3,7.8-16.1,16.9
				c0.2,8.9,7.4,16,16.3,16.1h33.2c7.4-0.1,13.3-6.1,13.2-13.4C63.1,122.6,58.9,117.3,52.9,115.8L52.9,115.8z M49.9,138.7H16.8
				c-7.2-0.1-12.9-6-12.9-13.1c0.1-7,5.7-12.7,12.7-12.9l1.7,0l0,0c2.9,0,6.2,2.3,7,5.4c1,3.9-1.1,7.8-4.8,8.9
				c-1.4,0.4-2.8,0.3-4.1-0.2c-1.3-0.4-2.1-0.2-2.5,0.6c-0.4,0.8-0.2,1.5,0.8,2.1c2,1,4.3,1.1,6.5,0.5c5.3-1.5,8.4-7.2,7-12.8
				c-1-3.8-4.2-6.7-8.1-7.4c4.3-7.6,13.9-10.2,21.4-6c4.5,2.5,7.5,7.1,7.9,12.3l0.2,2.5l2.4,0.6c5.3,1.3,8.6,6.6,7.3,11.9
				C58.4,135.5,54.4,138.7,49.9,138.7L49.9,138.7z"/>
		</g>
	</g>
</g>
</svg>
