<?xml version="1.0" encoding="utf-8"?>
<!-- Generator: Adobe Illustrator 25.2.0, SVG Export Plug-In . SVG Version: 6.00 Build 0)  -->
<svg version="1.1" id="Layer_1" xmlns="http://www.w3.org/2000/svg" xmlns:xlink="http://www.w3.org/1999/xlink" x="0px" y="0px"
	 viewBox="0 0 250 250" style="enable-background:new 0 0 250 250;" xml:space="preserve">
<style type="text/css">
	.st0{fill:#444444;}
	.st1{fill:#F9BC14;}
	.st2{fill:#FEFEFE;}
</style>
<g>
	<g>
		<path class="st0" d="M94.4,131.7c-0.6,1.5-1.4,2.8-2.4,3.9c-1,1.1-2.2,1.9-3.5,2.4c-1.3,0.5-2.7,0.8-4.1,0.8
			c-1.8,0-3.3-0.4-4.5-1.1c-1.2-0.7-2.2-1.5-3-2.5v3.1h-6.8v-32.8h6.8v12.1c0.8-1.1,1.8-2.1,3-2.8c1.2-0.7,2.7-1.1,4.5-1.1
			c1.4,0,2.8,0.3,4.1,0.8c1.3,0.5,2.5,1.3,3.5,2.4c1,1.1,1.8,2.4,2.4,3.9c0.6,1.5,0.9,3.3,0.9,5.3v0.1
			C95.3,128.3,95,130.1,94.4,131.7z M88.5,126.2c0-1-0.2-1.9-0.5-2.7c-0.3-0.8-0.7-1.5-1.3-2.1c-0.5-0.6-1.2-1-1.9-1.4
			c-0.7-0.3-1.5-0.5-2.3-0.5c-0.8,0-1.6,0.2-2.3,0.5c-0.7,0.3-1.3,0.8-1.8,1.4c-0.5,0.6-0.9,1.3-1.3,2.1c-0.3,0.8-0.5,1.7-0.5,2.7
			v0.1c0,1,0.2,1.9,0.5,2.7c0.3,0.8,0.7,1.5,1.3,2.1c0.5,0.6,1.1,1,1.8,1.4c0.7,0.3,1.5,0.5,2.3,0.5c0.8,0,1.6-0.2,2.3-0.5
			c0.7-0.3,1.3-0.8,1.9-1.4c0.5-0.6,1-1.3,1.3-2.1C88.4,128.3,88.5,127.4,88.5,126.2L88.5,126.2z"/>
		<path class="st0" d="M110.9,138.3v-3.4c-0.4,0.5-0.8,1-1.3,1.5c-0.5,0.5-1,0.9-1.5,1.2c-0.6,0.4-1.2,0.6-1.9,0.9
			c-0.7,0.2-1.5,0.3-2.3,0.3c-2.6,0-4.6-0.8-6-2.4c-1.4-1.6-2.1-3.8-2.1-6.6v-15.6h6.8v13.4c0,1.6,0.4,2.8,1.1,3.6
			c0.7,0.8,1.7,1.2,3.1,1.2c1.3,0,2.4-0.4,3.1-1.2c0.8-0.8,1.1-2,1.1-3.6v-13.4h6.8v24H110.9z"/>
		<path class="st0" d="M136.3,134.5c-0.5,1-1.1,1.8-2,2.4c-0.8,0.6-1.8,1.1-2.9,1.4c-1.1,0.3-2.3,0.5-3.6,0.5
			c-1.7,0-3.4-0.3-5.2-0.9c-1.8-0.6-3.5-1.5-5.1-2.8l2.9-4.5c1.3,1,2.6,1.7,3.9,2.2c1.3,0.5,2.5,0.7,3.7,0.7c1,0,1.7-0.2,2.2-0.5
			c0.5-0.3,0.7-0.8,0.7-1.3v-0.1c0-0.4-0.1-0.7-0.4-0.9c-0.3-0.3-0.6-0.5-1.1-0.7c-0.5-0.2-1-0.4-1.6-0.6c-0.6-0.2-1.2-0.4-1.9-0.6
			c-0.8-0.2-1.7-0.5-2.5-0.9c-0.9-0.3-1.6-0.8-2.3-1.3c-0.7-0.6-1.2-1.2-1.7-2c-0.4-0.8-0.7-1.8-0.7-3v-0.1c0-1.2,0.2-2.3,0.7-3.3
			c0.5-0.9,1.1-1.7,1.9-2.4c0.8-0.7,1.7-1.2,2.8-1.5c1.1-0.3,2.2-0.5,3.4-0.5c1.5,0,3.1,0.2,4.6,0.7c1.6,0.5,3,1.2,4.3,2l-2.6,4.7
			c-1.2-0.7-2.4-1.2-3.5-1.6c-1.1-0.4-2.1-0.6-3-0.6c-0.8,0-1.5,0.2-1.9,0.5c-0.4,0.3-0.6,0.7-0.6,1.2v0.1c0,0.3,0.1,0.6,0.4,0.9
			c0.3,0.3,0.6,0.5,1.1,0.7c0.4,0.2,1,0.4,1.5,0.7c0.6,0.2,1.2,0.4,1.9,0.6c0.8,0.3,1.7,0.6,2.6,1c0.9,0.4,1.6,0.8,2.3,1.4
			c0.7,0.5,1.3,1.2,1.7,2c0.4,0.8,0.7,1.7,0.7,2.8v0.1C137,132.4,136.7,133.5,136.3,134.5z"/>
		<path class="st0" d="M151,138.9c-0.4,1.2-0.9,2.3-1.4,3.1c-0.5,0.9-1.1,1.5-1.7,2.1c-0.6,0.5-1.3,0.9-2.1,1.2
			c-0.8,0.2-1.7,0.4-2.7,0.4c-1.3,0-2.4-0.2-3.3-0.4c-1-0.3-1.9-0.7-2.7-1.2l2.3-4.9c0.4,0.3,0.9,0.5,1.5,0.7c0.5,0.2,1,0.3,1.5,0.3
			c0.6,0,1.1-0.1,1.4-0.3c0.3-0.2,0.7-0.6,1-1.2l-9.4-24.1h7.2l5.5,16.4l5.2-16.4h7.1L151,138.9z"/>
		<path class="st1" d="M184.2,131.7c-0.6,1.5-1.4,2.8-2.4,3.9c-1,1.1-2.2,1.9-3.5,2.4c-1.3,0.5-2.7,0.8-4.1,0.8
			c-1.8,0-3.3-0.4-4.5-1.1c-1.2-0.7-2.2-1.5-3-2.5v3.1h-6.8v-32.8h6.8v12.1c0.8-1.1,1.8-2.1,3-2.8c1.2-0.7,2.7-1.1,4.5-1.1
			c1.4,0,2.8,0.3,4.1,0.8c1.3,0.5,2.5,1.3,3.5,2.4c1,1.1,1.8,2.4,2.4,3.9c0.6,1.5,0.9,3.3,0.9,5.3v0.1
			C185.1,128.3,184.8,130.1,184.2,131.7z M178.3,126.2c0-1-0.2-1.9-0.5-2.7c-0.3-0.8-0.7-1.5-1.3-2.1c-0.5-0.6-1.2-1-1.9-1.4
			c-0.7-0.3-1.5-0.5-2.3-0.5s-1.6,0.2-2.3,0.5c-0.7,0.3-1.3,0.8-1.8,1.4c-0.5,0.6-0.9,1.3-1.3,2.1c-0.3,0.8-0.5,1.7-0.5,2.7v0.1
			c0,1,0.2,1.9,0.5,2.7c0.3,0.8,0.7,1.5,1.3,2.1c0.5,0.6,1.1,1,1.8,1.4c0.7,0.3,1.5,0.5,2.3,0.5s1.6-0.2,2.3-0.5
			c0.7-0.3,1.3-0.8,1.9-1.4c0.5-0.6,1-1.3,1.3-2.1C178.1,128.3,178.3,127.4,178.3,126.2L178.3,126.2z"/>
		<path class="st1" d="M200.6,138.3v-3.4c-0.4,0.5-0.8,1-1.3,1.5c-0.5,0.5-1,0.9-1.5,1.2c-0.6,0.4-1.2,0.6-1.9,0.9
			c-0.7,0.2-1.5,0.3-2.3,0.3c-2.6,0-4.6-0.8-6-2.4c-1.4-1.6-2.1-3.8-2.1-6.6v-15.6h6.8v13.4c0,1.6,0.4,2.8,1.1,3.6
			c0.7,0.8,1.7,1.2,3.1,1.2c1.3,0,2.4-0.4,3.1-1.2c0.8-0.8,1.1-2,1.1-3.6v-13.4h6.8v24H200.6z"/>
		<path class="st1" d="M226,134.5c-0.5,1-1.1,1.8-2,2.4c-0.8,0.6-1.8,1.1-2.9,1.4c-1.1,0.3-2.3,0.5-3.6,0.5c-1.7,0-3.4-0.3-5.2-0.9
			c-1.8-0.6-3.5-1.5-5.1-2.8l2.9-4.5c1.3,1,2.6,1.7,3.9,2.2c1.3,0.5,2.5,0.7,3.7,0.7c1,0,1.7-0.2,2.2-0.5c0.5-0.3,0.7-0.8,0.7-1.3
			v-0.1c0-0.4-0.1-0.7-0.4-0.9c-0.3-0.3-0.6-0.5-1.1-0.7c-0.5-0.2-1-0.4-1.6-0.6c-0.6-0.2-1.2-0.4-1.9-0.6c-0.8-0.2-1.7-0.5-2.5-0.9
			c-0.9-0.3-1.6-0.8-2.3-1.3c-0.7-0.6-1.2-1.2-1.7-2c-0.4-0.8-0.7-1.8-0.7-3v-0.1c0-1.2,0.2-2.3,0.7-3.3c0.5-0.9,1.1-1.7,1.9-2.4
			c0.8-0.7,1.7-1.2,2.8-1.5c1.1-0.3,2.2-0.5,3.4-0.5c1.5,0,3.1,0.2,4.6,0.7c1.6,0.5,3,1.2,4.3,2l-2.6,4.7c-1.2-0.7-2.4-1.2-3.5-1.6
			c-1.1-0.4-2.1-0.6-3-0.6c-0.8,0-1.5,0.2-1.9,0.5c-0.4,0.3-0.6,0.7-0.6,1.2v0.1c0,0.3,0.1,0.6,0.4,0.9c0.3,0.3,0.6,0.5,1.1,0.7
			c0.4,0.2,1,0.4,1.5,0.7c0.6,0.2,1.2,0.4,1.9,0.6c0.8,0.3,1.7,0.6,2.6,1c0.9,0.4,1.6,0.8,2.3,1.4c0.7,0.5,1.3,1.2,1.7,2
			c0.4,0.8,0.7,1.7,0.7,2.8v0.1C226.7,132.4,226.5,133.5,226,134.5z"/>
		<path class="st1" d="M240.8,138.9c-0.4,1.2-0.9,2.3-1.4,3.1c-0.5,0.9-1.1,1.5-1.7,2.1c-0.6,0.5-1.3,0.9-2.1,1.2
			c-0.8,0.2-1.7,0.4-2.7,0.4c-1.3,0-2.4-0.2-3.3-0.4c-1-0.3-1.9-0.7-2.7-1.2l2.3-4.9c0.4,0.3,0.9,0.5,1.5,0.7c0.5,0.2,1,0.3,1.5,0.3
			c0.6,0,1.1-0.1,1.4-0.3c0.3-0.2,0.7-0.6,1-1.2l-9.4-24.1h7.2l5.5,16.4l5.2-16.4h7.1L240.8,138.9z"/>
	</g>
	<path class="st1" d="M26.3,155.3c-1-0.6-2.2-0.6-3.4-0.8c-11.8-2.8-21.2-13.2-22.7-25.1C-1.9,112.6,8.9,98,25.5,95.1
		c16-2.8,32,8.5,34.8,24.4c3,17.3-8.1,32.7-25.5,35.6c-0.2,0-0.5,0-0.6,0.3C31.6,155.3,29,155.3,26.3,155.3z"/>
	<path class="st2" d="M46.5,128.6c0.1,0.7-0.1,1.5-0.4,2.2c-1.2,3.7-2.4,7.3-3.6,10.9c-1.2,3.5-4.5,5.2-8,4.1
		c-4.8-1.5-9.7-3.1-14.5-4.7c-4.5-1.5-6.8-6.1-5.3-10.6c2.9-9.2,5.9-18.4,8.9-27.5c0.7-2,2.4-2.9,4.2-2.3c1.6,0.5,2.5,2.3,1.8,4.2
		c-2,6.1-4,12.2-6,18.3c-0.9,2.9-1.9,5.8-2.8,8.7c-0.6,2-0.1,2.9,1.8,3.6c4.2,1.4,8.5,2.7,12.7,4.1c0.9,0.3,1.2,0.1,1.5-0.8
		c0.9-3,1.9-6,2.9-9c0.3-0.8,0-1.1-0.7-1.3c-3.2-1-6.4-2.1-9.5-3.1c-2.1-0.7-3.1-2.2-2.5-4c0.6-1.8,2.3-2.6,4.5-1.9
		c3.7,1.2,7.3,2.4,11,3.6C45,123.9,46.5,125.9,46.5,128.6z"/>
</g>
</svg>
