<?xml version="1.0" encoding="utf-8"?>
<!-- Generator: Adobe Illustrator 25.2.0, SVG Export Plug-In . SVG Version: 6.00 Build 0)  -->
<svg version="1.1" id="Layer_1" xmlns="http://www.w3.org/2000/svg" xmlns:xlink="http://www.w3.org/1999/xlink" x="0px" y="0px"
	 viewBox="0 0 250 250" style="enable-background:new 0 0 250 250;" xml:space="preserve">
<style type="text/css">
	.st0{fill:#3F00FE;}
</style>
<g>
	<g>
		<path class="st0" d="M82.4,125.1c0-8.2,6.9-15.1,15-15.1c4,0,7.8,1.7,10.5,4.5l-1.9,1.9c-2.2-2.3-5.3-3.8-8.6-3.8
			c-6.6,0-12.2,5.7-12.2,12.5c0,6.8,5.6,12.6,12.2,12.6c3.3,0,6.4-1.5,8.6-3.8l1.9,1.9c-2.7,2.7-6.5,4.5-10.5,4.5
			C89.2,140.2,82.4,133.3,82.4,125.1z"/>
		<path class="st0" d="M113.9,110h2.6v29.7h-2.6V110z"/>
		<path class="st0" d="M141.7,135l1.7,1.8c-1.9,2-5.7,3.4-9,3.4c-5.9,0-11-5-11-11.6c0-6.5,4.9-11.4,10.8-11.4
			c6.5,0,10.4,5,10.4,12.5h-18.6c0.5,4.5,3.8,8,8.3,8C137.2,137.8,140.2,136.7,141.7,135z M126.1,127.3H142
			c-0.3-4.4-3.1-7.7-7.7-7.7C130,119.6,126.7,122.8,126.1,127.3z"/>
		<path class="st0" d="M149.4,117.7h2.9l7.8,18.6l7.8-18.6h2.9l-9.5,22H159L149.4,117.7z"/>
		<path class="st0" d="M192.5,135l1.7,1.8c-1.9,2-5.7,3.4-9,3.4c-5.9,0-11-5-11-11.6c0-6.5,4.9-11.4,10.8-11.4
			c6.5,0,10.4,5,10.4,12.5h-18.6c0.5,4.5,3.8,8,8.3,8C187.9,137.8,190.9,136.7,192.5,135z M176.9,127.3h15.9
			c-0.3-4.4-3.1-7.7-7.7-7.7C180.8,119.6,177.4,122.8,176.9,127.3z"/>
		<path class="st0" d="M213.7,117.2v2.4c-5,0-8.5,3.2-8.5,7.8v12.3h-2.6v-22h2.6v4.5C206.4,119.3,209.6,117.2,213.7,117.2z"/>
		<path class="st0" d="M219.7,110h2.6v29.7h-2.6V110z"/>
		<path class="st0" d="M229.8,146.6l0.7-2.3c0.8,0.4,1.8,0.6,2.7,0.6c1.6,0,2.8-0.6,3.6-2l1.3-2.8l-9.6-22.3h2.9l8.1,19.2l7.7-19.2
			h2.8l-10.1,24.7c-1.4,3.5-3.5,4.9-6.6,4.9C232.1,147.3,230.8,147.1,229.8,146.6z"/>
	</g>
	<g>
		<path class="st0" d="M31.6,161.3c-9.5,0-17-3.8-22.6-10.5c-12-14.3-11.9-37.8,0.2-51.9C20.7,85.3,39,85.3,50.7,98.8
			c4.1,4.8,6.7,10.3,8.1,16.4c0.3,1.3,0.3,1.6,0.3,1.6l-10.7,0c0,0-0.1-0.4-0.5-1.5c-1.3-3.5-3.2-6.6-6-9.2c-7.1-6.5-17-6.4-24,0.2
			c-4.4,4.1-6.9,10.4-7.3,16.3c-1,14.2,3.3,25.4,14.6,34.6C26.9,158.7,29.3,159.8,31.6,161.3z"/>
		<path class="st0" d="M33.2,103.9c-11.2,7.9-13.1,22.6-8,33c3.8,7.8,10.9,12.3,18.6,11.5c7.9-0.8,12.8-5.7,15.8-12.7
			c0.9-2.1,1-2.6,1-2.6l10.7,0c0,0,0.1,0.1-0.2,1.2c-2.9,14-13.2,25-25.3,26.7c-7.1,1-13.4-0.8-19.2-5
			c-10.8-7.9-16.9-24.7-13.6-37.5c1.3-5.1,3.9-9.4,8.4-12.4C24.9,103.8,28.7,102.9,33.2,103.9z"/>
		<path class="st0" d="M40.5,88.9c5-0.5,10.4,0.8,14.7,3.4c8.7,5.3,13.5,13.4,15.9,23.1c0.3,1.2,0.3,1.5,0.3,1.5l-10.2,0
			c0,0-0.2-0.4-0.6-2.2c-1.6-7.2-4.9-13.6-10.1-18.9C47.9,93,44,90.8,40.5,88.9z"/>
		<path class="st0" d="M48.2,134c0.1-0.8,0.1-0.9,0.1-0.9l10.1,0c0,0,0.1,0.2-0.2,1c-2.8,7.4-10.9,13.6-19.7,12.1
			C38.4,146.2,47.3,142.1,48.2,134z"/>
	</g>
</g>
</svg>
