<?xml version="1.0" encoding="utf-8"?>
<!-- Generator: Adobe Illustrator 25.2.0, SVG Export Plug-In . SVG Version: 6.00 Build 0)  -->
<svg version="1.1" id="Layer_1" xmlns="http://www.w3.org/2000/svg" xmlns:xlink="http://www.w3.org/1999/xlink" x="0px" y="0px"
	 viewBox="0 0 250 250" style="enable-background:new 0 0 250 250;" xml:space="preserve">
<style type="text/css">
	.st0{fill-rule:evenodd;clip-rule:evenodd;fill:url(#SVGID_1_);}
	.st1{fill-rule:evenodd;clip-rule:evenodd;fill:#FA461E;}
</style>
<g>
	
		<linearGradient id="SVGID_1_" gradientUnits="userSpaceOnUse" x1="2.6636" y1="247.965" x2="0.9715" y2="246.2729" gradientTransform="matrix(32 0 0 -31.939 -31 8017.689)">
		<stop  offset="0" style="stop-color:#F6286E"/>
		<stop  offset="1" style="stop-color:#FA461E"/>
	</linearGradient>
	<path class="st0" d="M48.8,125H38v-10.8H27.1v-10.8h21.7V125z M54.2,125H43.4c0,9-7.3,16.2-16.3,16.2S10.8,134,10.8,125
		c0-9,7.3-16.2,16.3-16.2V97.9C12.1,97.9,0,110.1,0,125s12.1,27.1,27.1,27.1S54.2,139.9,54.2,125L54.2,125z"/>
	<path class="st1" d="M82.4,140.3c4,0,7.9-1.7,10.7-4.6l-4.3-3.8c-1.6,1.8-3.9,3.1-6.4,3.1c-4.6,0-8.5-4-8.5-8.8
		c0-4.7,3.9-8.8,8.5-8.8c2.5,0,4.8,1.2,6.4,3.1l4.3-3.8c-2.8-2.9-6.7-4.6-10.7-4.6c-7.9,0-14.6,6.4-14.6,14.1
		C67.8,133.8,74.5,140.3,82.4,140.3z M101.3,123.2v-3.8h-5.9v20.5h5.9V130c0-3.8,2.8-6.3,7.1-6.3v-4.9
		C105.2,118.9,102.7,120.5,101.3,123.2L101.3,123.2z M120.3,140.3c6.1,0,11.3-4.9,11.3-10.7c0-5.8-5.1-10.7-11.3-10.7
		c-6.2,0-11.3,4.9-11.3,10.7S114.1,140.3,120.3,140.3z M120.3,135.4c-3.1,0-5.7-2.7-5.7-5.9c0-3.2,2.6-5.8,5.7-5.8
		c3.1,0,5.7,2.7,5.7,5.8S123.4,135.4,120.3,135.4z M138.6,139.8h5.3l3.9-12.9l3.9,12.9h5.3l7.1-20.5h-5.7l-3.9,12.8l-4.1-12.8h-4.9
		l-4.1,12.8l-3.9-12.8h-5.7C131.6,119.3,138.6,139.8,138.6,139.8z M181.5,112.1v10.1c-1.6-2.1-4.1-3.4-7-3.4
		c-5.5,0-9.5,4.4-9.5,10.7c0,6.3,4,10.7,9.5,10.7c2.9,0,5.3-1.3,7-3.4v2.9h5.9v-27.7L181.5,112.1L181.5,112.1z M176.2,135.4
		c-3.2,0-5.5-2.4-5.5-5.9c0-3.4,2.3-5.8,5.5-5.8c3.1,0,5.3,2.4,5.3,5.8C181.5,133,179.3,135.4,176.2,135.4z M198.2,118.2
		c0-1.3,0.9-2.3,2-2.3c0.8,0,1.6,0.3,2,0.7l1.4-3.5c-1.2-1.1-3.1-1.8-4.8-1.8c-3.6,0-6.2,2.6-6.2,6.3v1.8h-2.8v4.7h2.8v15.8h5.6V124
		h4.5v-4.7h-4.5L198.2,118.2L198.2,118.2z M208.2,116.5c1.7,0,3.1-1.4,3.1-3.2c0-1.6-1.4-3.1-3.1-3.1c-1.8,0-3.2,1.5-3.2,3.1
		C205,115.1,206.4,116.5,208.2,116.5z M205.3,139.8h5.9v-20.5h-5.9L205.3,139.8L205.3,139.8z M220.9,123.2v-3.8H215v20.5h5.9V130
		c0-3.8,2.8-6.3,7.1-6.3v-4.9C224.8,118.9,222.3,120.5,220.9,123.2z M240,135.2c-2.4,0-4.3-1.5-4.9-3.7h15c0-7.7-3.8-12.6-10.3-12.6
		c-6.1,0-10.7,4.5-10.7,10.7c0,6.3,4.8,10.8,11,10.8c3,0,6.6-1.3,8.5-3.2l-3.7-3.8C243.6,134.4,241.6,135.2,240,135.2L240,135.2z
		 M239.9,124c2.4,0,3.9,1.3,4.5,3.3h-9.3C235.9,125.2,237.7,124,239.9,124L239.9,124z"/>
</g>
</svg>
