<svg xmlns="http://www.w3.org/2000/svg" viewBox="0 0 66 32">
	<path fill="#000" d="M4.095 14.02L6.4 6.374c.409-1.026.995-1.436 1.554-1.655 1.73-.698 2.548.67 2.548.67.137.274.532.096.532.096l2.644-.82c2.058-.589 2.617 1.12 2.617 1.12l1.09 2.353c.327.78-.082 1.915-.082 1.915-.3.78-1.117 1.45-1.117 1.45 2.33-.3 2.971 2.544 2.971 2.544.695.15 1.322 1.847 1.322 1.847.245.547.368.547.368.547-1.036-4.938 1.459-7.167 1.459-7.167 1.185-1.368 2.562-1.259 2.562-1.259 2.453 0 2.699 2.708 2.699 2.708.04.657.858.247.858.247.818-.315.927-1.163.927-1.163l1.39-5.088c.273-1.08 1.336-1.094 1.336-1.094h1.826c.723.054 1.2 1.313 1.2 1.313l.954 2.16 1.867-5.758c.859-1.723 2.344-.848 2.344-.848l1.213.848c.436.342.709 1.163.709 1.163l.927 2.093c.286.848-.177 2.216-.177 2.216l-.26 1.066c.723.397 1.282 2.654 1.282 2.654 2.276-4.979 5.234-4.678 5.234-4.678 2.248.192 2.67 2.572 2.67 2.572.532.082 1.132 1.45 1.132 1.45 1.09-3.092 2.167-4.788 2.167-4.788.682-1.108 2.304-.752 2.304-.752.504.123 1.185 1.026 1.185 1.026.328.424 1.023 2.23 1.023 2.23.436-.849 1.73-.603 1.73-.603l1.336.342c.64.22.995 1.136.995 1.136l1.077 2.434c.218.643-.11 1.696-.11 1.696l-4.02 9.63c-.218.492-.75 1.778-.75 1.778-.204.52-.285.998-.285.998-.791 2.175-2.577 1.915-2.577 1.915-2.221.041-2.82-1.368-2.82-1.368l-1.05-2.147c-.382-1.094.15-1.628.15-1.628.6-.656 1.213-.725 1.213-.725.313-.082.395-.506.395-.506l.19-.643c-.626-.383-.953-.82-.953-.82-1.922 2.49-3.98 1.532-3.98 1.532-2.235 2.297-4.348.314-4.348.314-1.39-1.34-1.854-2.886-1.854-2.886-2.29 5.772-6.092 5.58-6.092 5.58-2.113-.068-2.74-1.135-2.74-1.135-1.867 2.818-5.833 1.833-5.833 1.833-.559.561-1.445.493-1.445.493-.422 1.518-1.962 1.285-1.962 1.285-2.822-.04-4.307-1.791-4.307-1.791-1.908 3.063-4.076 1.915-4.076 1.915-1.812 2.065-3.938.724-3.938.724-.832-.506-1.268-1.367-1.268-1.367-3.367 3.788-7.278 3.939-7.278 3.939-1.677.11-2.33-1.094-2.33-1.094l-1.35-2.859c-.559-1.354 0-3.132 0-3.132l1.404-4.87c-1.663-2.133.872-3.05.872-3.05.382-.123.422-.492.422-.492"/>
	<path fill="#FFF" d="M16.335 22.938c-3.053 3.173-4.852-.547-4.852-.547-1.581-3.037.94-7.332.94-7.332 2.126-3.693 4.144-3.105 4.144-3.105 1.826.22 2.017 2.421 2.017 2.421 1.54.233.927 2.244.927 2.244-.968 2.284-1.132 3.501-1.132 3.501 1.5-1.3 2.004-2.68 2.004-2.68 2.235 2.242 2.235 1.955 2.235 1.955.19-.219-.49-1.327-.49-1.327-2.372-4.677.245-8.015.245-8.015 1.88-2.749 3.789-1.162 3.789-1.162 1.376 1.135.79 4.718.79 4.718-.463 1.697-1.649.903-1.649.903-.082-.629-.368-.602-.368-.602-.968.329-.409 2.681-.409 2.681.164.67 1.022 2.421 1.022 2.421.423.739.532 1.259.532 1.259 1.635-1.354 2.426-5.827 2.426-5.827.136-.807-.559-1.409-.559-1.409-.858-.89-.19-1.3-.19-1.3.286-.218.68-.246.68-.246 1.105-.191 1.391-1.285 1.391-1.285 1.227-4.61 1.431-5.253 1.431-5.253.327-.82.981-.82.981-.82.927-.11 1.54 0 1.54 0 .873.287.587 1.203.587 1.203l-.954 3.858c-.178.683-.11.765-.11.765.041.178.273.11.273.11 1.213-.192 1.608-.027 1.608-.027.287.123.382.52.382.52l2.876-8.919c.34-.998 1.404-.738 1.404-.738.49.136 1.322.834 1.322.834.695.807.327 1.56.327 1.56l-1.322 4.431c2.971-.848 3.135 3.187 3.135 3.187.013 4.103-2.726 7.413-2.726 7.413-3.79 4.432-6.583.821-6.583.821-2.426 3.324-5.902 1.997-5.902 1.997-.886.752-1.813.602-1.813.602-.218 1.614-1.894 1.217-1.894 1.217-2.48-.396-3.98-2.024-3.98-2.024-2.467 3.61-4.075 1.997-4.075 1.997"/>
	<path fill="#F6CF46" d="M16.335 22.09c-1.527 2.352-3.053 1.463-3.053 1.463-2.358-1.285-1.717-4.5-1.717-4.5.98-5.348 3.993-6.524 3.993-6.524 2.549-.657 2.549 2.339 2.549 2.339.45 0 .926.123.954.793.04.89-.41 1.778-.41 1.778-.885 2.243-.871 2.886-.871 2.886 0 .985.776.301.776.301 1.282-.916 1.977-2.243 1.977-2.243 2.003 2.107 2.399 1.368 2.399 1.368.572-.67-.382-1.915-.382-1.915-2.33-4.5.272-7.619.272-7.619 1.432-1.846 2.508-1.23 2.508-1.23 1.39.587 1.227 2.967 1.227 2.967.136 2.75-.913 2.203-.913 2.203-.64-1.67-1.459-.37-1.459-.37-.763 1.382-.136 3.037-.136 3.037.886 2.202 1.35 2.995 1.35 2.995.844 1.943-.028 2.49-.028 2.49-2.399.752-5.056-2.203-5.056-2.203-2.767 4.419-3.98 1.984-3.98 1.984m11.585-1.505c-1.186.958-2.004.506-2.004.506 2.4-1.832 3.094-6.606 3.094-6.606.232-1.259-.817-1.942-.817-1.942-.41-.342-.028-.48-.028-.48 1.731-.382 2.004-1.326 2.004-1.326.777-2.516 1.485-5.444 1.485-5.444.178-.643.777-.711.777-.711.75-.041.913 0 .913 0 .75.027.505.793.505.793l-1.022 3.912c-.3 1.3.381 1.259.381 1.259l1.5-.137c.558.027.258.328.258.328-.177.137-.545.328-.545.328-1.267.63-1.649.999-1.649.999-1.35 1.217-1.84 3.488-1.84 3.488-.45 1.696-.49 2.106-.49 2.106-.232 1.642 1.144 1.15 1.144 1.15 2.031-.945 2.835-3.133 2.835-3.133l4.416-13.746c.218-.561.654-.561.654-.561.45.014 1.227.711 1.227.711.436.465.273 1.067.273 1.067l-1.65 5.526c1.486-1.08 2.276-.356 2.276-.356 1.718 1.231 1.036 4.186 1.036 4.186-.817 4.308-3.42 6.442-3.42 6.442-.927.793-1.745 1.053-2.44 1.026-2.44-.123-2.658-1.888-2.658-1.888-2.63 4.145-6.215 2.503-6.215 2.503"/>
	<path fill="#FFF" d="M48.991 17.289c-2.753 2.954-4.648-.205-4.648-.205-1.921-3.639 1.05-8.152 1.05-8.152 2.33-3.365 4.252-2.572 4.252-2.572 1.5.452 1.622 2.38 1.622 2.38 1.54.274 1.009 2.08 1.009 2.08-.327 1.271-.559 1.723-.559 1.723-.668 1.504-.559 1.915-.559 1.915.286.054 1.213-1.505 1.213-1.505.668-1.026 1.036-2.544 1.036-2.544 1.077-3.146 2.14-4.965 2.14-4.965.654-.958 1.567-.725 1.567-.725.954.342 1.39 1.436 1.39 1.436.314 1.026-.19 1.573-.19 1.573-1.636 3.105-2.167 5.047-2.167 5.047-.273.93-.028 1.122-.028 1.122.464.191 1.159-.63 1.159-.63.409-.355.722-1.285.722-1.285l1.8-3.803c.408-.875 1.158-.807 1.158-.807 1.363.206 1.73.48 1.73.48.873.656.328 1.969.328 1.969l-4.43 10.573c-.45 1.012-.6 1.627-.6 1.627-.517 2.107-2.425 1.765-2.425 1.765-2.113-.26-1.936-1.34-1.936-1.34.041-.548.654-.794.654-.794.586-.205.79-.314.79-.314.274-.137.396-.63.396-.63a254.855 254.855 0 0 0 1.281-3.912c-2.63.93-3.639-1.148-3.639-1.148-2.835 3.186-4.116 1.64-4.116 1.64"/>
	<path fill="#F6CF46" d="M49.018 16.455c-1.458 2.202-2.93 1.518-2.93 1.518-2.835-1.272-1.745-5.28-1.745-5.28 1.336-5.649 4.662-5.881 4.662-5.881 1.73-.274 1.826 2.503 1.826 2.503 1.568-.26.723 1.956.723 1.956-1.54 4.035-.655 3.939-.655 3.939 1.227-.069 2.603-3.666 2.603-3.666 1.772-4.773 2.577-5.977 2.577-5.977.545-.725 1.253-.11 1.253-.11 1.118 1.054.696 1.738.696 1.738-1.868 3.42-2.481 5.8-2.481 5.8-.382 1.435.668 1.462.668 1.462 1.158-.081 1.88-1.572 1.88-1.572 1.718-3.516 2.1-4.514 2.1-4.514.395-.752 1.13-.451 1.13-.451.519.136.996.273.996.273.613.465.218 1.231.218 1.231L57.632 21.31c-.19.493-.313.862-.313.862-.49 1.327-1.95 1.094-1.95 1.094-1.43-.342-1.335-.752-1.335-.752.014-.342.559-.451.559-.451 1.077-.384 1.158-.958 1.158-.958a66.895 66.895 0 0 0 1.772-5.457c-3.475 2.489-4.389-1.15-4.389-1.15-3.012 4.5-4.116 1.957-4.116 1.957"/>
	<path fill="#FFF" d="M14.713 20.968s-.504.725-1.022.547c-.518-.178-.382-1.86-.382-1.86.804-3.501 2.603-4.951 2.603-4.951.818-.465.995.738.995.738.068 2.052-2.194 5.526-2.194 5.526"/>
	<path fill="#000" d="M14.481 17.686c1.363-2.804 1.827-2.558 1.827-2.558.49.547-.723 3.173-.723 3.173-1.35 2.886-1.676 2.722-1.676 2.722-.123-.082-.15-.356-.11-.698.083-1.367.682-2.64.682-2.64m20.908-6.688c-1.118 3.597-1.431 4.486-1.431 4.486-1.336 2.886-2.903 2.886-2.903 2.886-.26-.123 0-1.217 0-1.217.6-2.585 1.145-3.515 1.145-3.515.586-1.231 1.703-1.71 1.703-1.71l1.486-.93z"/>
	<path fill="#FFF" d="M3.414 17.33c-1.2-1.149-.136-2.01-.136-2.01.395-.384.79-.438.79-.438.586-.274.586-.807.586-.807 1.663-5.814 2.263-7.51 2.263-7.51.681-1.682 2.003-1.641 2.003-1.641.94.055 1.2.862 1.2.862.19.424.613.273.613.273l3.094-.943c1.663-.342 1.88.861 1.88.861.219 1.259-.667 2.161-.667 2.161-.722.67-1.186.67-1.186.67-2.167.52-3.38 1.15-3.38 1.15-.463.191-.49.492-.49.492l-.927 2.694c2.44-.93 2.74-.177 2.74-.177.926 1.121-.15 2.708-.15 2.708-.628 1.08-3.776 1.915-3.776 1.915l-1.077 3.966 2.63-.793c2.195-.451 1.282 1.888 1.282 1.888-.11.232-1.813 1.914-3.503 2.708-2.644 1.23-3.23 1.067-3.23 1.067-2.903-.055-2.113-3.187-2.113-3.187l1.554-5.91z"/>
	<path fill="#F6CF46" d="M5.077 14.43L7.38 6.743c.586-1.504 1.595-1.3 1.595-1.3.559.11.75.63.75.63.313.739 1.185.451 1.185.451l3.121-.943c.94-.288 1.186.52 1.186.52.11.779-.259 1.312-.259 1.312-.45.67-1.131.876-1.131.876l-2.44.67c-1.499.424-1.812.971-1.812.971l-1.2 3.94 1.963-.616c.763-.274 1.145.11 1.145.11.531.82-.246 1.914-.246 1.914a2.858 2.858 0 0 1-1.512 1.094l-2.304.848-1.186 4.418c-.245.712.573.383.573.383l2.794-.793c.654-.164.818.328.818.328.136.52-.191.958-.191.958-2.603 2.53-5.343 3.269-5.343 3.269-1.867.451-2.44-.643-2.44-.643-.49-.985.082-2.654.082-2.654l1.431-5.101c.068-.247-.04-.329-.04-.329-.805-.478-.519-1.053-.519-1.053.232-.52.995-.752.995-.752.573-.26.682-.82.682-.82"/>
	<path fill="#FFF" d="M46.429 16.058c-1.336-.793.586-4.787.586-4.787 1.472-2.9 2.29-2.162 2.29-2.162 1.117 1.095-.832 4.596-.832 4.596-1.336 2.681-2.044 2.353-2.044 2.353"/>
	<path fill="#000" d="M47.247 12.146c1.363-2.804 1.826-2.558 1.826-2.558.49.547-.722 3.173-.722 3.173-1.35 2.887-1.677 2.722-1.677 2.722-.123-.082-.15-.355-.109-.697.095-1.382.682-2.64.682-2.64"/>
	<path fill="#FFF" d="M39.86 9.643c1.621.862-.178 5.239-.178 5.239-1.567 3.501-2.603 3.09-2.603 3.09-1.145-.546.995-5.744.995-5.744.968-2.831 1.785-2.585 1.785-2.585"/>
	<path fill="#000" d="M38.156 13.514c1.213-3.392 1.608-3.365 1.608-3.365.204.096.204.465.259.93.136 1.477-.532 2.913-.532 2.913-.98 3.037-2.14 3.461-2.14 3.461-.068.027-.054-.315-.054-.315-.041-1.504.859-3.624.859-3.624"/>
	<path fill="#FFF" d="M51.349 21.816c.3 0 .518.247.518.547a.514.514 0 0 1-.518.534.525.525 0 0 1-.532-.534c0-.3.232-.547.532-.547m0 1.218a.676.676 0 1 0 0-1.354c-.382 0-.695.3-.695.67 0 .383.3.684.695.684"/>
	<path fill="#FFF" d="M51.24 22.13c.014 0 .04-.013.082-.013.095 0 .15.041.15.11 0 .068-.068.095-.15.095h-.068v-.191h-.014zm0 .302h.068c.082 0 .123.027.136.11.028.081.028.136.055.163h.164a1.035 1.035 0 0 1-.055-.164c-.027-.096-.054-.137-.123-.164v-.014c.082-.027.137-.082.137-.15 0-.068-.028-.123-.068-.15a.437.437 0 0 0-.232-.055c-.11 0-.191.013-.26.027v.67h.15v-.273h.028z"/>
	<path fill="#FFF" d="M39.41.137c-.477 0-1.132.206-1.609 1.15v.027l-1.758 5.443-.804-1.832c-.04-.096-.532-1.34-1.322-1.396h-1.854c-.013 0-1.172.028-1.472 1.19l-1.39 5.089v.027c0 .027-.109.766-.845 1.053 0 0-.232.11-.422.11-.164 0-.232-.069-.246-.247 0-.027-.068-.71-.45-1.408-.354-.643-1.049-1.423-2.385-1.423h-.081c-.341 0-1.527.096-2.576 1.3-.069.068-.668.642-1.145 1.778-.423.998-.818 2.626-.464 4.869-.109-.274-.654-1.641-1.322-1.888-.122-.437-.804-2.571-2.699-2.598.273-.274.682-.725.873-1.245.013-.055.436-1.204.082-2.024l-1.09-2.353c-.042-.123-.519-1.327-1.936-1.327-.26 0-.545.041-.845.123l-2.658.821h-.027s-.11.041-.205.041c-.109 0-.136-.055-.15-.082-.027-.041-.572-.944-1.73-.944-.314 0-.655.069-.995.205-.477.192-1.173.589-1.622 1.737L3.959 13.98v.028c0 .013-.04.287-.313.383-.055.013-1.2.451-1.486 1.409-.163.547.014 1.162.49 1.805l-1.39 4.8c-.027.068-.572 1.847 0 3.228l1.364 2.845c.027.055.654 1.176 2.248 1.176h.205c.04 0 1.008-.04 2.412-.56 1.268-.466 3.108-1.41 4.825-3.31.177.287.586.861 1.227 1.258.027.013.722.451 1.662.451.886 0 1.69-.383 2.372-1.121.164.068.504.177.954.177.804 0 1.99-.355 3.094-2.051.423.424 1.867 1.682 4.28 1.71.027 0 .122.013.245.013.436 0 1.458-.123 1.826-1.286.273 0 .914-.054 1.39-.478.205.04.791.15 1.554.15 1.322 0 3.108-.328 4.253-1.901.272.314 1.05.985 2.726 1.04h.054c.395 0 3.857-.151 6.038-5.335.218.533.75 1.614 1.772 2.613.04.04.9.834 2.126.834.832 0 1.622-.37 2.344-1.08.15.054.505.163.954.163.764 0 1.895-.287 2.999-1.627.136.15.409.41.79.656l-.163.547c-.014.096-.11.342-.286.397-.096.014-.695.137-1.281.766-.028.027-.573.602-.178 1.765v.027l1.05 2.147c.04.11.668 1.45 2.862 1.45h.082c.027 0 .082.014.177.014.422 0 1.854-.15 2.535-2.024v-.028s.082-.479.286-.971c0-.014.532-1.286.736-1.778l4.035-9.643c.013-.041.34-1.094.109-1.778L63.86 8.426c-.014-.04-.395-.971-1.077-1.203l-1.336-.342c-.013 0-.19-.041-.45-.041-.558 0-1.008.164-1.267.478-.204-.52-.681-1.682-.94-2.024-.068-.096-.736-.944-1.268-1.067-.013 0-.272-.055-.613-.055-.586 0-1.39.15-1.84.876-.014.013-1.022 1.627-2.072 4.5-.204-.397-.6-1.067-1.008-1.204-.11-.438-.696-2.42-2.767-2.599h-.11c-.299 0-1.09.069-2.085.698-1.158.738-2.18 1.997-3.012 3.72-.19-.643-.613-1.915-1.158-2.325l.245-.957c.041-.11.477-1.437.177-2.298l-.926-2.093c-.028-.082-.3-.875-.75-1.217L40.391.425c-.068-.055-.477-.288-.981-.288m0 .137c.49 0 .858.219.858.219l1.213.848c.436.342.709 1.163.709 1.163l.927 2.092c.286.848-.177 2.216-.177 2.216l-.26 1.067c.723.397 1.282 2.654 1.282 2.654 2.03-4.432 4.593-4.678 5.125-4.678h.109c2.249.191 2.67 2.571 2.67 2.571.533.082 1.132 1.45 1.132 1.45 1.09-3.091 2.167-4.787 2.167-4.787.423-.67 1.186-.807 1.718-.807.34 0 .586.054.586.054.504.124 1.185 1.026 1.185 1.026.328.424 1.023 2.23 1.023 2.23.272-.534.886-.63 1.308-.63.245 0 .423.028.423.028l1.335.342c.64.219.995 1.135.995 1.135l1.077 2.435c.218.643-.109 1.696-.109 1.696l-4.02 9.63c-.219.492-.75 1.777-.75 1.777-.205.52-.287.999-.287.999-.64 1.764-1.949 1.928-2.412 1.928-.109 0-.164-.013-.164-.013h-.081c-2.154 0-2.74-1.368-2.74-1.368l-1.05-2.148c-.381-1.094.15-1.627.15-1.627.6-.657 1.214-.725 1.214-.725.313-.082.395-.506.395-.506l.19-.643c-.626-.383-.953-.82-.953-.82-1.09 1.408-2.208 1.709-2.985 1.709-.6 0-.995-.178-.995-.178-.818.848-1.622 1.108-2.317 1.108-1.186 0-2.031-.793-2.031-.793-1.39-1.34-1.854-2.886-1.854-2.886-2.14 5.403-5.615 5.58-6.051 5.58h-.041c-2.113-.068-2.74-1.135-2.74-1.135-1.104 1.655-2.93 1.997-4.238 1.997-.927 0-1.595-.164-1.595-.164-.45.451-1.104.492-1.35.492h-.095c-.327 1.163-1.28 1.3-1.73 1.3-.137 0-.232-.014-.232-.014-2.822-.041-4.307-1.792-4.307-1.792-1.09 1.751-2.277 2.134-3.08 2.134-.6 0-.995-.205-.995-.205-.791.903-1.636 1.149-2.331 1.149a3.232 3.232 0 0 1-1.595-.438c-.831-.506-1.267-1.368-1.267-1.368-3.38 3.789-7.292 3.94-7.292 3.94h-.205c-1.526 0-2.126-1.108-2.126-1.108l-1.35-2.845c-.558-1.355 0-3.133 0-3.133l1.405-4.869c-1.663-2.134.872-3.05.872-3.05.368-.11.409-.493.409-.493l2.303-7.646c.41-1.025.995-1.436 1.554-1.655.354-.136.668-.191.94-.191 1.09 0 1.609.875 1.609.875.054.123.163.15.272.15a.73.73 0 0 0 .26-.054l2.643-.82c.3-.083.573-.124.818-.124 1.404 0 1.8 1.231 1.8 1.231l1.09 2.353c.327.78-.082 1.915-.082 1.915-.3.78-1.118 1.45-1.118 1.45.123-.014.232-.028.341-.028 2.044 0 2.63 2.572 2.63 2.572.696.15 1.323 1.846 1.323 1.846.245.547.368.547.368.547-1.036-4.937 1.458-7.167 1.458-7.167 1.009-1.176 2.167-1.258 2.48-1.258h.082c2.454 0 2.699 2.708 2.699 2.708.014.287.19.37.382.37.231 0 .49-.124.49-.124.818-.314.927-1.162.927-1.162l1.39-5.089c.273-1.08 1.336-1.094 1.336-1.094h1.826c.723.055 1.2 1.313 1.2 1.313l.954 2.161 1.867-5.758C38.346.479 38.933.274 39.41.274"/>
</svg>
