<?xml version="1.0" encoding="utf-8"?>
<!-- Generator: Adobe Illustrator 25.2.0, SVG Export Plug-In . SVG Version: 6.00 Build 0)  -->
<svg version="1.1" id="Layer_1" xmlns="http://www.w3.org/2000/svg" xmlns:xlink="http://www.w3.org/1999/xlink" x="0px" y="0px"
	 viewBox="0 0 250 250" style="enable-background:new 0 0 250 250;" xml:space="preserve">
<style type="text/css">
	.st0{fill-rule:evenodd;clip-rule:evenodd;}
	.st1{fill-rule:evenodd;clip-rule:evenodd;fill:#683993;}
	.st2{fill-rule:evenodd;clip-rule:evenodd;fill:#993300;}
	.st3{fill-rule:evenodd;clip-rule:evenodd;fill:#FF0000;}
	.st4{fill-rule:evenodd;clip-rule:evenodd;fill:#EF6333;}
</style>
<g id="svgg">
	<path id="path0" class="st0" d="M16.9,111c0.2,0.1,0.5,0.2,0.6,0.2c0.2,0,0.2,0-0.1-0.1C17.3,111,17,111,16.9,111
		C16.7,110.9,16.7,110.9,16.9,111 M12,111.1c0.1,0,0.3,0,0.4,0c0.1,0,0,0-0.2,0C11.9,111.1,11.9,111.1,12,111.1 M3.5,125.8
		c0,0.4,0,0.6,0,0.4c0-0.2,0-0.6,0-0.8C3.6,125.2,3.5,125.4,3.5,125.8 M29.7,127.1c0,0.2,0,0.4,0,0.4
		C29.8,127.4,29.8,127.2,29.7,127.1C29.7,126.7,29.7,126.7,29.7,127.1 M25.9,127.4c0,0.3,0,0.4,0,0.2c0-0.1,0-0.3,0-0.5
		C25.9,127,25.9,127.1,25.9,127.4 M0.9,131.3c0.1,0.2,0.2,0.4,0.2,0.4c0.1,0,0-0.1,0-0.2C0.9,131.1,0.7,130.9,0.9,131.3 M16.6,136.9
		c0.1,0,0.3,0,0.4,0c0.1,0,0,0-0.2,0C16.6,136.9,16.5,136.9,16.6,136.9 M150.8,140.3l-0.3,0.3L150.8,140.3c0.4-0.3,0.4-0.3,0.3-0.3
		C151.2,140,151,140.1,150.8,140.3 M12.7,140.6c0.1,0.1,0.2,0.1,0.3,0.1c0.2,0,0.2,0-0.1-0.1C12.8,140.6,12.7,140.6,12.7,140.6"/>
	<path id="path1" class="st1" d="M12.8,110.9c-0.2,0-0.3,0.1-0.3,0.1c0,0.1-0.2,0.1-0.4,0.1c-1.2,0-4.9,1.4-5.4,2.1
		c-0.1,0.1-0.2,0.1-0.2,0.1c-0.2,0-1.6,1.2-2.3,1.9c-1.5,1.5-2.7,3.4-3.6,5.7c-0.1,0.3-0.4,1.5-0.6,2.2c-0.3,1.6,0,6,0.6,7.5
		c1,2.7,2.5,4.8,4.6,6.6c1,0.9,3.4,2.2,4.2,2.4c0.2,0,0.4,0.1,0.5,0.2c0.1,0.1,0.3,0.1,0.4,0.1c0.1,0,0.3,0,0.3,0.1
		c0,0.1,0.4,0.1,0.8,0.2c0.4,0,1,0.1,1.3,0.2c0.8,0.2,3.2,0.2,4,0c0.3-0.1,0.9-0.2,1.2-0.2c0.4,0,0.7-0.1,0.7-0.2
		c0-0.1,0.2-0.1,0.4-0.1c0.2,0,0.4-0.1,0.4-0.1s0.3-0.2,0.5-0.2c0.4-0.1,0.5-0.1,1-0.4c0.1-0.1,0.5-0.2,0.7-0.4
		c0.4-0.2,1.8-1.1,1.9-1.2c0,0,0.2-0.2,0.4-0.3c1-0.7,2.4-2.3,3.2-3.5c0.8-1.3,1.6-2.9,1.8-3.9c0-0.1,0.1-0.3,0.1-0.4
		c0.1-0.1,0.1-0.6,0.2-1.1c0.1-0.5,0.2-1.1,0.2-1.4c0.1-0.7,0.1-2.1,0-2.7c-0.1-0.3-0.2-0.9-0.2-1.3c-0.1-0.5-0.1-0.9-0.2-1.1
		c-0.1-0.1-0.1-0.3-0.2-0.4c-0.1-0.3-0.4-0.2-0.6,0.1c-0.1,0.2-0.6,0.9-1.2,1.7c-1.3,1.7-1.2,1.6-1.3,3c-0.2,2.9-1.3,5.5-3.3,7.4
		c-0.5,0.5-1.7,1.4-1.8,1.4c0,0-0.2,0.1-0.4,0.3c-0.2,0.1-0.4,0.3-0.4,0.3c0,0-0.4,0.2-0.9,0.4c-0.4,0.2-0.8,0.4-0.9,0.4
		s-0.3,0-0.4,0.1c-0.4,0.1-1,0.3-1.8,0.4c-0.4,0.1-0.8,0.2-0.8,0.2c-0.2,0.3-4-0.2-4-0.6c0-0.1-0.2-0.2-0.3-0.3
		c-0.2-0.1-0.5-0.2-0.7-0.3c-0.2-0.1-0.6-0.2-0.7-0.2c-0.6,0-2.7-1.5-2.7-1.9c0-0.1-0.2-0.4-0.5-0.8c-0.3-0.3-0.6-0.6-0.6-0.7
		c0,0-0.1-0.1-0.2-0.1c-0.5,0-1.7-2.5-1.7-3.9c0-0.4-0.1-1.1-0.2-1.7c-0.2-1.2,0.1-4.2,0.4-4.3c0,0,0.1-0.2,0.1-0.3
		c0-0.1,0-0.3,0.1-0.3c0.1,0,0.1-0.2,0.2-0.5c0-0.2,0.1-0.4,0.2-0.4c0,0,0.2-0.2,0.3-0.5c0.5-1.1,1.9-2.8,3-3.6
		c0.4-0.3,0.7-0.6,0.8-0.6c0.1-0.1,0.4-0.3,0.8-0.4c0.3-0.1,0.6-0.3,0.6-0.4c0-0.1,0.2-0.1,0.4-0.2c0.2,0,0.4-0.1,0.4-0.2
		c0.1,0,0.2-0.1,0.4-0.1c0.1,0,0.5-0.1,0.7-0.2c1.4-0.4,4.3-0.4,5.6,0c0.2,0.1,0.5,0.1,0.6,0.2c0.1,0,0.3,0.1,0.4,0.2
		c0.1,0,0.3,0.1,0.5,0.1c0.2,0,0.5,0.1,0.5,0.2c0.1,0.1,0.3,0.2,0.4,0.3c0.4,0.2,1.8,1.1,1.8,1.2c0.1,0.2,0.8,0.6,0.9,0.6
		c0.1,0,0.5-0.5,1-1.2c0.5-0.7,0.9-1.2,1-1.3c0.2-0.1,0.1-0.5-0.4-0.8c-0.3-0.2-0.5-0.4-0.6-0.5c-0.2-0.3-1.6-1.1-2.5-1.5
		c-0.9-0.4-1.1-0.5-1.7-0.7c-0.4-0.1-1.7-0.4-2-0.4c-0.1,0-0.4-0.1-0.6-0.2C16.6,110.9,13.8,110.8,12.8,110.9 M44.2,115.2
		c-0.2,0-0.4,0.1-0.5,0.1c-0.1,0.1-0.6,0.2-1,0.3c-0.7,0.2-1.9,0.8-2.4,1.2c-0.6,0.4-2.3,2.2-2.5,2.7c-0.2,0.3-0.4,0.6-0.4,0.6
		c-0.1,0.1-0.2,0.3-0.3,0.6c-0.1,0.3-0.3,0.7-0.4,0.9c-0.8,1.6-0.8,7.3,0,7.8c0,0,0.2,0.3,0.3,0.7c0.1,0.3,0.3,0.7,0.4,0.8
		c0.1,0.1,0.2,0.3,0.2,0.3c0,0.1,0.8,1.2,1.4,1.8c0.4,0.5,1.7,1.5,1.9,1.5c0.1,0,0.2,0.1,0.4,0.2c0.2,0.1,0.6,0.3,1,0.4
		c0.4,0.1,0.8,0.3,0.9,0.3c0.8,0.4,5.2,0.4,6.1,0c0.1-0.1,0.5-0.2,0.8-0.3c1.7-0.5,3.9-2.3,4.8-3.8c0.2-0.3,0.3-0.5,0.3-0.5
		c0.1-0.1,0.5-0.9,0.5-1c0-0.1-0.3-0.3-0.7-0.5c-0.4-0.2-0.7-0.4-0.8-0.4c-0.1-0.1-0.6-0.3-0.8-0.3c-0.1,0-0.2,0.1-0.3,0.2
		c-1.6,2.8-4,4.3-7.1,4.3c-1.4,0-3.1-0.3-3.3-0.6c0,0-0.3-0.2-0.5-0.3c-0.6-0.3-2.1-1.8-2.4-2.5c-0.1-0.3-0.3-0.5-0.3-0.6
		c-0.1-0.1-0.5-1.3-0.6-1.9c0-0.3-0.1-0.6-0.2-0.6c-0.1,0-0.1-0.2-0.1-0.5v-0.4h8.8h8.8l0-0.7c0-0.8-0.3-2.7-0.4-2.9
		c0-0.1-0.2-0.5-0.3-0.9c-0.1-0.4-0.3-0.8-0.4-0.9c-0.1-0.1-0.2-0.3-0.3-0.6c-0.8-1.7-3.6-3.9-5.6-4.4c-0.4-0.1-0.8-0.2-0.8-0.3
		C48.6,115.2,44.8,115.1,44.2,115.2 M69.3,115.2c-0.2,0-0.3,0.1-0.4,0.1c0,0-0.3,0.1-0.6,0.2c-0.5,0.1-0.9,0.3-1.7,0.7
		c-0.7,0.4-2.1,1.6-2.5,2.1c-0.3,0.5-0.4,0.3-0.4-1.2v-1.5h-1.4h-1.4l0,9.9l0,9.9l1.4,0l1.4,0l0-5.8c0-4,0.1-5.8,0.2-6
		c0.1-0.1,0.2-0.6,0.3-1c0.3-1.5,1.8-3.5,3.1-4.1c0.2-0.1,0.4-0.2,0.5-0.3c0.6-0.5,3.2-0.7,4.5-0.4c1.4,0.4,2.6,1.6,2.9,2.9
		c0.1,0.3,0.2,0.5,0.2,0.6c0.2,0.1,0.3,2.9,0.3,8.3l0,5.7l1.3,0l1.3,0l0-6.3c0-3.5,0-6.3-0.1-6.4c-0.1-0.1-0.1-0.5-0.2-0.9
		c-0.1-1-0.4-2.4-0.6-2.5c-0.1,0-0.1-0.1-0.1-0.2c0-1-2.3-3.1-3.8-3.5c-0.3-0.1-0.6-0.2-0.7-0.3C72.9,115.2,69.9,115.1,69.3,115.2
		 M90.9,115.2c-0.2,0-0.3,0.1-0.3,0.1c0,0.1-0.1,0.1-0.2,0.1c-0.3,0-1.9,0.5-1.9,0.6c0,0-0.3,0.2-0.7,0.4c-0.4,0.2-0.7,0.3-0.7,0.4
		c0,0-0.2,0.2-0.4,0.3c-0.4,0.2-1.7,1.6-2.2,2.1c-0.4,0.6-0.8,1.1-1,1.7c-0.1,0.3-0.3,0.7-0.4,0.9c-0.6,1.3-0.7,4.5-0.3,6.2
		c0.1,0.5,0.3,1,0.3,1s0.1,0.2,0.2,0.5c0.1,0.5,0.9,1.7,1.3,2.1c0.1,0.1,0.3,0.3,0.3,0.4c0.1,0.2,0.4,0.5,1.4,1.3
		c0.4,0.3,2,1.2,2.4,1.3c0.2,0,0.4,0.1,0.4,0.2c0.4,0.6,5.6,0.7,7,0c0.2-0.1,0.6-0.3,1-0.4c0.4-0.2,0.7-0.3,0.7-0.4
		c0,0,0.2-0.2,0.4-0.3c0.5-0.3,0.8-0.5,1.6-1.3l0.7-0.7l-0.1,1.5c0,0.8-0.1,1.5-0.2,1.5c-0.1,0-0.1,0.2-0.1,0.3
		c0,1.8-1.3,3.5-3.4,4.5c-2.5,1.2-7.3,0.8-9-0.6c-0.6-0.5-1.3-1.2-1.5-1.5c-0.1-0.2-0.3-0.4-0.4-0.5c-0.1-0.1-0.1-0.2-0.1-0.2
		c0-0.1-0.7-0.1-1.5-0.1c-0.8,0-1.5,0-1.5,0.1c0,0.1,0.3,0.8,0.4,0.9c0,0,0.2,0.3,0.4,0.7c0.2,0.3,0.3,0.6,0.4,0.6
		c0,0,0.1,0.1,0.2,0.3c0.2,0.4,1.6,1.8,1.9,2c0.2,0.1,0.3,0.2,0.3,0.2c0,0.1,2,1,2.6,1.2c0.3,0.1,0.6,0.2,0.7,0.2
		c0.5,0.4,5.9,0.4,6.7,0c0.1-0.1,0.5-0.2,1-0.3c0.4-0.1,0.8-0.3,0.8-0.3c0,0,0.3-0.2,0.6-0.3c0.9-0.4,2.4-1.7,2.8-2.4
		c0.1-0.2,0.3-0.4,0.4-0.5c0.1-0.1,0.2-0.4,0.4-0.7c0.1-0.3,0.3-0.7,0.3-0.7c0.1-0.1,0.3-0.8,0.4-1.7c0.1-0.4,0.1-3.7,0.2-10.3
		l0-9.7h-1.3h-1.3l0,1.6l0,1.6l-0.8-0.8c-0.9-0.8-1.5-1.3-2.1-1.6c-0.2-0.1-0.4-0.2-0.4-0.3c-0.1-0.1-1.6-0.6-1.9-0.6
		c-0.1,0-0.2-0.1-0.2-0.1C95,115.2,91.7,115.1,90.9,115.2 M115.9,115.2c-0.2,0-0.4,0.1-0.4,0.1c0,0.1-0.1,0.1-0.2,0.1
		c-0.3,0-1.9,0.5-1.9,0.6c0,0-0.3,0.2-0.6,0.4c-0.3,0.2-0.6,0.3-0.6,0.4c0,0-0.1,0.1-0.2,0.1c-0.2,0.1-1.7,1.6-2.2,2.1
		c-0.4,0.5-0.9,1.4-1.2,1.9c-0.1,0.3-0.3,0.7-0.4,0.9c-0.7,1.5-0.7,5.8,0,7.3c0.7,1.5,1.2,2.5,1.5,2.6c0.1,0.1,0.2,0.2,0.2,0.2
		c0,0.2,1.3,1.5,2,2c0.9,0.7,2.5,1.4,3,1.5c0.1,0,0.2,0,0.2,0.1c0,0.4,5.1,0.4,5.6,0c0.1,0,0.4-0.2,0.9-0.3c0.4-0.1,0.8-0.3,0.8-0.3
		c0-0.1,0.3-0.2,0.6-0.4c0.7-0.3,1-0.6,1.9-1.5l0.7-0.7l0,1.5l0,1.5h1.3h1.3v-9.9v-9.9h-1.3h-1.3l0,1.6l0,1.6l-0.7-0.8
		c-0.8-0.9-1.6-1.5-2.2-1.8c-0.2-0.1-0.4-0.2-0.4-0.3c0,0-0.4-0.2-0.9-0.4c-0.5-0.2-1-0.3-1.1-0.4
		C119.9,115.2,116.7,115.1,115.9,115.2 M141,115.2c-0.2,0-0.3,0.1-0.3,0.1c0,0.1-0.1,0.1-0.2,0.1c-0.3,0-1.8,0.5-1.9,0.6
		c0,0-0.4,0.2-0.7,0.4c-0.4,0.2-0.7,0.3-0.7,0.4c0,0-0.2,0.2-0.3,0.3c-0.3,0.2-1.8,1.7-2.2,2.2c-0.4,0.6-1,1.7-1.2,2.1
		c-0.1,0.3-0.2,0.6-0.3,0.6c-0.6,0.8-0.6,6,0,6.7c0,0.1,0.2,0.4,0.3,0.7c0.1,0.3,0.3,0.7,0.4,0.8c0.1,0.1,0.3,0.4,0.4,0.7
		c0.7,1.2,2.8,3,4.2,3.5c0.4,0.1,0.8,0.3,1,0.4c1.4,0.6,5.4,0.6,6.8,0c0.2-0.1,0.6-0.3,0.9-0.4c0.3-0.1,0.7-0.3,0.8-0.4
		s0.2-0.2,0.2-0.2c0.2,0,1.3-0.9,1.9-1.5l0.6-0.6v0.4c0,0.9-0.2,3.2-0.3,3.4c-0.1,0.1-0.2,0.4-0.3,0.8c-0.7,2.4-3.4,3.9-7,3.9
		c-3.3,0-5.2-0.9-6.8-3.1l-0.4-0.5l-1.5,0l-1.5,0l0.1,0.2c0,0.1,0.1,0.3,0.2,0.4c0.1,0.1,0.3,0.4,0.4,0.7c0.5,1,2.1,2.9,2.5,2.9
		c0.1,0,0.2,0.1,0.3,0.2c0.3,0.3,2.1,1.1,2.8,1.3c0.3,0.1,0.6,0.2,0.7,0.2c0.5,0.4,5.5,0.4,6.8,0c0.5-0.2,0.9-0.3,1-0.3
		c0.2,0,1.9-0.9,2.1-1.1c0.1-0.1,0.2-0.2,0.2-0.2c0.4,0,2.2-2.3,2.5-3.1c0.1-0.2,0.2-0.4,0.2-0.4c0.2,0,0.6-2.2,0.6-3.1
		c0-0.2,0-0.4,0.1-0.4c0.1,0,0.1-3.1,0.1-9.2v-9.2H152h-1.4l0,1.5l0,1.5l-0.8-0.8c-1-1-1.4-1.3-2-1.6c-0.3-0.1-0.5-0.3-0.5-0.3
		c-0.1-0.1-1.6-0.6-1.9-0.6c-0.1,0-0.2-0.1-0.2-0.1C145.1,115.2,141.8,115.1,141,115.2 M165.9,115.2c-0.2,0-0.4,0.1-0.4,0.1
		c-0.1,0.1-0.2,0.1-0.3,0.1c-0.3,0-1.9,0.5-1.9,0.6c0,0-0.3,0.2-0.5,0.3c-1.5,0.7-3.8,3.4-4.3,5.1c-0.1,0.3-0.2,0.5-0.2,0.5
		c-0.4,0.3-0.6,4.8-0.3,6.1c0.2,0.8,0.8,2.3,1.1,2.8c0.1,0.2,0.3,0.4,0.3,0.5s0.1,0.2,0.3,0.3c0.1,0.1,0.3,0.3,0.3,0.4
		c0,0.2,2,2.2,2.5,2.4c0.2,0.1,0.5,0.3,0.7,0.4c0.1,0.1,0.6,0.3,1,0.4c0.4,0.1,0.8,0.3,0.9,0.3c0.9,0.4,5.4,0.4,6.1,0
		c0.1-0.1,0.5-0.2,0.9-0.3c0.4-0.1,0.8-0.3,0.9-0.4c0.1-0.1,0.3-0.2,0.5-0.3c0.9-0.4,2-1.5,2.8-2.5c0.3-0.4,0.6-0.8,0.6-0.9
		c0.2-0.2,0.6-1.2,0.6-1.3c0-0.1-0.3-0.3-0.7-0.5c-0.4-0.2-0.7-0.4-0.8-0.4c-0.3-0.4-0.9-0.4-1-0.1c-0.1,0.1-0.2,0.3-0.2,0.4
		c-0.1,0.1-0.2,0.3-0.4,0.5c-0.1,0.2-0.3,0.5-0.5,0.6c-0.1,0.1-0.3,0.4-0.5,0.5c-0.3,0.4-1.3,1.1-1.8,1.3c-0.2,0.1-0.4,0.2-0.5,0.3
		c-0.5,0.8-6.1,0.8-6.6,0c0,0-0.2-0.2-0.5-0.3c-1.9-1-3.5-3.9-3.5-6.1v-0.3h8.8h8.8l-0.1-1.1c-0.1-1.1-0.3-2.7-0.5-2.8
		c0,0-0.2-0.3-0.3-0.6c-0.2-0.6-1.1-2.2-1.2-2.2c-0.1,0-0.1-0.1-0.1-0.1c0-0.1-1.6-1.7-2.2-2.1c-0.6-0.4-1.9-1.1-2.7-1.3
		c-0.4-0.1-0.8-0.2-0.9-0.3C170.2,115.2,166.4,115.2,165.9,115.2 M48.6,118.1c0.6,0.2,1.8,0.8,2.2,1.1c0.6,0.5,1.4,1.3,1.4,1.5
		c0,0.1,0.1,0.2,0.1,0.2c0.1,0,0.3,0.3,0.4,0.6c0.1,0.3,0.3,0.7,0.4,1c0.1,0.2,0.2,0.6,0.3,0.8l0.1,0.3h-7.2c-5.7,0-7.2,0-7.1-0.1
		c0-0.1,0.1-0.4,0.2-0.7c0.1-0.3,0.2-0.6,0.3-0.6c0,0,0.2-0.3,0.3-0.6c0.3-0.7,1.1-1.7,1.5-2c0.2-0.1,0.4-0.3,0.4-0.4
		C42.8,118,46.6,117.4,48.6,118.1 M95.2,118c0.5,0.1,0.9,0.3,0.9,0.3c0,0,0.3,0.2,0.5,0.3c0.7,0.3,2.1,1.5,2.5,2
		c0.6,0.9,0.8,1.4,1,1.9c0.1,0.3,0.2,0.6,0.3,0.7c0.3,0.4,0.3,3.8,0,4.3c-0.1,0.1-0.2,0.6-0.4,1c-0.2,0.4-0.3,0.8-0.4,0.8
		c0,0-0.2,0.2-0.3,0.4c-0.3,0.5-1.7,1.9-2,1.9c-0.1,0-0.2,0.1-0.2,0.2c0,0.1-0.4,0.3-0.9,0.4c-0.5,0.2-1,0.3-1.1,0.4
		c-0.4,0.2-4.1,0.2-4.2,0c0-0.1-0.1-0.1-0.2-0.1c-0.4,0-1.4-0.4-1.9-0.7c-0.2-0.2-0.5-0.3-0.5-0.3c-0.5,0-2.3-2.6-2.6-3.8
		c-0.1-0.4-0.2-0.9-0.3-1c-0.1-0.1-0.1-0.6-0.1-1.2c0-0.6,0-1.1,0.1-1.2c0.1-0.1,0.2-0.5,0.3-1c0.2-0.7,0.8-2.1,1.2-2.5
		C89,118.2,92,117.2,95.2,118 M120.5,118.1c0.3,0.1,0.7,0.2,0.7,0.3c0,0,0.2,0.2,0.4,0.2c0.8,0.3,2.1,1.5,2.7,2.4
		c0.2,0.2,0.3,0.4,0.3,0.5c0.1,0.1,0.5,1,0.6,1.3c0,0.2,0.1,0.3,0.2,0.3c0.4,0,0.4,3.9,0,4.8c-0.1,0.1-0.2,0.5-0.3,0.8
		c-0.5,1.5-2.1,3.1-3.3,3.7c-0.2,0.1-0.4,0.2-0.5,0.3c-0.3,0.5-3.5,0.8-5,0.5c-0.8-0.2-1-0.3-2-0.8c-0.7-0.4-1.6-1.1-2.1-1.9
		c-0.2-0.2-0.3-0.4-0.4-0.5c-0.2-0.2-1-1.8-1.1-2.4c-0.1-0.4-0.2-0.9-0.3-1c-0.1-0.2-0.1-2,0-2.1c0,0,0.1-0.3,0.2-0.6
		c0.1-0.5,0.4-1.5,0.5-1.6c0,0,0.2-0.3,0.4-0.6c0.4-0.8,1.2-1.7,2.2-2.5C115,118,118.3,117.4,120.5,118.1 M144.9,117.9
		c0.6,0.1,1.3,0.3,1.4,0.4c0,0,0.3,0.2,0.7,0.4c1.2,0.6,3.1,2.7,3.1,3.4c0,0,0.1,0.3,0.2,0.5c0.6,1.2,0.6,4.5,0.1,5.4
		c-0.1,0.1-0.2,0.4-0.3,0.7c-0.4,0.9-1.5,2.3-2.5,2.9c-0.2,0.1-0.4,0.3-0.4,0.3c-0.1,0.1-0.5,0.2-0.9,0.4c-0.4,0.1-0.9,0.3-1,0.4
		c-0.4,0.2-4.1,0.2-4.2,0c0-0.1-0.1-0.1-0.2-0.1c-0.2,0-1.5-0.4-1.7-0.6c-0.1-0.1-0.3-0.2-0.5-0.4c-0.6-0.4-1.9-1.7-2.2-2.4
		c-0.2-0.3-0.3-0.6-0.4-0.7c-0.5-0.4-0.7-4-0.3-5.2C136.9,119.5,141,117.1,144.9,117.9 M170.2,118.1c2.5,0.8,4.9,3.4,4.9,5.3
		c0,0-3.2,0.1-7.2,0.1h-7.2l0.1-0.2c0-0.1,0.2-0.4,0.3-0.6c0.1-0.2,0.2-0.5,0.3-0.8c0.4-1.2,1.7-2.6,3.2-3.4c0.6-0.3,1-0.4,1.8-0.6
		C166.9,117.7,169.7,117.9,170.2,118.1"/>
	<path id="path2" class="st2" d="M14,137.3c0.2,0,0.6,0,0.9,0c0.2,0,0,0-0.4,0C13.9,137.3,13.7,137.3,14,137.3"/>
	<path id="path3" class="st3" d="M28.8,109.7c0,0.1,0,0.3,0.2,0.4l0.2,0.2l-0.2-0.2c-0.1-0.1-0.2-0.3-0.1-0.4c0-0.1,0-0.2,0-0.2
		C28.9,109.5,28.8,109.6,28.8,109.7 M34.7,112.6c0,0.3,0,0.4,0,0.2c0-0.1,0-0.3,0-0.5C34.7,112.3,34.7,112.4,34.7,112.6 M34.5,113.6
		c0,0.2-0.1,0.3-0.2,0.4c-0.1,0-0.1,0.1,0.1,0.1c0.2,0,0.2,0,0.2-0.4c0-0.2,0-0.4-0.1-0.4C34.5,113.3,34.5,113.4,34.5,113.6
		 M25.9,116.2c-0.2,0.2-0.3,0.4-0.3,0.4c0,0,0.1-0.1,0.3-0.3C26.1,116,26.1,115.9,25.9,116.2"/>
	<path id="path4" class="st4" d="M33.9,107.2c-0.3,0.1-0.5,0.2-0.5,0.2s-0.1,0-0.2,0.1c-0.1,0.1-0.2,0.2-0.3,0.2
		c-0.2,0-1,0.4-1.1,0.5c0,0.1-0.1,0.1-0.2,0c0,0-0.1,0-0.2,0.1c0,0.1-0.2,0.1-0.3,0.1c-0.1,0-0.2,0-0.2,0.1c0,0-0.2,0.2-0.5,0.3
		c-2,0.9-2,0.9-1.2,1.5l0.5,0.4l-0.2,0.3c-0.1,0.2-0.4,0.6-0.7,0.9c-0.2,0.3-0.5,0.6-0.5,0.7c0,0-0.1,0.1-0.1,0.2
		c0,0.1-0.2,0.3-0.4,0.6c-0.8,1-1.9,2.5-3,4.1c-0.2,0.3-0.4,0.6-0.5,0.7c0,0.1-0.2,0.2-0.3,0.4c-0.1,0.2-0.3,0.4-0.4,0.5
		c-0.1,0.1-0.3,0.4-0.5,0.7c-0.7,1.1-1.6,2.3-2,2.8c-0.2,0.3-0.5,0.6-0.5,0.8s-0.1,0.2-0.1,0.2s-0.2,0.2-0.3,0.4
		c-0.1,0.2-0.3,0.4-0.3,0.4c0,0-0.1,0.1-0.1,0.1c0,0.1-0.1,0.2-0.2,0.3c-0.1,0.1-0.5,0.6-0.8,1.1c-0.4,0.5-0.7,1-0.8,1.1
		c-0.1,0.1-0.5,0.7-0.9,1.3c-0.4,0.6-0.8,1.1-0.8,1.1c-0.1,0-0.1,0.1-0.1,0.2c0,0.1-0.1,0.2-0.2,0.4c-0.1,0.1-0.3,0.4-0.5,0.6
		c-0.1,0.2-0.4,0.5-0.5,0.7c-1.1,1.4-1.4,1.9-1.5,2c-0.1,0.2-0.9,1.3-1,1.4c0,0-0.1,0.1-0.2,0.2c-0.1,0.1-0.3,0.5-0.6,0.9
		c-0.6,0.8-0.6,0.9,0,1.1c1.2,0.3,1.5,0.4,2.5,0.4h1l0.4-0.4c0.2-0.2,0.4-0.5,0.4-0.5c0-0.1,0-0.1,0.1-0.1s0.2-0.2,0.3-0.4
		c0.1-0.2,0.3-0.5,0.4-0.6c0.1-0.1,0.4-0.5,0.7-1c0.3-0.5,0.8-1.1,1-1.5c0.3-0.3,0.9-1.2,1.3-1.8c0.7-1,1.1-1.6,1.5-2.1
		c0-0.1,0.3-0.4,0.5-0.8c0.3-0.4,0.6-0.8,0.7-0.9c0.1-0.1,0.2-0.2,0.2-0.3s0.1-0.2,0.2-0.3c0.3-0.3,0.7-0.9,0.7-1
		c0,0,0.1-0.1,0.2-0.2c0.1-0.2,0.4-0.6,1.5-2c0.9-1.3,1.3-1.8,1.4-1.9c0.1,0,0.1-0.1,0.1-0.1c0-0.1,0.2-0.4,0.7-1
		c0-0.1,0.2-0.3,0.4-0.6c1.2-1.7,2.1-2.9,2.2-3c0.1-0.1,0.1-0.2,0.1-0.2c0-0.1,0-0.1,0.1-0.1c0,0,0.2-0.1,0.3-0.3
		c0.1-0.2,0.3-0.4,0.4-0.6c0.1-0.1,0.4-0.6,0.7-1c0.3-0.4,0.6-0.8,0.6-0.8c0-0.1,0.2-0.2,0.3-0.4c0.2-0.4,0.3-0.4,0.9,0.1
		c1,0.8,1,0.7,1.2-3.4c0-0.7,0.1-1.4,0.1-1.5c0-0.2,0.1-0.6,0.1-1l0-0.7l-0.3,0C34.5,107,34.1,107.1,33.9,107.2 M182.3,121.7v13.7
		h2.5h2.5v-1v-1l0.6,0.5c0.3,0.3,0.7,0.6,0.9,0.7c0.7,0.4,1.4,0.7,1.5,0.7c0.1,0,0.3,0.1,0.4,0.2c0.8,0.4,4.2,0.5,5,0.1
		c0.2-0.1,0.6-0.2,0.9-0.3c1.7-0.5,4-2.6,4.9-4.4c0.2-0.3,0.3-0.6,0.4-0.7c0.1-0.1,0.2-0.5,0.4-1c0.1-0.5,0.3-1,0.3-1.1
		c0.3-0.6,0.3-5,0-5.3c-0.1-0.1-0.1-0.2-0.1-0.3c0-0.3-0.4-1.8-0.6-1.9c-0.1-0.1-0.2-0.4-0.4-0.7c-0.3-0.7-0.3-0.6-1.2-1.7
		c-0.4-0.5-0.9-0.9-1-1c-0.2-0.1-0.4-0.3-0.5-0.4c-0.5-0.4-1.3-0.9-2.1-1.1c-0.4-0.1-0.8-0.3-1-0.4c-0.3-0.2-3.9-0.2-4.2,0
		c-0.1,0.1-0.5,0.2-0.8,0.3c-0.8,0.2-1.8,0.8-2.5,1.4c-0.3,0.3-0.6,0.5-0.7,0.5c0,0-0.1-2.2-0.1-4.8V108h-2.5h-2.5V121.7
		 M213.4,115.2c-0.1,0-0.3,0.1-0.4,0.1c-0.1,0.1-0.5,0.2-0.8,0.3c-0.6,0.2-1.9,0.9-2.3,1.2c-1.9,1.6-3.2,3.5-3.5,5.3
		c-0.1,0.3-0.2,0.7-0.2,0.7c-0.3,0.4-0.3,4.6,0,5.2c0.1,0.1,0.2,0.5,0.3,0.9c0.2,0.7,0.9,2.2,1.4,2.9c0.4,0.6,1.8,2,1.9,2
		c0.1,0,0.2,0.1,0.3,0.2c0.3,0.3,1.7,1.1,2.2,1.3c0.2,0.1,0.6,0.2,0.8,0.3c0.8,0.4,4.2,0.3,5-0.1c0.2-0.1,0.4-0.2,0.4-0.2
		c0.3,0,1.5-0.7,2.4-1.4l0.4-0.4l0,0.9l0,0.9l2.5,0l2.5,0v-9.9v-9.9l-2.5,0l-2.5,0l-0.1,0.9l-0.1,0.9l-0.3-0.3
		c-0.2-0.2-0.4-0.3-0.4-0.3c-0.1,0-0.1,0-0.1-0.1c0-0.2-1.6-1-2.2-1.2c-0.3-0.1-0.7-0.2-0.8-0.3
		C217.1,115.2,213.8,115.1,213.4,115.2 M229,115.8c0,0.1,0.6,1.7,0.7,1.8c0.1,0.1,0.2,0.5,0.3,0.9c0.1,0.4,0.3,0.8,0.3,0.8
		c0,0,0.2,0.4,0.4,0.8c0.2,0.4,0.3,0.8,0.4,0.9c0,0.1,0.2,0.5,0.4,0.9s0.3,0.8,0.4,0.9c0,0.1,0.2,0.4,0.3,0.8
		c0.1,0.4,0.3,0.7,0.3,0.8c0,0.1,0.2,0.4,0.4,0.8c0.2,0.4,0.4,1,0.5,1.3c0.1,0.3,0.3,0.7,0.4,1c0.1,0.2,0.2,0.4,0.2,0.4
		c0,0,0.1,0.2,0.2,0.4c0.1,0.2,0.2,0.7,0.4,1c0.1,0.3,0.4,0.9,0.5,1.3c0.2,0.4,0.3,0.8,0.4,0.8c0,0.1,0.1,0.3,0.2,0.5
		c0.1,0.2,0.3,0.7,0.4,1.1c0.4,0.8,0.4,0.8,0,1.5c-0.2,0.3-0.4,0.9-0.6,1.4c-0.2,0.4-0.6,1.2-0.8,1.7c-0.3,0.5-0.5,1.1-0.5,1.2
		c0,0.2-0.1,0.3-0.2,0.3c0,0-0.1,0.2-0.2,0.3c-0.1,0.2-0.3,0.8-0.6,1.3c-0.2,0.5-0.5,1.1-0.5,1.2c0,0.1-0.1,0.2-0.2,0.2
		c-0.1,0-0.1,0.1-0.1,0.2c0,0.1,0.4,0.2,2.7,0.2h2.7l0.2-0.4c0.1-0.2,0.3-0.7,0.5-1.2c0.4-0.8,0.8-1.7,1.2-2.7
		c0.1-0.3,0.5-1,0.7-1.6c0.3-0.6,0.5-1.1,0.5-1.1c0,0,0.2-0.5,0.5-1c0.5-1,0.8-1.8,1.4-3c0.2-0.4,0.5-1.1,0.7-1.4
		c0.6-1.2,1.1-2.3,1.1-2.3c0,0,0.2-0.5,0.5-1c0.3-0.5,0.7-1.5,1-2.1c0.3-0.6,0.5-1.2,0.5-1.2c0,0,0.5-1.1,1.2-2.6
		c0.6-1.3,1.1-2.3,1.2-2.7c0.1-0.2,0.2-0.4,0.2-0.4c0,0,0.8-1.6,0.9-2c0,0-1.2-0.1-2.6-0.1l-2.7,0l-0.2,0.5
		c-0.2,0.5-0.7,1.4-1.3,2.8c-0.2,0.4-0.5,1.1-0.7,1.5s-0.4,0.8-0.4,0.8c0,0-0.2,0.5-0.4,1c-0.2,0.5-0.6,1.2-0.7,1.6
		c-0.2,0.4-0.5,1-0.6,1.3c-0.8,1.6-1,2.3-1.1,2.4c0,0.1-0.1,0-0.1-0.1c-0.1-0.1-0.1-0.2-0.1-0.3c0,0,0-0.1-0.1-0.1
		c-0.1,0-0.2-0.4-0.3-0.7c-0.1-0.4-0.3-0.7-0.3-0.7s-0.2-0.4-0.3-0.8c-0.3-0.9-0.9-2.2-1.1-2.6c-0.1-0.2-0.3-0.7-0.5-1.1
		c-0.7-1.8-1-2.4-1-2.5c0-0.1-0.2-0.4-0.3-0.8s-0.3-0.7-0.3-0.7s-0.2-0.3-0.3-0.7l-0.2-0.7h-2.6C230.2,115.7,229,115.7,229,115.8
		 M194.1,120.2c3.9,1.1,5,6.7,1.8,9.6c-1.2,1.1-1.8,1.3-3.5,1.3c-3.3,0-5.3-2.3-5.2-6C187.4,121.4,190.5,119.2,194.1,120.2
		 M217.8,120.2c1.2,0.3,2.6,1.5,3,2.6c0.1,0.3,0.2,0.5,0.3,0.5c0.3,0,0.4,2.8,0.2,3.8c-1,4.5-7.5,5.5-9.6,1.5
		c-0.6-1.2-1-3.9-0.6-4.5c0.1-0.1,0.2-0.4,0.3-0.8C212.3,120.7,214.9,119.5,217.8,120.2 M15.1,122.2c-0.1,0.2-0.5,0.8-0.9,1.3
		c-0.4,0.5-0.7,1-0.8,1.2c-0.1,0.1-0.2,0.3-0.2,0.3c0,0-0.4,0.6-0.9,1.2c-0.4,0.6-0.9,1.2-0.9,1.3c-0.1,0.1-0.6,0.8-1.2,1.6
		c-0.6,0.8-1.1,1.5-1.1,1.6c-1.3,1.7-2.2,3.1-2.2,3.3c0,0.3,0.8,1,1.9,1.7c0.8,0.5,0.8,0.5,1.7-0.8c0.7-1,1.1-1.6,1.8-2.4
		c0.4-0.5,0.7-0.9,0.7-0.9c0,0,0.1-0.2,0.3-0.4c0.2-0.2,0.3-0.4,0.3-0.4c0-0.1,0-0.1,0.1-0.1c0.1,0,0.1-0.1,0.2-0.2
		c0-0.1,0.2-0.4,0.4-0.5c0.2-0.2,0.3-0.4,0.3-0.4c0-0.1,0.1-0.2,0.2-0.3c0.3-0.3,1.3-1.7,2.1-2.9c0.3-0.5,0.7-0.9,0.7-1
		c0.7-0.7,0.7-1.1,0.3-1.4c-0.3-0.2-0.6-0.4-1.2-0.9C15.7,121.9,15.4,121.8,15.1,122.2 M8.2,122.9c-0.5,0.7-2,2.7-2.1,2.8
		c0,0.1-0.5,0.7-1,1.4c-0.5,0.7-1,1.4-1.1,1.4c-0.3,0.3-0.2,0.9,0.6,2.4c0.7,1.4,1.2,1.8,1.3,1.1c0-0.1,0.1-0.2,0.1-0.2
		c0,0,0.2-0.2,0.3-0.4c0.1-0.2,0.3-0.4,0.4-0.5c0.1-0.1,0.4-0.5,0.7-0.9c0.3-0.4,0.7-1,0.9-1.2c0.2-0.2,0.3-0.4,0.3-0.4
		c0,0,0-0.1,0.1-0.2c0.1-0.1,0.4-0.5,0.7-0.9c0.3-0.4,0.6-0.8,0.7-0.9c0.1-0.1,0.2-0.2,0.2-0.3c0-0.1,0.3-0.5,0.6-0.9l0.6-0.8
		l-0.3-0.3c-0.2-0.2-0.5-0.5-0.7-0.6c-0.2-0.1-0.4-0.3-0.4-0.3c0,0-0.1-0.1-0.2-0.1c-0.1,0-0.3-0.2-0.6-0.4
		C8.8,122.2,8.7,122.2,8.2,122.9"/>
</g>
</svg>
