<?xml version="1.0" encoding="utf-8"?>
<!-- Generator: Adobe Illustrator 25.4.1, SVG Export Plug-In . SVG Version: 6.00 Build 0)  -->
<svg version="1.1" id="Layer_1" xmlns="http://www.w3.org/2000/svg" xmlns:xlink="http://www.w3.org/1999/xlink" x="0px" y="0px"
	 viewBox="0 0 250 250" style="enable-background:new 0 0 250 250;" xml:space="preserve">
<style type="text/css">
	.st0{fill:url(#SVGID_1_);}
	.st1{fill:#EB4204;}
	.st2{fill:url(#SVGID_00000132769905566161352820000016132023825987486089_);}
	.st3{fill:#EB3A04;}
	.st4{fill:url(#SVGID_00000150073076660680634780000013147029226876908700_);}
	.st5{fill:url(#SVGID_00000021803626621730820930000016869539356710989720_);}
	.st6{fill:#ACACAC;}
</style>
<g>
	<g>
		<linearGradient id="SVGID_1_" gradientUnits="userSpaceOnUse" x1="19.1861" y1="150.7883" x2="27.3418" y2="138.2702">
			<stop  offset="0" style="stop-color:#EBCF04"/>
			<stop  offset="1" style="stop-color:#F43820"/>
		</linearGradient>
		<path class="st0" d="M18.5,155.5c0,0-3.6-6.1,2.3-13.8c5.9-7.8,6-8.7,6-8.7c0-2.1,4.7,5.3,1.1,11.3S20.8,151.2,18.5,155.5z"/>
		<path class="st1" d="M27.1,133.9c0.4,0.6,0.8,1.7,1.1,3.1c0.3,1.8,0.4,4.4-1.1,6.8c-1.8,3-3.6,4.7-5.2,6.3
			c-1.2,1.1-2.3,2.2-3.3,3.7c-0.2-0.6-0.4-1.5-0.4-2.4c-0.2-3.1,0.9-6.2,3.2-9.2C23.2,139.7,26.1,135.8,27.1,133.9 M26.9,132.6
			c-0.1,0-0.2,0.1-0.2,0.4c0,0-0.1,0.9-6,8.7s-2.3,13.8-2.3,13.8c2.3-4.4,5.7-5.3,9.3-11.3C31,139,27.7,132.6,26.9,132.6L26.9,132.6
			z"/>
	</g>
	<g>
		
			<linearGradient id="SVGID_00000153668134404751215210000007037000827216093851_" gradientUnits="userSpaceOnUse" x1="13.672" y1="112.8867" x2="6.844" y2="93.7303">
			<stop  offset="0" style="stop-color:#EBCF04"/>
			<stop  offset="1" style="stop-color:#F43820"/>
		</linearGradient>
		<path style="fill:url(#SVGID_00000153668134404751215210000007037000827216093851_);" d="M4.6,91.8c1.4,0.4,3.3,4,3.9,5
			c2.6,4.3,3.7,12.9,0.7,17.3c-1.1,1.7,9.6-5.2,4-16.3C11,93.5,4.6,91.8,4.6,91.8z"/>
		<path class="st1" d="M7.6,93.8c1.8,0.9,3.9,2.4,5,4.4c1.8,3.6,2.1,7.1,0.7,10.4c-0.6,1.5-1.4,2.6-2.2,3.5c0.6-1.9,0.8-4.2,0.7-6.7
			c-0.2-3.3-1.2-6.7-2.6-8.9c-0.1-0.1-0.2-0.3-0.3-0.6C8.4,95.2,8,94.5,7.6,93.8 M4.6,91.8C4.6,91.8,4.6,91.8,4.6,91.8
			C4.6,91.8,4.6,91.8,4.6,91.8L4.6,91.8z M4.6,91.8C4.6,91.8,4.6,91.8,4.6,91.8L4.6,91.8z M4.6,91.8C4.6,91.8,4.6,91.8,4.6,91.8
			C4.6,91.8,4.6,91.8,4.6,91.8L4.6,91.8z M4.6,91.8C4.6,91.8,4.6,91.8,4.6,91.8C4.6,91.8,4.6,91.8,4.6,91.8L4.6,91.8z M4.6,91.8
			C4.6,91.8,4.6,91.8,4.6,91.8C4.6,91.8,4.6,91.8,4.6,91.8L4.6,91.8z M4.6,91.8c1.4,0.4,3.3,4,3.9,5c2.6,4.3,3.7,12.9,0.7,17.3
			c-0.1,0.2-0.1,0.3,0,0.3c0.9,0,9.1-6.6,4-16.6C11.1,93.6,4.8,91.9,4.6,91.8L4.6,91.8z"/>
	</g>
	<g>
		<path class="st3" d="M18.2,158.2c0,0-12.7-2.7-16.3-10.8s-1.7-15.9,3-22.5c5.2-7.1,11.6-12,11.6-18.9c0-6.8-2.1-9.3-2.1-9.3
			S25,103,28.1,111.9s1.3,15-3,20.7c-4.4,5.7-9.5,9.7-9.3,16.1S18.2,158.2,18.2,158.2z"/>
		<g>
			
				<linearGradient id="SVGID_00000155115155483954527160000016477190141984361608_" gradientUnits="userSpaceOnUse" x1="14.6421" y1="165.5887" x2="14.6421" y2="113.9697">
				<stop  offset="0" style="stop-color:#EB9304"/>
				<stop  offset="1" style="stop-color:#F43820"/>
			</linearGradient>
			<path style="fill:url(#SVGID_00000155115155483954527160000016477190141984361608_);" d="M14.2,154.4c-2.7-1.4-4.1-2.3-5.2-3
				c-2.4-1.5-4.3-3.8-5.4-6.4c-2.6-6.1-0.5-13.5,3.2-18.6c2.8-3.8,6.5-6.8,9-10.8c2.3-3.6,3.2-8,3.2-12.2c0,0.2,3.8,3.8,4.7,5.3
				c2.1,3.5,3.4,7.6,3.2,11.7c-0.4,9.5-8.2,15.1-11.9,23.2C13.6,146.5,12.3,151.4,14.2,154.4z"/>
		</g>
		<g>
			
				<linearGradient id="SVGID_00000013178582501245326760000001852773142607822474_" gradientUnits="userSpaceOnUse" x1="4.4472" y1="129.3623" x2="25.1567" y2="129.3623">
				<stop  offset="0" style="stop-color:#EBCF04"/>
				<stop  offset="1" style="stop-color:#F43820"/>
			</linearGradient>
			<path style="fill:url(#SVGID_00000013178582501245326760000001852773142607822474_);" d="M11.6,150.8c0,0-9.7-5.5-6.4-15.9
				c1.1-3.7,2.9-7.1,5.6-9.9c4.5-4.9,9.3-10,10-17c0,0,6.3,6.2,4,13.8c-3,10.1-5.8,10.6-10,16.9C10.4,144.9,11.6,150.8,11.6,150.8z"
				/>
		</g>
	</g>
	<g>
		<path d="M49.8,139.7v-13h-2.6v-2.9h2.6v-1.7c0-2,0.5-3.4,1.5-4.2c1-0.8,2.8-1.2,5.5-1.2c0.5,0,1.1,0,1.9,0.1v3
			c-0.6-0.1-1.1-0.2-1.5-0.2c-1.9,0-2.9,0.8-2.9,2.5v1.7h4.6v2.9h-4.6v13H49.8z"/>
		<path d="M67.8,123.6c3.6,0,5.9,0.5,7,1.5c1.1,1,1.7,3.1,1.7,6.2c0,3.5-0.5,5.9-1.6,7c-1.1,1.1-3.4,1.7-6.9,1.7
			c-3.8,0-6.2-0.5-7.3-1.5c-1.1-1-1.7-3.3-1.7-6.8c0-3.3,0.5-5.5,1.6-6.5C61.8,124.1,64.1,123.6,67.8,123.6z M67.8,126.6
			c-1.8,0-3,0.3-3.5,0.9c-0.5,0.6-0.8,1.9-0.8,4c0,2.4,0.2,3.9,0.7,4.5c0.5,0.6,1.7,0.9,3.6,0.9c1.8,0,3-0.3,3.5-1
			c0.5-0.6,0.7-2.2,0.7-4.6c0-2-0.3-3.3-0.8-3.9C70.8,126.9,69.6,126.6,67.8,126.6z"/>
		<path d="M78.7,123.8h4.4l-0.3,2.2l0.1,0c1.1-1.7,2.7-2.5,5-2.5c3.3,0,4.9,1.8,4.9,5.3v1.1h-4.2c0.1-0.4,0.1-0.7,0.1-0.9
			c0-1.7-0.8-2.6-2.3-2.6c-2.2,0-3.3,1.3-3.3,3.8v9.4h-4.4V123.8z"/>
		<path d="M94.7,123.8h4.4l-0.1,2.5l0.1,0c0.9-1.8,2.8-2.7,5.7-2.7c3.3,0,5.2,1,5.6,3h0.1c0.9-2,2.8-3,5.7-3c4.3,0,6.4,1.9,6.4,5.6
			v10.6h-4.4V130c0-2.3-1.1-3.4-3.2-3.4c-2.7,0-4,1.3-4,3.8v9.3h-4.4v-9.9c0-1.3-0.2-2.2-0.6-2.6c-0.4-0.4-1.3-0.6-2.6-0.6
			c-2.7,0-4.1,1.3-4.1,3.9v9.2h-4.4V123.8z"/>
		<path d="M141,128.2h-4.3c0-0.1,0-0.2-0.1-0.3c-0.1-0.8-0.3-1.2-0.8-1.4c-0.4-0.2-1.4-0.3-3-0.3c-2.3,0-3.5,0.6-3.5,1.9
			c0,0.9,0.2,1.4,0.6,1.6c0.4,0.2,1.8,0.3,4.1,0.4c3.2,0.1,5.2,0.5,6.2,1.1c1,0.6,1.4,1.8,1.4,3.6c0,1.9-0.6,3.3-1.9,4
			c-1.3,0.8-3.6,1.1-6.8,1.1c-3.2,0-5.3-0.3-6.5-1c-1.2-0.7-1.7-1.9-1.7-3.8v-0.4h4.6c-0.1,0.2-0.1,0.4-0.1,0.5
			c-0.2,1.4,1.1,2.1,3.8,2.1c2.8,0,4.2-0.7,4.2-2.1c0-1.3-0.9-2-2.6-2c-4,0-6.6-0.3-7.8-1c-1.3-0.6-1.9-2-1.9-4
			c0-1.8,0.6-3.1,1.7-3.7c1.1-0.6,3.4-1,6.6-1c3.1,0,5.2,0.3,6.2,0.9C140.4,125.1,141,126.4,141,128.2z"/>
		<path d="M160,123.6c3.6,0,5.9,0.5,7,1.5c1.1,1,1.7,3.1,1.7,6.2c0,3.5-0.5,5.9-1.6,7c-1.1,1.1-3.4,1.7-6.9,1.7
			c-3.8,0-6.2-0.5-7.3-1.5c-1.1-1-1.7-3.3-1.7-6.8c0-3.3,0.5-5.5,1.6-6.5C153.9,124.1,156.3,123.6,160,123.6z M159.9,126.6
			c-1.8,0-3,0.3-3.5,0.9c-0.5,0.6-0.8,1.9-0.8,4c0,2.4,0.2,3.9,0.7,4.5c0.5,0.6,1.7,0.9,3.6,0.9c1.8,0,3-0.3,3.5-1
			c0.5-0.6,0.7-2.2,0.7-4.6c0-2-0.3-3.3-0.8-3.9C162.9,126.9,161.8,126.6,159.9,126.6z"/>
		<path d="M170.8,123.8h4.4l-0.2,2.7l0.1,0c0.9-1.9,2.8-2.9,5.8-2.9c4.4,0,6.6,1.8,6.6,5.3v10.9H183v-9.6v-0.6l-0.1-1.1
			c-0.2-1.2-1.3-1.8-3.3-1.8c-3,0-4.5,1.2-4.5,3.7v9.5h-4.4V123.8z"/>
		<path class="st3" d="M199.4,139.7v-13h-2.6v-2.9h2.6v-1.7c0-2,0.5-3.4,1.5-4.2c1-0.8,2.8-1.2,5.5-1.2c0.5,0,1.1,0,1.9,0.1v3
			c-0.6-0.1-1.1-0.2-1.5-0.2c-1.9,0-2.9,0.8-2.9,2.5v1.7h4.6v2.9h-4.6v13H199.4z"/>
		<path class="st3" d="M214.8,117v3.2h-4.4V117H214.8z M214.8,123.8v15.9h-4.4v-15.9H214.8z"/>
		<path class="st3" d="M217.6,123.8h4.4l-0.3,2.2l0.1,0c1.1-1.7,2.7-2.5,5-2.5c3.3,0,4.9,1.8,4.9,5.3v1.1h-4.2
			c0.1-0.4,0.1-0.7,0.1-0.9c0-1.7-0.8-2.6-2.3-2.6c-2.2,0-3.3,1.3-3.3,3.8v9.4h-4.4V123.8z"/>
		<path class="st3" d="M245.5,134.6h4.5v0.6c0,3.1-2.7,4.7-8.1,4.7c-3.7,0-6.1-0.5-7.2-1.6c-1.1-1.1-1.7-3.4-1.7-6.9
			c0-3.1,0.6-5.2,1.8-6.3c1.2-1.1,3.5-1.6,6.9-1.6c3.3,0,5.5,0.5,6.6,1.6c1.1,1,1.7,3.1,1.7,6.1v1.2h-12.5c0,0.4,0,0.6,0,0.7
			c0,1.6,0.3,2.6,0.8,3.1c0.6,0.5,1.7,0.8,3.4,0.8c1.6,0,2.7-0.2,3.2-0.5C245.3,136.3,245.5,135.6,245.5,134.6z M245.6,130.1l0-0.6
			c0-1.3-0.3-2.1-0.8-2.5c-0.5-0.4-1.6-0.6-3.3-0.6c-1.7,0-2.7,0.2-3.2,0.7c-0.5,0.5-0.7,1.5-0.7,3H245.6z"/>
	</g>
	<g>
		<rect x="39" y="107.9" class="st6" width="1" height="42.9"/>
	</g>
</g>
</svg>
