<?xml version="1.0" encoding="utf-8"?>
<!-- Generator: Adobe Illustrator 25.2.0, SVG Export Plug-In . SVG Version: 6.00 Build 0)  -->
<svg version="1.1" id="Layer_1" xmlns="http://www.w3.org/2000/svg" xmlns:xlink="http://www.w3.org/1999/xlink" x="0px" y="0px"
	 viewBox="0 0 250 250" style="enable-background:new 0 0 250 250;" xml:space="preserve">
<style type="text/css">
	.st0{fill-rule:evenodd;clip-rule:evenodd;fill:#4C4C4C;}
	.st1{fill-rule:evenodd;clip-rule:evenodd;fill:#15C39A;}
	.st2{fill-rule:evenodd;clip-rule:evenodd;fill:#FFFFFF;}
</style>
<g>
	<path class="st0" d="M76.1,138.9c-0.9-0.4-1.5-1.1-1.5-2.1c0-1.2,1-2.2,2.2-2.2c0.4,0,0.6,0.1,0.9,0.2c1.6,0.8,3.4,1.1,5.2,1.1
		c3.7,0,5.4-1.8,5.4-5.2v-0.9c-1.6,1.9-3.3,3.1-6.2,3.1c-4.4,0-8.4-3.2-8.4-8.8V124c0-5.6,4.1-8.8,8.4-8.8c2.9,0,4.7,1.2,6.1,2.8v0
		c0-1.4,1.2-2.6,2.7-2.6c1.5,0,2.7,1.2,2.7,2.7v12.2c0,3.4-0.8,5.9-2.4,7.4c-1.8,1.8-4.5,2.5-8.2,2.5
		C80.6,140.2,78.3,139.8,76.1,138.9z M88.3,124.1L88.3,124.1c0-2.6-2-4.4-4.6-4.4c-2.6,0-4.6,1.8-4.6,4.4v0.1c0,2.6,2,4.4,4.6,4.4
		C86.3,128.5,88.3,126.7,88.3,124.1z M96.6,118c0-1.5,1.2-2.7,2.7-2.7c1.5,0,2.7,1.2,2.7,2.7v0.8c0.8-1.8,2.1-3.5,3.6-3.5
		c1.7,0,2.6,1.1,2.6,2.6c0,1.4-0.9,2.3-2,2.5c-2.7,0.6-4.2,2.7-4.2,6.5v5c0,1.5-1.2,2.7-2.7,2.7c-1.5,0-2.7-1.2-2.7-2.7c0,0,0,0,0,0
		C96.6,132,96.6,118,96.6,118z M107.7,129L107.7,129c0-4.2,3.1-6.1,7.6-6.1c1.9,0,3.3,0.3,4.6,0.8v-0.3c0-2.2-1.4-3.5-4.1-3.5
		c-1.3,0-2.5,0.2-3.7,0.5c-0.2,0.1-0.5,0.1-0.8,0.1c-1.2,0-2.2-0.9-2.2-2.1c0,0,0,0,0,0c0-1,0.6-1.8,1.5-2.1c1.7-0.6,3.5-1,6.1-1
		c2.9,0,5.1,0.8,6.4,2.1c1.4,1.4,2.1,3.5,2.1,6v8.6c0,1.4-1.2,2.6-2.6,2.6c-1.6,0-2.6-1.1-2.6-2.2v0c-1.3,1.4-3.1,2.4-5.7,2.4
		C110.6,134.8,107.7,132.8,107.7,129z M120,127.8v-1c-1.1-0.5-2.3-0.7-3.4-0.7c-2.3,0-3.7,0.9-3.7,2.6v0.1c0,1.4,1.2,2.3,2.9,2.3
		C118.3,131.1,120,129.7,120,127.8z M128,118c0-1.5,1.2-2.7,2.7-2.7c1.5,0,2.7,1.2,2.7,2.7v0.2c1.2-1.6,2.9-3,5.6-3
		c2.5,0,4.4,1.1,5.3,3c1.7-1.9,3.6-3,6.2-3c4,0,6.4,2.4,6.4,6.9v9.8c0,1.5-1.2,2.7-2.7,2.7c-1.5,0-2.7-1.2-2.7-2.7c0,0,0,0,0,0v-8.1
		c0-2.5-1.1-3.8-3.1-3.8c-2,0-3.3,1.3-3.3,3.8v8.1c0,1.5-1.2,2.7-2.7,2.7c-1.5,0-2.7-1.2-2.7-2.7v-8.1c0-2.5-1.1-3.8-3.1-3.8
		c-2,0-3.3,1.3-3.3,3.8v8.1c0,1.5-1.2,2.7-2.7,2.7c-1.5,0-2.7-1.2-2.7-2.7c0,0,0,0,0,0C128,132,128,118,128,118z M159.8,118
		c0-1.5,1.2-2.7,2.7-2.7c1.5,0,2.7,1.2,2.7,2.7v0.2c1.2-1.6,2.9-3,5.6-3c2.5,0,4.4,1.1,5.3,3c1.7-1.9,3.6-3,6.2-3
		c4,0,6.4,2.4,6.4,6.9v9.8c0,1.5-1.2,2.7-2.7,2.7c-1.5,0-2.7-1.2-2.7-2.7v-8.1c0-2.5-1.1-3.8-3.1-3.8c-2,0-3.3,1.3-3.3,3.8v8.1
		c0,1.5-1.2,2.7-2.7,2.7c-1.5,0-2.7-1.2-2.7-2.7c0,0,0,0,0,0v-8.1c0-2.5-1.1-3.8-3.2-3.8c-2,0-3.3,1.3-3.3,3.8v8.1
		c0,1.5-1.2,2.7-2.7,2.7c-1.5,0-2.7-1.2-2.7-2.7c0,0,0,0,0,0V118z M190.5,129L190.5,129c0-4.2,3.2-6.1,7.6-6.1
		c1.6,0,3.1,0.2,4.6,0.8v-0.3c0-2.2-1.4-3.5-4.1-3.5c-1.5,0-2.7,0.2-3.7,0.5c-0.2,0.1-0.5,0.1-0.8,0.1c-1.2,0-2.2-0.9-2.2-2.1
		c0,0,0,0,0,0c0-1,0.6-1.8,1.5-2.1c1.7-0.6,3.5-1,6.1-1c2.9,0,5.1,0.8,6.4,2.1c1.4,1.4,2.1,3.5,2.1,6v8.6c0,1.4-1.2,2.6-2.6,2.6
		c0,0,0,0,0,0c-1.6,0-2.6-1.1-2.6-2.2v0c-1.3,1.4-3.1,2.4-5.7,2.4C193.5,134.8,190.5,132.8,190.5,129z M202.9,127.8v-1
		c-1.1-0.5-2.3-0.7-3.4-0.7c-2.3,0-3.7,0.9-3.7,2.6v0.1c0,1.4,1.2,2.3,2.9,2.3C201.2,131.1,202.9,129.7,202.9,127.8z M210.9,118
		c0-1.5,1.2-2.7,2.7-2.7c1.5,0,2.7,1.2,2.7,2.7v0.8c0.8-1.8,2.1-3.5,3.6-3.5c1.7,0,2.6,1.1,2.6,2.6c0,1.4-0.9,2.3-2,2.5
		c-2.7,0.6-4.2,2.7-4.2,6.5v5c0,1.5-1.2,2.7-2.7,2.7c-1.5,0-2.7-1.2-2.7-2.7C210.9,132,210.9,118,210.9,118z M224.1,111.2
		c0-1.5,1.2-2.7,2.7-2.7c1.5,0,2.7,1.2,2.7,2.7V132c0,1.5-1.2,2.7-2.7,2.7c-1.5,0-2.7-1.2-2.7-2.7V111.2L224.1,111.2z M233.8,139.7
		c-0.8-0.3-1.7-0.9-1.7-2.2c0-1.2,0.9-2.2,2.1-2.2c0,0,0,0,0,0c0.4,0,0.7,0.1,0.9,0.1c0.5,0.1,0.7,0.2,1.1,0.2c1,0,1.4-0.2,1.9-1.1
		l0.2-0.4l-6.5-15c-0.2-0.4-0.3-0.8-0.3-1.2c0-1.5,1.2-2.6,2.7-2.6c1.3,0,2.1,0.7,2.6,2l4.1,11l4-11c0.4-1.1,1.2-2,2.6-2
		c1.4,0,2.5,1.1,2.5,2.5c0,0.4-0.1,1-0.2,1.3l-6.6,15.8c-1.6,3.8-3.2,5.3-6.4,5.3C235.5,140.2,234.7,140,233.8,139.7z"/>
	<path class="st1" d="M58.8,125c0,16.2-13.2,29.3-29.4,29.3S0,141.2,0,125s13.2-29.3,29.4-29.3S58.8,108.8,58.8,125z"/>
	<path class="st2" d="M33.2,131.3c0.2,1,1.1,1.6,2.1,1.6h3.1l1.8-0.2c-2.9,4.2-7.8,6.1-13.2,5.2c-4.4-0.7-8.2-3.7-9.8-7.8
		c-3.6-9.4,3.3-18.4,12.3-18.4c4.7,0,8.8,2.7,11.2,6c0.6,0.9,1.9,1.2,2.8,0.6c0.9-0.6,1.1-1.7,0.6-2.6c-3.4-5.3-9.4-8.3-15.7-7.9
		c-8.6,0.6-15.5,7.6-16,16.2c-0.6,10,7.4,18.1,17.2,18.1c5,0,9.7-2.1,13-5.9l-0.4,2.1v1.9c0,1,0.7,1.9,1.6,2
		c1.1,0.2,2.1-0.5,2.3-1.6c0-0.1,0-0.2,0-0.4V129H35.2c-1.1,0-2,0.9-2,2C33.2,131.1,33.2,131.2,33.2,131.3z"/>
</g>
</svg>
