<?xml version="1.0" encoding="UTF-8" standalone="no"?>
<svg
   xmlns:dc="http://purl.org/dc/elements/1.1/"
   xmlns:cc="http://creativecommons.org/ns#"
   xmlns:rdf="http://www.w3.org/1999/02/22-rdf-syntax-ns#"
   xmlns:svg="http://www.w3.org/2000/svg"
   xmlns="http://www.w3.org/2000/svg"
   xmlns:sodipodi="http://sodipodi.sourceforge.net/DTD/sodipodi-0.dtd"
   xmlns:inkscape="http://www.inkscape.org/namespaces/inkscape"
   version="1.1"
   id="Layer_1"
   x="0px"
   y="0px"
   viewBox="0 0 250.04251 47.400002"
   xml:space="preserve"
   sodipodi:docname="justuno2.svg"
   width="250.04251"
   height="47.400002"
   inkscape:version="1.0.2-2 (e86c870879, 2021-01-15)"><metadata
   id="metadata347"><rdf:RDF><cc:Work
       rdf:about=""><dc:format>image/svg+xml</dc:format><dc:type
         rdf:resource="http://purl.org/dc/dcmitype/StillImage" /><dc:title></dc:title></cc:Work></rdf:RDF></metadata><defs
   id="defs345" /><sodipodi:namedview
   pagecolor="#ffffff"
   bordercolor="#666666"
   borderopacity="1"
   objecttolerance="10"
   gridtolerance="10"
   guidetolerance="10"
   inkscape:pageopacity="0"
   inkscape:pageshadow="2"
   inkscape:window-width="1680"
   inkscape:window-height="987"
   id="namedview343"
   showgrid="false"
   fit-margin-top="0"
   fit-margin-left="0"
   fit-margin-right="0"
   fit-margin-bottom="0"
   inkscape:zoom="3.02"
   inkscape:cx="125.0394"
   inkscape:cy="23.7"
   inkscape:window-x="1672"
   inkscape:window-y="82"
   inkscape:window-maximized="1"
   inkscape:current-layer="Layer_1" />
<style
   type="text/css"
   id="style324">
	.st0{fill-rule:evenodd;clip-rule:evenodd;fill:#4ECD5F;}
	.st1{fill-rule:evenodd;clip-rule:evenodd;fill:#4D4647;}
</style>
<g
   id="g340"
   transform="translate(0.03940184,-101.3)">
	<path
   class="st0"
   d="m 249.5,125.9 c -0.6,-2.2 -1.6,-4.3 -3.1,-6.1 -1.5,-1.8 -3.2,-3.3 -5.3,-4.4 -2.1,-1.2 -4.4,-2 -6.8,-2.4 -2.4,-0.4 -4.8,-0.5 -7.1,-0.1 -2.3,0.3 -4.5,1.1 -6.4,2.3 -2,1.2 -3.6,2.8 -5,4.7 -1.4,2 -2.3,4.3 -2.8,7.1 -0.5,2.8 -0.4,5.3 0.2,7.7 0.6,2.3 1.6,4.4 3,6.2 1.4,1.8 3.2,3.3 5.2,4.4 4.2,2.3 9.1,3.2 13.9,2.5 2.3,-0.4 4.5,-1.2 6.5,-2.4 2,-1.2 3.7,-2.9 5,-4.8 1.4,-2 2.3,-4.4 2.8,-7.2 0.6,-2.6 0.5,-5.1 -0.1,-7.5 z m -10.4,4.3 c 0.5,0.1 0.7,0.6 0.6,1.1 0,0 0,0.1 0,0.1 -1.3,3.4 -5.4,6 -9.7,4.7 -4.7,-1.4 -7,-5 -6.3,-9.5 0.1,-0.5 0.5,-0.8 1,-0.7 0,0 0.1,0 0.1,0 z"
   id="path326" />
	<path
   class="st0"
   d="m 186.8,113.1 c 1,0 1.7,0.8 1.7,1.7 0,0 0,0 0,0 v 2 h 0.1 c 0.9,-1.3 2.2,-2.4 3.9,-3.3 1.7,-0.9 3.7,-1.4 5.9,-1.4 2.4,0 4.4,0.4 5.9,1.3 1.5,0.8 2.8,2 3.8,3.4 0.9,1.4 1.6,3 1.9,4.6 0.4,1.7 0.5,3.4 0.6,5.1 v 19.1 c 0,1 -0.8,1.7 -1.7,1.7 h -11.6 c -1,0 -1.7,-0.8 -1.7,-1.7 v 0 -16.5 c 0,-1.7 -0.3,-3 -0.8,-3.7 -0.5,-0.7 -1.4,-1 -2.4,-1 -1,0 -1.9,0.4 -2.4,1.2 -0.6,0.8 -0.9,2 -0.9,3.5 v 16.5 c 0,1 -0.8,1.7 -1.7,1.7 v 0 h -11.5 c -1,0 -1.7,-0.8 -1.7,-1.7 v -30.8 c 0,-1 0.8,-1.7 1.7,-1.7 z"
   id="path328" />
	<path
   class="st1"
   d="m 16.6,148.7 c -2,0 -4,-0.3 -5.9,-0.9 -1.8,-0.6 -3.5,-1.4 -5,-2.5 -1.5,-1 -2.8,-2.3 -3.9,-3.7 -0.7,-0.9 -1.3,-1.9 -1.7,-2.9 -0.4,-0.9 0.1,-1.9 1,-2.3 0,0 0,0 0,0 l 10.1,-3.9 c 0.8,-0.3 1.7,0 2.1,0.7 0.1,0.2 0.3,0.4 0.4,0.6 0.5,0.5 1.1,0.8 1.8,0.8 1,0 1.7,-0.3 2,-1 0.3,-0.7 0.5,-1.5 0.5,-2.6 v -28 c 0,-1 0.8,-1.7 1.7,-1.7 h 12 c 1,0 1.7,0.8 1.7,1.7 0,0 0,0 0,0 v 27.3 c 0,2.1 -0.2,4.3 -0.7,6.4 -0.4,2.1 -1.3,4.1 -2.6,5.9 -1.3,1.8 -3,3.2 -5.2,4.4 -1.9,1.2 -4.8,1.7 -8.3,1.7 z"
   id="path330" />
	<path
   class="st1"
   d="m 60.2,147.4 c -1,0 -1.7,-0.8 -1.7,-1.7 v -2 h -0.1 c -0.9,1.3 -2.1,2.4 -3.9,3.3 -1.7,0.9 -3.7,1.4 -5.9,1.4 -2.4,0 -4.4,-0.4 -6,-1.3 -1.5,-0.8 -2.8,-1.9 -3.7,-3.3 -0.9,-1.4 -1.6,-3 -1.9,-4.6 -0.4,-1.7 -0.5,-3.4 -0.6,-5.1 V 115 c 0,-1 0.8,-1.7 1.7,-1.7 0,0 0,0 0,0 h 11.6 c 1,0 1.7,0.8 1.7,1.7 0,0 0,0 0,0 v 16.4 c 0,1.7 0.3,3 0.8,3.7 0.5,0.7 1.4,1 2.4,1 1,0 1.9,-0.4 2.4,-1.2 0.6,-0.8 0.9,-2 0.9,-3.5 V 115 c 0,-1 0.8,-1.7 1.7,-1.7 0,0 0,0 0,0 h 11.5 c 1,0 1.7,0.8 1.7,1.7 v 0 30.8 c 0,1 -0.8,1.7 -1.7,1.7 v 0 z"
   id="path332" />
	<path
   class="st1"
   d="m 104.8,136.5 c 0,2.3 -0.5,4.2 -1.5,5.8 -0.9,1.5 -2.2,2.8 -3.7,3.7 -1.5,0.9 -3.2,1.6 -4.9,2 -1.7,0.4 -3.4,0.6 -5.1,0.6 -2.9,0 -5.9,-0.4 -8.7,-1.3 -2,-0.6 -3.9,-1.4 -5.7,-2.5 -0.8,-0.5 -1.1,-1.6 -0.6,-2.4 0,-0.1 0.1,-0.2 0.2,-0.2 l 5,-5.8 c 0.6,-0.7 1.6,-0.8 2.3,-0.3 0.8,0.5 1.6,1 2.4,1.3 1.3,0.6 2.7,0.9 4.1,0.9 0.5,0 1,-0.1 1.5,-0.3 0.4,-0.2 0.7,-0.6 0.7,-1.1 0,-0.6 -0.4,-1 -1.2,-1.3 -0.8,-0.3 -2.2,-0.7 -4.2,-1.2 -1.1,-0.3 -2.2,-0.7 -3.3,-1.1 -1.1,-0.5 -2.2,-1.2 -3.1,-2 -1,-0.9 -1.7,-1.9 -2.3,-3 -0.6,-1.2 -0.9,-2.6 -0.9,-4.3 0,-2.2 0.5,-4.1 1.5,-5.7 0.9,-1.5 2.2,-2.8 3.7,-3.8 1.5,-1 3.1,-1.7 4.9,-2.2 1.6,-0.4 3.3,-0.7 5,-0.7 2.7,0 5.3,0.4 7.8,1.2 1.9,0.6 3.2,1.3 4.6,2.3 0.8,0.5 1,1.6 0.5,2.4 0,0 0,0 0,0.1 l -4.1,5.6 c -0.5,0.7 -1.5,0.9 -2.2,0.5 -0.6,-0.3 -1.3,-0.6 -2,-0.9 -1.1,-0.4 -2.2,-0.6 -3.3,-0.6 -0.6,0 -1.2,0.1 -1.8,0.3 -0.5,0.2 -0.7,0.6 -0.7,1.1 0,0.4 0.3,0.8 0.8,1 0.5,0.2 1.8,0.6 3.7,0.9 1.3,0.3 2.7,0.7 3.9,1.2 1.2,0.5 2.4,1.2 3.4,2.1 1,0.9 1.8,1.9 2.4,3.1 0.6,1.5 0.9,3 0.9,4.6 z"
   id="path334" />
	<path
   class="st1"
   d="m 123.7,148.3 c -4.6,0 -8,-1 -10.2,-3 -2.2,-2 -3.3,-5.1 -3.3,-9.2 v -10.5 c 0,-1 -0.8,-1.7 -1.7,-1.7 h -1.3 c -1,0 -1.7,-0.8 -1.7,-1.7 v -7.3 c 0,-1 0.8,-1.7 1.7,-1.7 h 1.2 c 1,0 1.7,-0.8 1.7,-1.7 v -4.2 c 0,-1 0.8,-1.7 1.7,-1.7 0,0 0,0 0,0 h 11 c 1,0 1.7,0.8 1.7,1.7 v 4.2 c 0,1 0.8,1.7 1.7,1.7 0,0 0,0 0,0 h 3.9 c 1,0 1.7,0.8 1.7,1.7 v 7.3 c 0,1 -0.8,1.7 -1.7,1.7 0,0 0,0 0,0 h -3.9 c -1,0 -1.7,0.8 -1.7,1.7 v 7.4 c 0,1.7 0.4,2.8 1.1,3.4 0.7,0.6 1.7,0.9 3,0.9 0.6,0 1.1,0 1.7,0 v 0 c 1,-0.2 1.8,0.5 2,1.5 0.4,1.9 1,3.7 1.8,5.4 0.4,0.9 0.3,2 -0.6,2.5 -3.8,2 -8.4,1.6 -9.8,1.6 z"
   id="path336" />
	<path
   class="st0"
   d="m 158.2,147.4 c -1,0 -1.7,-0.8 -1.7,-1.7 v -2 h -0.1 c -0.9,1.3 -2.2,2.4 -3.9,3.3 -1.7,0.9 -3.7,1.4 -5.9,1.4 -2.4,0 -4.4,-0.4 -6,-1.3 -1.5,-0.8 -2.8,-1.9 -3.7,-3.3 -0.9,-1.4 -1.6,-3 -1.9,-4.6 -0.4,-1.7 -0.5,-3.4 -0.6,-5.1 V 115 c 0,-1 0.8,-1.7 1.7,-1.7 v 0 h 11.6 c 1,0 1.7,0.8 1.7,1.7 0,0 0,0 0,0 v 16.4 c 0,1.7 0.3,3 0.8,3.6 0.5,0.7 1.4,1 2.4,1 1,0 1.9,-0.4 2.4,-1.2 0.6,-0.8 0.9,-2 0.9,-3.5 v -16.4 c 0,-1 0.8,-1.7 1.7,-1.7 0,0 0,0 0,0 h 11.5 c 1,0 1.7,0.8 1.7,1.7 0,0 0,0 0,0 v 30.8 c 0,1 -0.8,1.7 -1.7,1.7 z"
   id="path338" />
</g>
</svg>
