<?xml version="1.0" encoding="utf-8"?>
<!-- Generator: Adobe Illustrator 25.2.0, SVG Export Plug-In . SVG Version: 6.00 Build 0)  -->
<svg version="1.1" id="Layer_1" xmlns="http://www.w3.org/2000/svg" xmlns:xlink="http://www.w3.org/1999/xlink" x="0px" y="0px"
	 viewBox="0 0 250 250" style="enable-background:new 0 0 250 250;" xml:space="preserve">
<style type="text/css">
	.st0{fill:#FFFFFF;}
	.st1{fill:#E06154;}
	.st2{fill:#384257;}
	.st3{fill:#969696;}
</style>
<g>
	<path class="st0" d="M58.6,130.4V101c0-3.9-3.2-7.1-7.1-7.1H21.3c-3.9,0-7.1,3.2-7.1,7.1v29.5c0,3.9,3.2,7.1,7.1,7.1h7.4l-6,1.9
		l4.8,15.3l22.7-7.2L47,137.5h4.5C55.4,137.5,58.6,134.3,58.6,130.4"/>
	<path class="st1" d="M36.2,121.6c-10.4,0-18.9,2.8-23.3,6.8c0,5.2,4.2,9.4,9.3,9.4c0.1,0,0.1,0,0.2,0H50c5.5,0,9.6-4.1,9.6-9.2
		C55.2,124.7,46.6,121.7,36.2,121.6"/>
	<path class="st2" d="M81.4,115.4c0.4,1.6,0.7,3.3,0.8,4.9c0,2.1-0.2,17.6-0.2,17.6l5.4,0.1l-0.1-17.9c0,0,2.1-2,4.6-1.8
		c1.9,0,3.4,1.4,3.4,3.3c0,0,0,0,0,0c0,1.4-0.1,16.4-0.1,16.4l5.4-0.1l0.1-17.9c1.2-1.1,2.7-1.7,4.3-1.8c2.5,0,3.4,2.2,3.5,3.5
		c0.1,1.3-0.1,16.3-0.1,16.3l5.5-0.2l-0.1-17.3c0,0-0.9-6.2-7.8-6.2c-2.5,0-5,0.9-6.9,2.5c-0.9-0.9-2.7-2.7-5.9-2.4
		s-4.3,0.6-7.2,2.4c-0.1-0.7-0.4-1.4-0.8-2L81.4,115.4z"/>
	<path class="st2" d="M138.7,124.6c-0.8-9.7-8.1-10.2-8.1-10.2h-3.2c-8.4,0.6-9.5,8.9-9.6,10.6c0,0.2,0.1,3.1,0.1,3.1
		c0.1,9,8.3,10.2,8.3,10.2h3.1c9.1-0.9,9.5-10.4,9.5-10.4S138.7,126.9,138.7,124.6 M128.3,134.4c-4.4,0-5.3-3.9-5.2-7.8
		c0.1-3.8,0.3-8,5.1-8.2c0,0,5.4-0.8,5.3,7.7C133.6,130.3,132.7,134.3,128.3,134.4"/>
	<path class="st2" d="M178.5,119.9c0,0-3.2-1.3-5.7-1.2c-2.5,0.2-3.7,0.4-3.8,2.3s1.9,2.4,5,3.6c3.1,1.2,5.8,3.2,5.7,6.7
		s-3.2,7.3-9.4,7c-5.3-0.1-6.9-1.9-6.9-1.9l1.3-3.6c0,0,3.2,1.4,5.8,1.3s4-0.4,4-2.5c0-2.2-2.6-2.9-5-4c-2.5-1.1-5.8-2.7-5.7-6.5
		c0.1-3.8,3.3-6.7,8.7-6.6c5.4,0.1,7.1,1.5,7.1,1.5L178.5,119.9z"/>
	<path class="st2" d="M198.9,132.6c0,0-1.3,1.5-5.9,1.5c-5.8,0.1-6.1-4.5-6.1-4.9c4.8,0.1,14.2-1.9,13.9-8.1
		c-0.3-6.2-6.9-6.5-6.9-6.5l-2.1,0c-9.3,1.1-9.9,11.3-9.9,11.3c-0.3,9.7,6.1,12.7,10.9,12.7c2.9,0,5.8-1,8.2-2.7L198.9,132.6z
		 M192.8,118.4c0,0,3.4,0.1,3.4,3s-5.4,4.5-9.5,4.1C186.7,125.5,186.7,118.7,192.8,118.4"/>
	<path class="st2" d="M204.3,115.6c0.4,1.5,0.6,3.1,0.8,4.7c0.1,1.6-0.1,18.2-0.1,18.2h5.4l-0.1-18c1.2-0.9,2.7-1.5,4.2-1.6
		c2.3,0,4.2,1,4.2,3.5v16.1h5.6l-0.2-17c0,0-0.4-7-8.2-7c0,0-3.1-0.5-6.8,2.4c-0.5-1.3-0.8-2.2-0.8-2.2L204.3,115.6z"/>
	<path class="st2" d="M249.9,134.4c-0.8,0.2-1.6-0.3-1.8-1.2c0-0.1,0-0.2,0-0.3c-0.2-1.8,0-27.9,0-27.9l-5.1,0.6l-0.1,9.2
		c0,0-2.6-0.4-3.8-0.4s-10.5,0.1-10.9,12s8.1,11.9,9,11.9s4.5-0.2,6.4-3.1c0.2,0.8,0.7,2.8,4.1,2.7c0.8,0,1.6-0.2,2.3-0.4
		L249.9,134.4z M242.9,129.8c0,0-0.5,4.6-4.9,4.6c-4.5,0-4.4-5.7-4.4-7.7c0-2,0-8.4,6-8.4c1.1,0,2.2,0.1,3.3,0.4L242.9,129.8z"/>
	<path class="st2" d="M162,124.6c-0.8-9.7-8.1-10.2-8.1-10.2h-3.2c-8.4,0.7-9.5,8.9-9.6,10.6c0,0.2,0.1,3.1,0.1,3.1
		c0.1,9,8.3,10.2,8.3,10.2h3.1c9.1-0.9,9.5-10.4,9.5-10.4S162.1,126.9,162,124.6 M151.6,134.5c-4.4,0-5.3-3.9-5.2-7.8
		c0.1-3.8,0.3-8,5.1-8.2c0,0,5.4-0.8,5.3,7.7C156.9,130.4,156,134.3,151.6,134.5"/>
	<path class="st2" d="M34.3,111.7c0.3-1.2-0.1-2.3-0.8-2.4c-0.7-0.2-1.5,0.6-1.8,1.8c-0.3,1.1,0.1,2.3,0.8,2.4
		C33.2,113.6,34,112.8,34.3,111.7 M38.4,111.7c0.3,1.1,1.2,1.9,1.9,1.7c0.7-0.2,1-1.3,0.7-2.5c-0.3-1.2-1.2-1.9-1.9-1.7
		C38.4,109.4,38.1,110.6,38.4,111.7 M28.8,130.2c-1-1.7-2.6-2.5-3.6-1.9c-1,0.6-1.1,2.4-0.1,4.1c1,1.7,2.6,2.5,3.6,1.9
		C29.7,133.7,29.7,131.9,28.8,130.2 M48.5,132.5c1-1.7,0.9-3.5-0.1-4.1c-1-0.6-2.7,0.3-3.6,1.9c-1,1.7-0.9,3.5,0.1,4.1
		S47.5,134.1,48.5,132.5 M57.9,130.2c0,4.1-3.3,7.4-7.4,7.4H21.9c-4.1,0-7.4-3.3-7.4-7.4c0,0,0,0,0,0v-3c4.7-3.3,12.5-5.5,21.7-5.5
		s17,2.4,21.8,5.7L57.9,130.2z M57.9,125c-4.8-3.4-12.6-5.4-21.8-5.4c-9,0-16.9,2.1-21.7,5.4v-23.5c0-4.1,3.3-7.4,7.4-7.4
		c0,0,0,0,0,0h28.6c4.1,0,7.4,3.3,7.4,7.4L57.9,125z M24.3,141l7,3.5l-3.6,7.1L24.3,141z M29.3,153l3.9-7.5l4.4,2.2l2.5-4.5l7.8,3.9
		L29.3,153z M39.7,139.7l-3,5.4l-10.7-5.4H39.7z M48.5,145.2l-7.5-3.8l1-1.8h4.7L48.5,145.2z M72.1,103.5l-16.7-9.7
		c-1.5-1.1-3.3-1.7-5.2-1.7c-2.9-6.9-5.3-2-6.1,0H28.3c-2.9-6.9-5.3-2-6.1,0c-2.1,0-4.1,0.7-5.8,1.9L0,103.5c0,0,6.6,5.3,12.4,2.4
		v23.7c0,5.4,4.2,9.8,9.5,10.1v0c0,0.1,0,0.2,0,0.3c0,0.1,0,0.2,0.1,0.3v0.1l4.3,13.5l0,0c0.1,0.2,0.2,0.4,0.3,0.6
		c0.1,0.1,0.1,0.2,0.2,0.2c0.1,0.1,0.1,0.1,0.2,0.2l0,0c0.4,0.3,0.8,0.5,1.3,0.5c0.2,0,0.4,0,0.6-0.1l20.6-6.5
		c0.6-0.2,1.1-0.7,1.3-1.3l0,0l0,0c0.1-0.2,0.1-0.4,0.1-0.6c0,0,0-0.1,0-0.1c0-0.2,0-0.4-0.1-0.6l-2-6.5H50c5.5-0.1,10-4.5,9.9-10.1
		l-0.2-23.8C65.5,108.8,72.1,103.5,72.1,103.5"/>
	<path class="st3" d="M244.6,151.6h-1.5l2.8,6.6l-0.4,1.1c-0.1,0.3-0.3,0.6-0.5,0.8c-0.2,0.2-0.5,0.3-0.8,0.3c-0.2,0-0.4,0-0.6-0.1
		l-0.1,1.2c0.1,0,0.3,0.1,0.4,0.1h0.4c0.3,0,0.6,0,0.8-0.1c0.2-0.1,0.4-0.2,0.6-0.4c0.2-0.2,0.3-0.4,0.5-0.6
		c0.1-0.2,0.3-0.5,0.4-0.7l3.2-8.2h-1.4l-1.8,5.2l0,0L244.6,151.6z M235.7,151.6c0,0.2,0,0.5,0,0.7c0,0.3,0,0.5,0,0.7v5.2h1.3v-3.5
		c0-0.6,0.1-1.1,0.5-1.6c0.3-0.4,0.8-0.6,1.3-0.6c0.3,0,0.5,0,0.8,0.2c0.2,0.1,0.3,0.3,0.5,0.4c0.1,0.2,0.2,0.4,0.2,0.6
		c0,0.3,0.1,0.5,0.1,0.8v3.7h1.3v-4.1c0-0.4,0-0.7-0.1-1c-0.2-0.6-0.6-1.2-1.2-1.4c-0.3-0.2-0.7-0.2-1.1-0.2c-0.2,0-0.5,0-0.7,0.1
		c-0.2,0.1-0.4,0.1-0.6,0.3c-0.2,0.1-0.3,0.2-0.5,0.4c-0.1,0.1-0.3,0.3-0.3,0.5h0c0-0.1,0-0.3,0-0.5c0-0.2,0-0.4,0-0.6L235.7,151.6z
		 M232,154.1c-0.6,0-1.1,0-1.7,0.1c-0.5,0-1,0.1-1.5,0.3c-0.4,0.1-0.8,0.4-1.1,0.7c-0.3,0.3-0.4,0.8-0.4,1.2c0,0.3,0.1,0.7,0.2,1
		c0.1,0.3,0.3,0.5,0.6,0.6c0.2,0.2,0.5,0.3,0.8,0.3c0.3,0.1,0.5,0.1,0.8,0.1c0.5,0,0.9-0.1,1.3-0.3c0.4-0.2,0.7-0.5,0.9-0.8h0
		c0,0.3,0,0.6,0.1,0.9h1.2c0-0.2-0.1-0.4-0.1-0.6c0-0.3,0-0.5,0-0.7V154c0-0.3-0.1-0.7-0.2-1c-0.1-0.3-0.3-0.6-0.5-0.8
		c-0.2-0.2-0.5-0.4-0.9-0.6c-0.4-0.1-0.8-0.2-1.3-0.2c-0.5,0-1,0.1-1.5,0.3c-0.4,0.2-0.8,0.4-1.2,0.7l0.7,0.8
		c0.2-0.2,0.5-0.4,0.8-0.6c0.3-0.1,0.7-0.2,1.1-0.2c0.4,0,0.8,0.1,1.2,0.4c0.3,0.3,0.5,0.7,0.4,1.1L232,154.1z M232,155v0.3
		c0,0.5-0.2,1-0.5,1.4c-0.4,0.4-0.9,0.6-1.4,0.6c-0.2,0-0.3,0-0.5-0.1c-0.2,0-0.3-0.1-0.4-0.2c-0.1-0.1-0.2-0.2-0.3-0.3
		c-0.1-0.1-0.1-0.3-0.1-0.5c0-0.3,0.1-0.5,0.3-0.7c0.2-0.2,0.4-0.3,0.7-0.4c0.3-0.1,0.6-0.1,0.9-0.2c0.4,0,0.7,0,1,0L232,155z
		 M220.1,157.2L220.1,157.2c0.3,0.4,0.6,0.7,1,0.9c0.4,0.2,0.9,0.3,1.3,0.3c0.5,0,0.9-0.1,1.4-0.3c0.4-0.2,0.8-0.4,1-0.7
		c0.3-0.3,0.5-0.7,0.7-1.1c0.2-0.4,0.2-0.9,0.2-1.4c0-0.5-0.1-0.9-0.2-1.4c-0.2-0.4-0.4-0.8-0.7-1.1c-0.3-0.3-0.7-0.6-1-0.7
		c-0.4-0.2-0.9-0.3-1.3-0.3c-0.5,0-1,0.1-1.4,0.3c-0.4,0.2-0.7,0.5-0.9,0.9h0v-1h-1.3v9.9h1.3L220.1,157.2z M224.3,155.8
		c-0.1,0.3-0.2,0.5-0.4,0.8c-0.2,0.2-0.4,0.4-0.7,0.5c-0.3,0.1-0.6,0.2-0.9,0.2c-0.3,0-0.6-0.1-0.9-0.2c-0.3-0.1-0.5-0.3-0.7-0.5
		c-0.2-0.2-0.4-0.5-0.5-0.8c-0.2-0.6-0.2-1.2,0-1.8c0.1-0.3,0.3-0.5,0.5-0.8c0.2-0.2,0.4-0.4,0.7-0.5c0.3-0.1,0.6-0.2,0.9-0.2
		c0.3,0,0.7,0.1,0.9,0.2c0.3,0.1,0.5,0.3,0.7,0.5c0.2,0.2,0.3,0.5,0.4,0.8C224.4,154.6,224.4,155.2,224.3,155.8 M207.4,152.7
		L207.4,152.7c0-0.1,0-0.3,0-0.5s0-0.4,0-0.6h-1.3c0,0.2,0,0.5,0,0.7c0,0.3,0,0.5,0,0.7v5.2h1.3v-3.5c0-0.6,0.1-1.1,0.5-1.6
		c0.3-0.4,0.7-0.6,1.2-0.6c0.2,0,0.4,0,0.6,0.1c0.2,0.1,0.3,0.2,0.4,0.4c0.1,0.2,0.2,0.4,0.2,0.6c0,0.2,0.1,0.5,0.1,0.7v3.9h1.3
		v-3.6c0-0.3,0-0.5,0.1-0.8c0.1-0.2,0.2-0.5,0.3-0.7c0.1-0.2,0.3-0.4,0.5-0.5c0.2-0.1,0.5-0.2,0.8-0.2c0.2,0,0.5,0,0.7,0.2
		c0.2,0.1,0.3,0.3,0.4,0.4c0.1,0.2,0.2,0.4,0.2,0.6c0,0.3,0.1,0.5,0.1,0.8v3.7h1.3v-4.1c0-0.4,0-0.7-0.2-1c-0.1-0.3-0.2-0.6-0.5-0.9
		c-0.2-0.2-0.5-0.4-0.8-0.6c-0.3-0.2-0.7-0.2-1.1-0.2c-0.5,0-0.9,0.1-1.3,0.3c-0.4,0.2-0.7,0.6-0.9,1c-0.2-0.4-0.5-0.8-0.8-1
		c-0.4-0.2-0.8-0.3-1.2-0.3c-0.5,0-0.9,0.1-1.3,0.4C207.8,152,207.5,152.3,207.4,152.7 M204.1,153.5c-0.2-0.4-0.4-0.8-0.8-1.1
		c-0.3-0.3-0.7-0.6-1.1-0.7c-0.9-0.3-1.9-0.3-2.8,0c-0.4,0.2-0.8,0.4-1.1,0.7c-0.3,0.3-0.6,0.7-0.7,1.1c-0.4,0.9-0.4,1.9,0,2.8
		c0.2,0.4,0.4,0.8,0.7,1.1c0.3,0.3,0.7,0.6,1.1,0.7c0.9,0.3,1.9,0.3,2.8,0c0.9-0.3,1.5-1,1.9-1.8
		C204.4,155.4,204.4,154.4,204.1,153.5 M202.8,155.8c-0.1,0.3-0.2,0.5-0.4,0.8c-0.2,0.2-0.4,0.4-0.7,0.5c-0.6,0.3-1.3,0.3-1.9,0
		c-0.3-0.1-0.5-0.3-0.7-0.5c-0.2-0.2-0.3-0.5-0.4-0.8c-0.1-0.3-0.1-0.6-0.1-0.9c0-0.3,0-0.6,0.1-0.9c0.1-0.3,0.2-0.5,0.4-0.8
		c0.2-0.2,0.4-0.4,0.7-0.5c0.6-0.3,1.3-0.3,1.9,0c0.3,0.1,0.5,0.3,0.7,0.5c0.2,0.2,0.3,0.5,0.4,0.8c0.1,0.3,0.1,0.6,0.1,0.9
		C202.9,155.2,202.9,155.5,202.8,155.8 M196,152.5c-0.3-0.4-0.7-0.6-1.1-0.8c-0.4-0.2-0.9-0.3-1.4-0.3c-0.5,0-1,0.1-1.4,0.3
		c-0.4,0.2-0.8,0.4-1.1,0.7c-0.3,0.3-0.6,0.7-0.7,1.1c-0.2,0.5-0.3,0.9-0.3,1.4c0,0.5,0.1,1,0.3,1.4c0.2,0.4,0.4,0.8,0.7,1.1
		c0.3,0.3,0.7,0.5,1.1,0.7c0.5,0.2,0.9,0.3,1.4,0.3c0.5,0,1-0.1,1.4-0.3c0.4-0.2,0.8-0.4,1-0.8l-0.9-0.8c-0.2,0.2-0.4,0.4-0.7,0.5
		c-0.6,0.3-1.2,0.3-1.8,0c-0.3-0.1-0.5-0.3-0.7-0.5c-0.2-0.2-0.3-0.5-0.4-0.8c-0.2-0.6-0.2-1.2,0-1.8c0.1-0.3,0.2-0.5,0.4-0.8
		c0.2-0.2,0.4-0.4,0.7-0.5c0.3-0.1,0.6-0.2,0.9-0.2c0.3,0,0.6,0.1,0.9,0.2c0.3,0.1,0.5,0.3,0.6,0.5L196,152.5z M183.7,151.2
		c0.1,0.2,0.2,0.3,0.3,0.5c0.1,0.1,0.3,0.2,0.5,0.3c0.2,0.1,0.4,0.1,0.6,0.1c0.2,0,0.4,0,0.6-0.1c0.2-0.1,0.3-0.2,0.5-0.3
		c0.3-0.3,0.4-0.7,0.4-1.1c0-0.4-0.2-0.8-0.4-1.1c-0.1-0.1-0.3-0.2-0.5-0.3c-0.2-0.1-0.4-0.1-0.6-0.1c-0.2,0-0.4,0-0.6,0.1
		c-0.2,0.1-0.3,0.2-0.5,0.3c-0.1,0.1-0.2,0.3-0.3,0.5c-0.1,0.2-0.1,0.4-0.1,0.6C183.6,150.9,183.6,151.1,183.7,151.2 M183.9,150.2
		c0.1-0.3,0.4-0.6,0.7-0.7c0.2-0.1,0.3-0.1,0.5-0.1c0.2,0,0.3,0,0.5,0.1c0.2,0.1,0.3,0.2,0.4,0.3c0.1,0.1,0.2,0.3,0.3,0.4
		c0.1,0.3,0.1,0.7,0,1c-0.1,0.3-0.4,0.6-0.7,0.7c-0.2,0.1-0.3,0.1-0.5,0.1c-0.2,0-0.3,0-0.5-0.1c-0.2-0.1-0.3-0.2-0.4-0.3
		c-0.1-0.1-0.2-0.3-0.3-0.4C183.8,150.8,183.8,150.5,183.9,150.2 M184.5,151.5h0.3v-0.7h0.2l0.4,0.7h0.4l-0.5-0.7
		c0.1,0,0.2-0.1,0.3-0.2c0.1-0.1,0.1-0.2,0.1-0.3c0-0.1,0-0.2-0.1-0.2c0-0.1-0.1-0.1-0.1-0.2c-0.1,0-0.1-0.1-0.2-0.1
		c-0.1,0-0.2,0-0.2,0h-0.6V151.5z M184.8,150.5v-0.5h0.3c0.1,0,0.2,0,0.2,0c0.1,0,0.1,0.1,0.1,0.2c0,0.1,0,0.2-0.1,0.2
		c-0.1,0-0.2,0.1-0.3,0.1H184.8z M177.8,154.3c0-0.3,0.1-0.5,0.2-0.7c0.2-0.5,0.6-0.8,1.1-1c0.3-0.1,0.5-0.1,0.8-0.1
		c0.3,0,0.5,0,0.8,0.1c0.2,0.1,0.4,0.2,0.6,0.4c0.2,0.2,0.3,0.4,0.4,0.6c0.1,0.2,0.1,0.5,0.1,0.7H177.8z M182.8,153.4
		c-0.1-0.4-0.3-0.8-0.6-1.1c-0.3-0.3-0.6-0.5-1-0.7c-0.4-0.2-0.9-0.2-1.3-0.2c-0.5,0-0.9,0.1-1.4,0.3c-0.4,0.2-0.8,0.4-1.1,0.7
		c-0.3,0.3-0.6,0.7-0.7,1.1c-0.2,0.5-0.3,0.9-0.3,1.4c0,0.5,0.1,1,0.3,1.4c0.2,0.4,0.4,0.8,0.7,1.1c0.3,0.3,0.7,0.5,1.1,0.7
		c1,0.4,2,0.3,3-0.1c0.5-0.2,0.9-0.6,1.3-1l-0.9-0.7c-0.2,0.3-0.5,0.5-0.8,0.7c-0.8,0.5-1.9,0.4-2.6-0.3c-0.2-0.2-0.4-0.4-0.5-0.6
		c-0.1-0.2-0.2-0.5-0.2-0.8h5.2c0-0.1,0-0.2,0-0.2v-0.2C183,154.3,182.9,153.8,182.8,153.4 M171.8,153v5.2h1.3v-3.5
		c0-0.3,0-0.5,0.1-0.8c0.1-0.2,0.2-0.5,0.3-0.7c0.2-0.2,0.4-0.4,0.6-0.5c0.3-0.1,0.5-0.2,0.8-0.2c0.2,0,0.4,0,0.6,0.1l0.1-1.2
		c-0.2,0-0.3-0.1-0.5-0.1c-0.4,0-0.8,0.1-1.2,0.4c-0.4,0.2-0.6,0.6-0.8,0.9h0c0-0.1,0-0.3,0-0.5s0-0.4,0-0.6h-1.3c0,0.2,0,0.5,0,0.7
		S171.8,152.8,171.8,153 M169.7,153.5c-0.2-0.4-0.4-0.8-0.7-1.1c-0.3-0.3-0.7-0.6-1.1-0.7c-0.9-0.3-1.9-0.3-2.8,0
		c-0.9,0.3-1.5,1-1.9,1.8c-0.4,0.9-0.4,1.9,0,2.8c0.2,0.4,0.4,0.8,0.7,1.1c0.3,0.3,0.7,0.6,1.1,0.7c0.9,0.3,1.9,0.3,2.8,0
		c0.4-0.2,0.8-0.4,1.1-0.7c0.3-0.3,0.6-0.7,0.7-1.1C170.1,155.4,170.1,154.4,169.7,153.5 M168.4,155.8c-0.1,0.3-0.2,0.5-0.4,0.8
		c-0.2,0.2-0.4,0.4-0.7,0.5c-0.6,0.3-1.3,0.3-1.9,0c-0.3-0.1-0.5-0.3-0.7-0.5c-0.2-0.2-0.3-0.5-0.4-0.8c-0.1-0.3-0.2-0.6-0.2-0.9
		c0-0.3,0-0.6,0.2-0.9c0.1-0.3,0.2-0.5,0.4-0.8c0.2-0.2,0.4-0.4,0.7-0.5c0.6-0.3,1.3-0.3,1.9,0c0.3,0.1,0.5,0.3,0.7,0.5
		c0.2,0.2,0.3,0.5,0.4,0.8c0.1,0.3,0.1,0.6,0.1,0.9C168.6,155.2,168.5,155.5,168.4,155.8 M162,152.5c-0.3-0.4-0.7-0.6-1.1-0.8
		c-0.9-0.4-1.9-0.4-2.8,0c-0.4,0.2-0.8,0.4-1.1,0.7c-0.3,0.3-0.6,0.7-0.7,1.1c-0.2,0.5-0.3,0.9-0.3,1.4c0,0.5,0.1,1,0.3,1.4
		c0.2,0.4,0.4,0.8,0.7,1.1c0.3,0.3,0.7,0.5,1.1,0.7c0.5,0.2,0.9,0.3,1.4,0.3c0.5,0,1-0.1,1.4-0.3c0.4-0.2,0.8-0.4,1-0.8l-0.9-0.8
		c-0.2,0.2-0.4,0.4-0.7,0.5c-0.6,0.3-1.3,0.3-1.8,0c-0.3-0.1-0.5-0.3-0.7-0.5c-0.2-0.2-0.3-0.5-0.4-0.8c-0.2-0.6-0.2-1.2,0-1.8
		c0.1-0.3,0.2-0.5,0.4-0.8c0.2-0.2,0.4-0.4,0.7-0.5c0.3-0.1,0.6-0.2,0.9-0.2c0.3,0,0.6,0.1,0.9,0.2c0.3,0.1,0.5,0.3,0.6,0.5
		L162,152.5z M149.3,154.3c0-0.3,0.1-0.5,0.2-0.7c0.2-0.5,0.6-0.8,1.1-1c0.3-0.1,0.5-0.1,0.8-0.1c0.3,0,0.5,0,0.8,0.1
		c0.2,0.1,0.4,0.2,0.6,0.4c0.2,0.2,0.3,0.4,0.3,0.6c0.1,0.2,0.1,0.5,0.1,0.7H149.3z M154.3,153.4c-0.1-0.4-0.4-0.8-0.6-1.1
		c-0.3-0.3-0.6-0.5-1-0.7c-0.9-0.3-1.8-0.3-2.7,0c-0.4,0.2-0.8,0.4-1.1,0.7c-0.3,0.3-0.6,0.7-0.7,1.1c-0.2,0.5-0.3,0.9-0.3,1.4
		c0,0.5,0.1,1,0.3,1.4c0.3,0.8,1,1.5,1.8,1.8c1,0.4,2,0.3,3-0.1c0.5-0.2,0.9-0.6,1.3-1l-0.9-0.7c-0.2,0.3-0.5,0.5-0.8,0.7
		c-0.4,0.2-0.8,0.3-1.2,0.3c-0.3,0-0.6,0-0.8-0.2c-0.3-0.1-0.5-0.2-0.7-0.4c-0.2-0.2-0.4-0.4-0.5-0.6c-0.1-0.2-0.2-0.5-0.2-0.8h5.2
		c0-0.1,0-0.2,0-0.2v-0.2C154.6,154.3,154.5,153.9,154.3,153.4 M146.5,151.6h-1.8v-1.9h-1.3v1.9h-1.3v1.1h1.3v3.6
		c0,0.6,0.1,1.1,0.5,1.5c0.4,0.4,0.9,0.6,1.4,0.5c0.2,0,0.4,0,0.6-0.1c0.2,0,0.4-0.1,0.5-0.1l0-1.1c-0.1,0.1-0.2,0.1-0.4,0.1
		c-0.1,0-0.3,0-0.4,0c-0.3,0-0.5-0.1-0.7-0.3c-0.2-0.3-0.2-0.6-0.2-0.9v-3.4h1.8L146.5,151.6z M140.4,151.6h-1.3v6.6h1.3V151.6z
		 M140.4,148.6c-0.2-0.2-0.4-0.3-0.6-0.2c-0.2,0-0.5,0.1-0.6,0.2c-0.2,0.2-0.3,0.4-0.3,0.6c0,0.2,0.1,0.4,0.3,0.6
		c0.2,0.2,0.4,0.3,0.6,0.2c0.2,0,0.5-0.1,0.6-0.2c0.2-0.2,0.3-0.4,0.3-0.6C140.7,149,140.6,148.7,140.4,148.6 M136.6,149.2
		c-0.3-0.4-0.7-0.6-1.2-0.8c-0.5-0.2-1.1-0.3-1.6-0.3c-0.4,0-0.8,0.1-1.2,0.2c-0.4,0.1-0.8,0.3-1.1,0.5c-0.3,0.2-0.6,0.5-0.8,0.9
		c-0.4,0.8-0.4,1.6-0.1,2.4c0.1,0.3,0.3,0.6,0.6,0.8c0.2,0.2,0.5,0.4,0.8,0.5c0.3,0.1,0.6,0.2,0.9,0.3l0.9,0.3
		c0.3,0.1,0.5,0.2,0.7,0.4c0.2,0.1,0.4,0.3,0.5,0.5c0.1,0.2,0.2,0.5,0.2,0.7c0,0.3-0.1,0.5-0.2,0.8c-0.1,0.2-0.3,0.4-0.5,0.5
		c-0.2,0.1-0.4,0.2-0.6,0.3c-0.2,0.1-0.5,0.1-0.7,0.1c-0.9,0-1.7-0.4-2.2-1.2L130,157c0.4,0.5,0.9,0.8,1.4,1.1
		c1,0.4,2.1,0.5,3.1,0.2c0.4-0.1,0.8-0.3,1.1-0.5c0.3-0.3,0.6-0.6,0.8-0.9c0.2-0.4,0.3-0.9,0.3-1.3c0-0.4-0.1-0.8-0.3-1.2
		c-0.2-0.3-0.4-0.6-0.7-0.8c-0.3-0.2-0.6-0.4-0.9-0.5c-0.3-0.1-0.7-0.3-1-0.4l-0.8-0.3c-0.2-0.1-0.4-0.2-0.6-0.3
		c-0.2-0.1-0.3-0.3-0.4-0.5c-0.1-0.2-0.2-0.4-0.2-0.7c0-0.2,0.1-0.5,0.2-0.7c0.1-0.2,0.3-0.4,0.5-0.5c0.2-0.1,0.4-0.2,0.6-0.3
		c0.2-0.1,0.4-0.1,0.7-0.1c0.4,0,0.8,0.1,1.1,0.3c0.3,0.1,0.6,0.4,0.8,0.6L136.6,149.2z M123.1,154.1c-0.6,0-1.1,0-1.7,0.1
		c-0.5,0-1,0.1-1.5,0.3c-0.4,0.1-0.8,0.4-1.1,0.7c-0.3,0.3-0.4,0.8-0.4,1.2c0,0.3,0.1,0.7,0.2,1c0.1,0.3,0.3,0.5,0.6,0.6
		c0.2,0.2,0.5,0.3,0.8,0.3c0.3,0.1,0.5,0.1,0.8,0.1c0.5,0,0.9-0.1,1.3-0.3c0.4-0.2,0.7-0.5,0.9-0.8h0c0,0.3,0,0.6,0.1,0.9h1.2
		c0-0.2-0.1-0.4-0.1-0.6c0-0.3,0-0.5,0-0.7v-2.9c0-0.3-0.1-0.7-0.2-1c-0.1-0.3-0.3-0.6-0.5-0.8c-0.2-0.2-0.5-0.4-0.9-0.6
		c-0.4-0.1-0.8-0.2-1.3-0.2c-0.5,0-1,0.1-1.5,0.3c-0.4,0.2-0.8,0.4-1.2,0.7l0.7,0.8c0.5-0.5,1.2-0.8,1.9-0.8c0.4,0,0.8,0.1,1.2,0.4
		c0.3,0.3,0.5,0.7,0.4,1.1L123.1,154.1z M123.1,155v0.3c0,0.5-0.2,1-0.5,1.4c-0.4,0.4-0.9,0.6-1.4,0.6c-0.2,0-0.3,0-0.5-0.1
		c-0.2,0-0.3-0.1-0.4-0.2c-0.1-0.1-0.2-0.2-0.3-0.3c-0.1-0.1-0.1-0.3-0.1-0.5c0-0.3,0.1-0.5,0.3-0.7c0.2-0.2,0.4-0.3,0.7-0.4
		c0.3-0.1,0.6-0.1,0.9-0.2c0.3,0,0.7,0,1,0H123.1z"/>
</g>
</svg>
