<?xml version="1.0" encoding="utf-8"?>
<!-- Generator: Adobe Illustrator 25.2.0, SVG Export Plug-In . SVG Version: 6.00 Build 0)  -->
<svg version="1.1" id="Layer_1" xmlns="http://www.w3.org/2000/svg" xmlns:xlink="http://www.w3.org/1999/xlink" x="0px" y="0px"
	 viewBox="0 0 250 250" style="enable-background:new 0 0 250 250;" xml:space="preserve">
<style type="text/css">
	.st0{fill:#FF0000;}
</style>
<g>
	<g transform="translate(0.000000,402.000000) scale(0.100000,-0.100000)">
		<path d="M291.9,3020.4c-53-7.4-102.8-40.3-153.2-100.9c-30.3-36.7-58.2-59.4-106.2-86.4c-13.8-7.9-27.2-16.2-29.3-18.6
			c-5.5-6-3.8-22.9,3.6-40.3c7.9-17.9,10.7-18.6,63.9-17.2c55.8,1.9,53.9,0.5,56.1,42.7c1.9,34.4,4.1,41,12.4,41
			c16.9,0,42-20.3,73.3-58.9c13.4-16.9,25.8-31.7,27.7-33.2c2.9-2.1,80.4-16.5,106.2-19.6c7.6-1,11.5,0.7,28.6,11.9
			c25.3,16.9,49.2,29.8,80.6,43.4c29.8,12.9,37.2,13.8,39.4,4.8c1.9-7.9-0.2-33.4-5-62.3c-5.5-31.5-5-32.2,33.9-48.2
			c16.7-6.9,34.6-13.1,39.6-13.8c8.6-1.2,10-0.5,24.6,14.1c13.8,14.1,15.3,16.2,15.3,25.5c0,8.8-1.4,11.7-11.5,22.4
			c-44.4,47.7-66.6,82.1-85.2,131.7c-35.8,95.4-90,148.9-163.7,160.8C328,3022,306.3,3022.3,291.9,3020.4z M407.2,2956.2
			c13.4-6.7,25.1-19.3,34.1-36.7c6.4-12.9,7.4-37,1.7-50.3c-5.7-13.1-20.8-28.4-34.1-34.6c-29.6-14.1-70.1-0.7-84.7,27.7
			c-17.9,34.8,3.1,82.8,42.2,96.9C380.5,2964,393.4,2963.1,407.2,2956.2z"/>
		<path d="M367.1,2923.7c-20.8-14.3-22.4-47.7-2.6-58c20-10.3,40.3-5.5,48.2,11.7c2.4,5.5,4.5,12.2,4.5,15.3
			c0,8.4-5.7,20.3-14.1,28.6C393.4,2930.9,379.3,2931.8,367.1,2923.7z"/>
		<path d="M741.7,2788.2v-107.4h20.5h20.5l-1,74l-0.7,73.7l5.5-8.8c2.9-4.8,22.7-37.9,44.1-73.7l38.7-64.9l23.4-0.2h23.1v107.4
			v107.4h-21.7h-21.5l0.7-70.4c0.5-38.4,0-69.4-0.7-68.5c-0.7,1-20,32.4-42.5,70.4l-41,68.5h-23.9h-23.6V2788.2z"/>
		<path d="M1433.6,2788.2v-107.4h20.3h20.3v107.4v107.4h-20.3h-20.3V2788.2z"/>
		<path d="M2371.3,2870.5v-25.1h-8.4h-8.4v-17.9v-17.9h8.4h8.4v-46.5c0-36.5,0.7-48.7,3.6-55.4c8.1-19.1,21.7-27,46.5-27h16.7v19.1
			v19.1h-8.1c-6,0-9.5,1.7-13.1,6.2c-4.5,6-5,9.5-5,45.3v39.1h13.1h13.1v17.9v17.9H2425h-13.1v25.1v25.1h-20.3h-20.3V2870.5z"/>
		<path d="M970.5,2832.8c-18.1-6.9-38.9-23.4-34.1-27.7c1.2-1,7.9-5.7,15-10.5l12.9-8.6l9.1,7.4c17.9,14.3,45.1,11,53.4-6.9
			c2.1-4.5,3.6-8.8,2.9-9.3c-0.5-0.7-6.2,0-12.2,1.7c-16,4.1-45.8,1.7-57.5-4.3c-19.6-10.3-27.4-23.4-27.4-45.1
			c0-29.8,20.8-48.7,53.9-48.7c18.1,0,26,2.6,36.3,12.6l7.6,7.4v-11.2v-11.2h20.5h20.5l-1,58c-1,63.2-1.9,68.2-16,82.1
			c-12.4,12.6-22.7,16-50.3,16.7C987.5,2835.7,976.3,2835,970.5,2832.8z M1022.3,2746.4l8.4-3.3l-3.8-9.1
			c-4.5-11-10.7-16.5-22.9-20.3c-18.1-5.2-36,9.8-28.2,23.9c1.9,3.6,6.2,7.6,9.3,9.3C993.2,2751,1012,2750.7,1022.3,2746.4z"/>
		<path d="M1090.1,2738.1v-97.8h20.5h20.3l-0.7,29.8l-0.7,29.6l6-5.5c10.7-10.3,20.3-13.4,38.7-13.4c28.6,0.2,50.3,14.1,63.2,40.1
			c5.7,12.2,6.7,16.2,6.7,37.5c0,21.2-1,25.3-6.7,37.5c-12.9,26-34.6,39.8-63.2,40.1c-18.8,0-27.9-3.1-39.1-13.8l-6.7-6.2v10v10
			h-19.1h-19.1V2738.1z M1185.5,2792.3c11.7-7.6,17.7-19.3,17.7-33.9c0-41.5-51.1-54.9-69.4-17.9c-3.1,5.7-5.5,13.8-5.5,17.9
			c0,10.7,9.5,27.7,18.8,33.9C1158.1,2799.6,1174.8,2799.6,1185.5,2792.3z"/>
		<path d="M1307.2,2831.6c-6.2-2.4-16.2-9.5-24.1-17.2c-16.2-16-22.2-31.3-22.2-56.1c0-24.8,6-40.1,22.2-56.3
			c16.5-16.2,29.3-21.2,55.6-21.2c32.7,0,54.6,12.2,69,38.7c7.6,14.3,8.1,16.2,8.1,38.9c0,22.7-0.5,24.6-8.1,38.9
			c-14.6,26.7-36.3,38.9-70.1,38.4C1325.6,2835.7,1313.9,2834,1307.2,2831.6z M1357.3,2792.3c11.7-7.6,17.7-19.3,17.7-33.9
			c0-22.4-15.5-39.4-36.5-39.4s-36,16.5-36,39.4c0,6.2,1.7,15,3.8,19.6C1315.3,2796.5,1340.6,2803.7,1357.3,2792.3z"/>
		<path d="M1534.1,2828.5c-17.4-8.8-31.3-24.6-37.2-42.9c-6.4-19.1-4.3-49.6,4.8-66.1c7.6-14.3,17.9-24.1,32.9-32
			c7.6-4.1,15.3-5.5,33.2-6.2c20.5-1,24.3-0.5,35.8,4.8c14.8,6.9,27.4,17.4,33.6,27.9l4.3,7.2l-16.9,8.6l-16.9,8.6l-7.9-8.4
			c-12.9-13.8-26.5-16.7-44.4-9.5c-9.8,3.8-16.9,11.9-20,22l-1.7,5.2h55.4h55.4l-1.7,18.6c-1.9,24.8-11.9,45.6-27,56.1
			c-15.3,11-23.1,13.1-46.3,13.4C1551,2835.9,1547.5,2835.2,1534.1,2828.5z M1586.4,2798.2c4.5-2.1,10.3-7.6,12.6-11.7l4.5-7.9
			h-33.9h-33.9l4.5,7.4C1548.9,2801.1,1569.9,2806.6,1586.4,2798.2z"/>
		<path d="M1709.7,2832.6c-32.4-11.7-51.1-42-48.9-79.7c1.4-21.7,8.1-37.7,21.5-51.1c15-15,26.2-19.3,52.3-20.5
			c21.2-1,24.1-0.5,37.7,5.5c28.6,12.9,43.9,37.9,43.9,71.6c0,32.9-14.8,57.7-42.5,70.6c-12.4,6-17.2,6.9-34.6,6.9
			C1727.8,2835.7,1714.7,2834.2,1709.7,2832.6z M1757.4,2792.7c22.9-14.3,22.9-54.4,0-68.7c-11.2-6.9-27.2-6.7-37.7,0.5
			c-9.3,6.2-18.8,23.1-18.8,33.9c0,10.7,9.5,27.7,18.8,33.9C1730.2,2799.4,1746.2,2799.6,1757.4,2792.7z"/>
		<path d="M1834.5,2758.4v-77.5h20.3h20.3v43.7c0,48,2.4,57.7,15.5,68c10.3,8.1,25.8,7.2,34.8-1.7l6.9-6.9v-51.5v-51.5h21.7h21.7
			l-1,56.8c-0.7,52.7-1.2,57.3-6.2,68.5c-3.1,6.4-7.2,13.8-9.5,16.5c-16.9,19.1-65.6,17.7-81.6-2.6l-4.8-6.2v11.2v11h-19.1h-19.1
			V2758.4z"/>
		<path d="M2252,2833.8c-13.8-4.5-38.2-21.2-38.2-26.2c0-1,6.4-6.2,14.3-11.7l14.3-10.3l9.8,7.9c8.8,7.2,11.5,7.9,25.1,7.9
			c13.8,0,15.7-0.7,22.2-7.2c3.8-3.8,7.6-9.8,8.6-12.9c1.7-5.2,1.2-5.5-6.4-3.6c-4.3,1.2-18.1,2.1-30.5,2.1
			c-24.3,0-32.9-2.9-46-15.3c-10.5-9.5-13.6-17.7-13.6-34.1c0-28.4,18.1-47.5,46.5-49.2c21.5-1.4,30.1,0.7,41.3,10.5l10,8.6v-9.8
			v-9.8h20.5h20.5l-1,55.6l-0.7,55.6l-7.2,14.1c-6,11.2-9.5,15-20.3,21.2c-12.2,6.7-15,7.4-38.2,7.9
			C2269.2,2835.4,2255.4,2835,2252,2833.8z M2299.5,2747.4c13.4-4.8,6.9-22.4-11.2-31c-11.9-6-22.4-4.8-30.8,3.1
			c-13.6,12.6-0.7,30.5,21.7,30.5C2286.2,2750,2295.2,2748.8,2299.5,2747.4z"/>
		<path d="M76.7,2653.4c-7.2-5-7.4-17.9-0.7-23.9c3.8-3.6,7.2-4.1,19.6-2.6c17.7,1.7,48-1.7,74-8.4c21-5.2,30.8-5.7,34.8-1.7
			c3.8,3.8,3.6,19.8-0.2,22.9c-1.7,1.4-13.8,5.5-26.7,8.8C146.2,2657,85.3,2659.8,76.7,2653.4z"/>
		<path d="M447,2652.2c-30.8-6.4-40.1-10.3-44.1-17.4c-3.1-5.7-3.1-7.2,0-12.9c3.3-5.7,5.2-6.7,14.3-6.4c6,0,21,2.6,33.4,5.7
			c16.7,3.8,30.3,5.5,51.5,5.7c20.5,0.2,30.1,1.2,32.7,3.6c5.5,4.5,5,16-0.7,21.7c-4.3,4.3-7.9,4.8-35.1,4.5
			C478.8,2656.7,461.1,2655.1,447,2652.2z"/>
		<path d="M288.4,2599.9c-1.2-2.6-2.4-13.6-2.4-24.8c0-17.9-0.5-20.5-5.5-25.3c-5-4.5-7.4-5-19.1-3.6c-15.7,1.9-20.8-1-20.8-11
			c0-4.5,2.1-8.6,6.2-11.7c8.4-6.7,34.1-6.9,46.5-0.7c8.1,4.1,8.6,4.1,15.5,0c8.8-5.5,34.1-5.7,43.9-0.7c7.6,3.8,10.7,10.5,8.4,17.9
			c-2.6,8.1-9.8,10.5-22,6.9c-9.5-2.6-11.2-2.4-16.9,1.9c-6,4.5-6.4,6.2-7.6,27.2c-0.7,12.4-2.1,23.9-3.1,25.5
			C308.2,2606.4,291.2,2605.2,288.4,2599.9z"/>
		<path d="M135.7,2593.3c-18.4-3.1-41.3-11.5-44.6-16.5c-4.8-7.4-3.1-15,4.3-20.5c6.2-4.8,6.4-4.8,22.7,0.5
			c12.2,3.8,25.5,5.7,50.6,6.9c37.7,1.7,39.1,2.4,38.2,16.9c-1,11.9-7.4,14.3-38.9,13.8C153.6,2594.5,139,2593.7,135.7,2593.3z"/>
		<path d="M406.7,2589.4c-6.9-6.9-7.9-12.9-2.9-19.8c3.1-4.1,7.6-4.8,37.7-6c24.3-1.2,38.4-3.1,49.4-6.4c17.2-5.5,24.8-4.3,29.1,5.2
			c8.4,18.4-18.1,29.8-73.5,32l-33.6,1L406.7,2589.4z"/>
	</g>
	<g>
		<path d="M219.9,131.2c-2.2,2.2-5,3.2-8.1,3.2c-7.9,0-11.3-5.5-11.3-11c0-5.6,3.6-11.3,11.3-11.3c2.9,0,5.7,1.1,7.8,3.3l-2.7,2.6
			c-1.4-1.4-3.3-2-5.2-2c-5.2,0-7.4,3.8-7.4,7.4c0,3.5,2.1,7.2,7.4,7.2c1.9,0,4-0.8,5.4-2.2L219.9,131.2z"/>
	</g>
	<circle class="st0" cx="248.1" cy="132" r="1.9"/>
</g>
</svg>
