<?xml version="1.0" encoding="UTF-8" standalone="no"?>
<svg
   xmlns:dc="http://purl.org/dc/elements/1.1/"
   xmlns:cc="http://creativecommons.org/ns#"
   xmlns:rdf="http://www.w3.org/1999/02/22-rdf-syntax-ns#"
   xmlns:svg="http://www.w3.org/2000/svg"
   xmlns="http://www.w3.org/2000/svg"
   xmlns:sodipodi="http://sodipodi.sourceforge.net/DTD/sodipodi-0.dtd"
   xmlns:inkscape="http://www.inkscape.org/namespaces/inkscape"
   version="1.1"
   id="Layer_1"
   x="0px"
   y="0px"
   viewBox="0 0 250.14832 68.837082"
   xml:space="preserve"
   sodipodi:docname="octane-ai2.svg"
   width="250.14832"
   height="68.837082"
   inkscape:version="1.0.2-2 (e86c870879, 2021-01-15)"><metadata
   id="metadata289"><rdf:RDF><cc:Work
       rdf:about=""><dc:format>image/svg+xml</dc:format><dc:type
         rdf:resource="http://purl.org/dc/dcmitype/StillImage" /><dc:title></dc:title></cc:Work></rdf:RDF></metadata><defs
   id="defs287" /><sodipodi:namedview
   pagecolor="#ffffff"
   bordercolor="#666666"
   borderopacity="1"
   objecttolerance="10"
   gridtolerance="10"
   guidetolerance="10"
   inkscape:pageopacity="0"
   inkscape:pageshadow="2"
   inkscape:window-width="1680"
   inkscape:window-height="987"
   id="namedview285"
   showgrid="false"
   fit-margin-top="0"
   fit-margin-left="0"
   fit-margin-right="0"
   fit-margin-bottom="0"
   inkscape:zoom="3.02"
   inkscape:cx="125.14831"
   inkscape:cy="34.4"
   inkscape:window-x="1672"
   inkscape:window-y="82"
   inkscape:window-maximized="1"
   inkscape:current-layer="Layer_1" />
<style
   type="text/css"
   id="style246">
	.st0{fill-rule:evenodd;clip-rule:evenodd;fill:#E88323;}
	.st1{fill-rule:evenodd;clip-rule:evenodd;fill:url(#SVGID_1_);fill-opacity:0.2;}
	.st2{fill-rule:evenodd;clip-rule:evenodd;fill:#262941;}
	.st3{fill:#262941;}
	.st4{fill-rule:evenodd;clip-rule:evenodd;fill:#F8981D;}
	.st5{fill-rule:evenodd;clip-rule:evenodd;fill:url(#SVGID_2_);fill-opacity:0.4;}
</style>
<g
   id="g282"
   transform="translate(0.14830961,-90.6)">
	<path
   class="st0"
   d="m 37.1,132 c -2.3,2.1 -5.6,2.8 -8.4,1.3 -2.3,-1.3 -3.9,-3.8 -3.9,-6.4 0,-1.9 0.6,-3.6 1.6,-5.3 1.1,-2 2.4,-3.8 3.5,-5.8 1,-2 1.9,-4.1 2.1,-6.3 0.5,-3.9 -0.6,-7.6 -2.3,-11.1 -0.6,-1.3 -1.4,-2.6 -2.1,-3.9 -0.5,-0.8 -1,-1.6 -1.5,-2.4 -0.5,-0.6 -1,-1.5 -1.9,-1.5 -0.4,0 -0.6,0.1 -0.9,0.3 -0.4,0.3 -0.6,0.8 -0.6,1.4 0,0.8 0.1,1.4 0.1,2.1 0,0.6 0,1.4 -0.1,2 -0.1,1.4 -0.5,2.8 -0.9,4 -0.4,1.3 -1,2.6 -1.6,3.8 -0.5,1 -1.1,1.9 -1.9,2.8 -3.3,4 -7.8,6.5 -11.3,10.1 -5.4,5.5 -8,13.8 -6.9,21.5 0.1,1 0.4,2 0.6,2.9 4,2.4 8.6,3.9 13.7,3.9 11.5,0 21.9,-7.3 25.6,-17.9 -0.7,1.7 -1.7,3.4 -2.9,4.5 z"
   id="path248" />
	
		<linearGradient
   id="SVGID_1_"
   gradientUnits="userSpaceOnUse"
   x1="20.0431"
   y1="161.342"
   x2="20.0431"
   y2="106.6085"
   gradientTransform="matrix(1,0,0,-1,0,252)">
		<stop
   offset="0"
   style="stop-color:#FFFFFF"
   id="stop250" />
		<stop
   offset="1"
   style="stop-color:#FFFFFF;stop-opacity:0"
   id="stop252" />
	</linearGradient>
	<path
   class="st1"
   d="m 37.1,132 c -2.3,2.1 -5.6,2.8 -8.4,1.3 -2.3,-1.3 -3.9,-3.8 -3.9,-6.4 0,-1.9 0.6,-3.6 1.6,-5.3 1.1,-2 2.4,-3.8 3.5,-5.8 1,-2 1.9,-4.1 2.1,-6.3 0.5,-3.9 -0.6,-7.6 -2.3,-11.1 -0.6,-1.3 -1.4,-2.6 -2.1,-3.9 -0.5,-0.8 -1,-1.6 -1.5,-2.4 -0.5,-0.6 -1,-1.5 -1.9,-1.5 -0.4,0 -0.6,0.1 -0.9,0.3 -0.4,0.3 -0.6,0.8 -0.6,1.4 0,0.8 0.1,1.4 0.1,2.1 0,0.6 0,1.4 -0.1,2 -0.1,1.4 -0.5,2.8 -0.9,4 -0.4,1.3 -1,2.6 -1.6,3.8 -0.5,1 -1.1,1.9 -1.9,2.8 -3.3,4 -7.8,6.5 -11.3,10.1 -5.4,5.5 -8,13.8 -6.9,21.5 0.1,1 0.4,2 0.6,2.9 4,2.4 8.6,3.9 13.7,3.9 11.5,0 21.9,-7.3 25.6,-17.9 -0.7,1.7 -1.7,3.4 -2.9,4.5 z"
   id="path255"
   style="fill:url(#SVGID_1_)" />
	<path
   class="st2"
   d="m 60.8,131.6 c 0,-7.1 5.5,-12.4 12.4,-12.4 6.8,0 12.3,5.1 12.3,12.4 0,7.1 -5.5,12.4 -12.3,12.4 -6.9,0 -12.4,-5.1 -12.4,-12.4 z m 18.2,0 c 0,-4.5 -2.3,-7.4 -5.9,-7.4 -3.8,0 -6,2.9 -6,7.4 0,4.5 2.3,7.4 6,7.4 3.7,0.1 5.9,-2.9 5.9,-7.4 z"
   id="path257" />
	<path
   class="st2"
   d="m 88.3,131.6 c 0,-7.6 5.8,-12.4 12.4,-12.4 3.1,0 6.3,0.9 8.1,2.4 v 5.5 c -1.9,-1.6 -4.3,-2.8 -7.1,-2.8 -3.9,0 -6.9,2.5 -6.9,7.3 0,4.8 3,7.3 6.9,7.3 2.8,0 5.3,-1.1 7.1,-2.8 v 5.5 c -1.9,1.5 -5,2.4 -8.1,2.4 -6.6,0 -12.4,-4.6 -12.4,-12.4 z"
   id="path259" />
	<path
   class="st2"
   d="m 119.4,125 h -7.3 v -4.6 h 20.5 v 4.6 h -7.3 v 18 h -6 v -18 z"
   id="path261" />
	<path
   class="st2"
   d="m 141.7,120.3 h 5.3 l 9.8,22.7 h -6.3 l -2,-4.9 H 140 l -2,4.9 h -6 z m 5.3,13.9 -2.8,-7.1 -2.8,7.1 z"
   id="path263" />
	<path
   class="st2"
   d="m 160.8,120.3 h 4.6 l 10.4,13 v -13 h 5.5 V 143 h -4.6 l -10.5,-13 v 13 h -5.4 z"
   id="path265" />
	<path
   class="st2"
   d="M 187.6,120.3 H 204 v 4.6 h -10 v 3.8 h 8 v 4.6 h -8 v 5 h 10 v 4.6 h -16.4 z"
   id="path267" />
	<path
   class="st2"
   d="m 226.1,120.3 h 5.3 l 9.8,22.7 h -6.3 l -2,-4.9 h -8.5 l -1.9,4.9 h -6 z m 5.4,13.9 -2.8,-7.1 -2.8,7.1 z"
   id="path269" />
	<path
   class="st3"
   d="m 250,120.3 h -6.1 V 143 h 6.1 z"
   id="path271" />
	<path
   class="st4"
   d="m 50,130.9 c -0.3,-1.9 -0.8,-3.9 -1.5,-5.6 -0.5,-1.3 -1.1,-2.4 -1.8,-3.5 -0.5,-0.8 -1,-1.4 -1.5,-2.1 -0.5,-0.5 -0.9,-1.4 -1.8,-1.4 -0.9,0 -1.4,0.8 -1.5,1.5 -0.4,2.4 -0.8,4.9 -1.6,7.1 -3.8,10.5 -13.9,17.9 -25.8,17.9 -5,0 -9.6,-1.3 -13.7,-3.6 0.3,1 0.6,1.9 1,2.9 2.3,5.3 6.3,9.6 11.3,12.4 8.4,4.5 19.3,3.8 26.9,-1.9 2.5,-1.8 4.6,-4.1 6.3,-6.6 1.6,-2.5 2.8,-5.4 3.4,-8.3 0.7,-2.8 0.8,-6 0.3,-8.8 z"
   id="path273" />
	
		<linearGradient
   id="SVGID_2_"
   gradientUnits="userSpaceOnUse"
   x1="25.5858"
   y1="133.7877"
   x2="25.5858"
   y2="92.657997"
   gradientTransform="matrix(1,0,0,-1,0,252)">
		<stop
   offset="0"
   style="stop-color:#FFFFFF"
   id="stop275" />
		<stop
   offset="1"
   style="stop-color:#FFFFFF;stop-opacity:0"
   id="stop277" />
	</linearGradient>
	<path
   class="st5"
   d="m 50,130.9 c -0.3,-1.9 -0.8,-3.9 -1.5,-5.6 -0.5,-1.3 -1.1,-2.4 -1.8,-3.5 -0.5,-0.8 -1,-1.4 -1.5,-2.1 -0.5,-0.5 -0.9,-1.4 -1.8,-1.4 -0.9,0 -1.4,0.8 -1.5,1.5 -0.4,2.4 -0.8,4.9 -1.6,7.1 -3.8,10.5 -13.9,17.9 -25.8,17.9 -5,0 -9.6,-1.3 -13.7,-3.6 0.3,1 0.6,1.9 1,2.9 2.3,5.3 6.3,9.6 11.3,12.4 8.4,4.5 19.3,3.8 26.9,-1.9 2.5,-1.8 4.6,-4.1 6.3,-6.6 1.6,-2.5 2.8,-5.4 3.4,-8.3 0.7,-2.8 0.8,-6 0.3,-8.8 z"
   id="path280"
   style="fill:url(#SVGID_2_)" />
</g>
</svg>
