<?xml version="1.0" encoding="UTF-8" standalone="no"?>
<svg
   xmlns:dc="http://purl.org/dc/elements/1.1/"
   xmlns:cc="http://creativecommons.org/ns#"
   xmlns:rdf="http://www.w3.org/1999/02/22-rdf-syntax-ns#"
   xmlns:svg="http://www.w3.org/2000/svg"
   xmlns="http://www.w3.org/2000/svg"
   xmlns:sodipodi="http://sodipodi.sourceforge.net/DTD/sodipodi-0.dtd"
   xmlns:inkscape="http://www.inkscape.org/namespaces/inkscape"
   id="Layer_1"
   viewBox="0 0 9.8706507 2.2997824"
   width="224.74159"
   height="52.398964"
   version="1.1"
   sodipodi:docname="paymo.svg"
   inkscape:version="1.0.2-2 (e86c870879, 2021-01-15)">
  <metadata
     id="metadata267">
    <rdf:RDF>
      <cc:Work
         rdf:about="">
        <dc:format>image/svg+xml</dc:format>
        <dc:type
           rdf:resource="http://purl.org/dc/dcmitype/StillImage" />
        <dc:title></dc:title>
      </cc:Work>
    </rdf:RDF>
  </metadata>
  <defs
     id="defs265" />
  <sodipodi:namedview
     pagecolor="#ffffff"
     bordercolor="#666666"
     borderopacity="1"
     objecttolerance="10"
     gridtolerance="10"
     guidetolerance="10"
     inkscape:pageopacity="0"
     inkscape:pageshadow="2"
     inkscape:window-width="1680"
     inkscape:window-height="987"
     id="namedview263"
     showgrid="false"
     fit-margin-top="0"
     fit-margin-left="0"
     fit-margin-right="0"
     fit-margin-bottom="0"
     inkscape:zoom="2.6167614"
     inkscape:cx="74.617885"
     inkscape:cy="19.159454"
     inkscape:window-x="1672"
     inkscape:window-y="82"
     inkscape:window-maximized="1"
     inkscape:current-layer="Layer_1"
     inkscape:document-rotation="0" />
  <style
     id="style254">.st0{fill:#383838}.st1{fill:#4bad28}</style>
  <g
     id="g272"
     transform="matrix(0.08989664,0,0,0.08989697,0,-0.0037695)">
    <path
       class="st0"
       d="m 99.7,0 c -5.6,0 -10.1,4.5 -10.1,10.1 0,5.6 4.5,10.1 10.1,10.1 5.6,0 10.1,-4.5 10.1,-10.1 C 109.8,4.5 105.3,0 99.7,0 Z m 0,14.9 c -2.7,0 -4.8,-2.2 -4.8,-4.8 0,-2.6 2.2,-4.8 4.8,-4.8 2.6,0 4.8,2.2 4.8,4.8 0,2.6 -2.1,4.8 -4.8,4.8 z M 41.9,10.1 V 9.8 C 41.8,6.1 39.7,2.9 36.6,1.2 35.2,0.4 33.5,0 31.8,0 26.2,0 21.7,4.5 21.7,10.1 c 0,5.6 4.5,10.1 10.1,10.1 1.7,0 3.4,-0.4 4.8,-1.2 0,0.7 0.6,1.2 1.3,1.2 h 2.8 c 0.7,0 1.3,-0.6 1.3,-1.3 v -8.8 z m -10.1,4.8 c -2.7,0 -4.8,-2.2 -4.8,-4.8 0,-2.6 2.2,-4.8 4.8,-4.8 2.7,0 4.8,2.2 4.8,4.8 0,2.6 -2.1,4.8 -4.8,4.8 z m 56.4,3.7 V 8.8 C 88.2,4 84.5,0 80,0 77.9,0 75.9,0.9 74.5,2.3 73,0.9 71,0 68.9,0 64.4,0 60.7,4 60.7,8.9 v 10.2 c 0.1,0.6 0.6,1.1 1.2,1.1 h 2.8 c 0.7,0 1.2,-0.5 1.2,-1.1 V 8.4 c 0,-1.7 1.3,-3.1 2.9,-3.1 1.6,0 2.9,1.4 2.9,3.1 v 10.7 c 0.1,0.6 0.6,1.1 1.2,1.1 h 2.8 c 0.7,0 1.2,-0.5 1.2,-1.1 V 8.4 c 0,-1.7 1.3,-3.1 2.9,-3.1 1.6,0 2.9,1.4 2.9,3.1 v 10.7 c 0.1,0.6 0.6,1.1 1.2,1.1 h 2.8 c 0.7,0 1.2,-0.5 1.2,-1.1 v -0.5 z"
       id="path256" />
    <path
       class="st1"
       d="m 5.3,10 c 0,0.5 -0.6,0.9 -1.1,0.5 L 0.3,7.6 C 0.1,7.4 0,7.2 0,7 V 2.3 C 0,1.9 0.3,1.9 0.5,2 L 2.4,3.4 C 2.7,3.6 3.1,3.6 3.4,3.2 4.5,1.7 6.6,0.3 8.8,0 H 8.9 C 9.2,0 9.6,0.2 9.7,0.7 V 4.5 C 9.7,5.1 9.4,5.3 9,5.4 6.9,6 5.3,7.8 5.3,10 Z"
       id="path258" />
    <path
       class="st0"
       d="m 11.4,0.1 c -0.5,0 -0.8,0.3 -0.8,0.7 v 3.9 c 0,0.4 0.3,0.6 0.6,0.7 2.2,0.5 3.8,2.4 3.8,4.7 0,2.7 -2.2,4.8 -4.8,4.8 C 9,14.9 7.9,14.4 7,13.8 L 0.5,8.8 C 0.2,8.7 0,8.8 0,9 v 15.3 c 0,0.7 0.6,1.3 1.3,1.3 H 4 c 0.7,0 1.3,-0.6 1.3,-1.3 V 19 c 1.4,0.8 3.1,1.2 4.8,1.2 5.6,0 10.1,-4.5 10.1,-10.1 0,-5.1 -3.8,-9.4 -8.8,-10 z M 60.2,0 H 56.9 C 56.2,0 55.5,0.5 55.3,1.2 L 55.1,1.6 52.8,6.7 51.1,10.5 47,1.5 46.9,1.1 C 46.6,0.5 45.9,0 45.2,0 H 41.9 C 41.2,0 40.8,0.5 41,1.2 l 0.1,0.4 v 0.1 c 0,0.1 0.1,0.1 0.1,0.1 l 6.9,15.2 -3,6.7 -0.1,0.1 v 0.1 l -0.1,0.4 c -0.2,0.7 0.2,1.2 0.9,1.2 h 3.3 c 0.7,0 1.4,-0.5 1.6,-1.2 l 0.2,-0.4 2.3,-5.2 7.7,-16.9 C 60.9,1.7 61,1.7 61,1.7 V 1.6 L 61.1,1.2 C 61.3,0.5 60.9,0 60.2,0 Z"
       id="path260" />
  </g>
</svg>
