<?xml version="1.0" encoding="UTF-8" standalone="no"?>
<svg
   xmlns:dc="http://purl.org/dc/elements/1.1/"
   xmlns:cc="http://creativecommons.org/ns#"
   xmlns:rdf="http://www.w3.org/1999/02/22-rdf-syntax-ns#"
   xmlns:svg="http://www.w3.org/2000/svg"
   xmlns="http://www.w3.org/2000/svg"
   xmlns:sodipodi="http://sodipodi.sourceforge.net/DTD/sodipodi-0.dtd"
   xmlns:inkscape="http://www.inkscape.org/namespaces/inkscape"
   version="1.1"
   id="Layer_1"
   x="0px"
   y="0px"
   viewBox="0 0 250.10001 79.300003"
   xml:space="preserve"
   sodipodi:docname="proof2.svg"
   width="250.10001"
   height="79.300003"
   inkscape:version="1.0.2-2 (e86c870879, 2021-01-15)"><metadata
   id="metadata111"><rdf:RDF><cc:Work
       rdf:about=""><dc:format>image/svg+xml</dc:format><dc:type
         rdf:resource="http://purl.org/dc/dcmitype/StillImage" /><dc:title></dc:title></cc:Work></rdf:RDF></metadata><defs
   id="defs109" /><sodipodi:namedview
   pagecolor="#ffffff"
   bordercolor="#666666"
   borderopacity="1"
   objecttolerance="10"
   gridtolerance="10"
   guidetolerance="10"
   inkscape:pageopacity="0"
   inkscape:pageshadow="2"
   inkscape:window-width="1680"
   inkscape:window-height="987"
   id="namedview107"
   showgrid="false"
   fit-margin-top="0"
   fit-margin-left="0"
   fit-margin-right="0"
   fit-margin-bottom="0"
   inkscape:zoom="3.02"
   inkscape:cx="125"
   inkscape:cy="39.6"
   inkscape:window-x="1672"
   inkscape:window-y="82"
   inkscape:window-maximized="1"
   inkscape:current-layer="Layer_1" />
<style
   type="text/css"
   id="style85">
	.st0{fill:url(#SVGID_1_);}
	.st1{fill:#220B6C;}
</style>
<g
   id="g104"
   transform="translate(0,-85.4)">
	
		<linearGradient
   id="SVGID_1_"
   gradientUnits="userSpaceOnUse"
   x1="38.521702"
   y1="166.67171"
   x2="38.521702"
   y2="87.3283"
   gradientTransform="matrix(1,0,0,-1,0,252)">
		<stop
   offset="0"
   style="stop-color:#FF1493"
   id="stop87" />
		<stop
   offset="1"
   style="stop-color:#FBB138"
   id="stop89" />
	</linearGradient>
	<path
   class="st0"
   d="m 26,115.1 h 51 c -1.2,5.6 -4.4,10.6 -9,14.2 -4.6,3.6 -10.5,5.6 -16.5,5.6 H 0 c 1.2,-5.6 4.4,-10.6 9,-14.2 4.6,-3.6 10.5,-5.6 16.5,-5.6 z m 51,-9.9 C 75.8,99.6 72.6,94.6 68,91 63.4,87.4 57.5,85.4 51.5,85.4 h -26 v 19.8 z m -51.5,59.5 c 6,0 11.8,-2 16.5,-5.6 4.6,-3.6 7.8,-8.6 9,-14.2 H 25.5 Z"
   id="path92"
   style="fill:url(#SVGID_1_)" />
	<path
   class="st1"
   d="m 135.8,129.9 c 0,9 -6.6,14.9 -15.5,14.9 -3.9,0 -7.3,-1.2 -9.8,-3.9 V 155 h -7.1 v -39.5 h 6.8 v 3.8 c 2.4,-2.8 5.9,-4.1 10.1,-4.1 8.9,-0.1 15.5,5.7 15.5,14.7 z m -7.3,0 c 0,-5.5 -3.9,-9.1 -9,-9.1 -5.1,0 -9.1,3.5 -9.1,9.1 0,5.5 3.9,9.1 9.1,9.1 5.2,0 9,-3.6 9,-9.1 z"
   id="path94" />
	<path
   class="st1"
   d="m 157.9,115.1 v 6.4 c -0.5,-0.1 -1.1,-0.2 -1.7,-0.2 -5.4,0 -8.8,3 -8.8,9 v 14.1 h -7.2 v -29 h 6.8 v 4.2 c 2.1,-3 5.8,-4.5 10.9,-4.5 z"
   id="path96" />
	<path
   class="st1"
   d="m 160,129.9 c 0,-8.7 6.8,-14.8 16.2,-14.8 9.5,0 16.3,6.1 16.3,14.8 0,8.7 -6.8,14.9 -16.3,14.9 -9.3,0 -16.2,-6.2 -16.2,-14.9 z m 25.3,0 c 0,-5.5 -3.9,-9.1 -9.1,-9.1 -5.2,0 -9,3.5 -9,9.1 0,5.5 3.9,9.1 9,9.1 5.2,0 9.1,-3.6 9.1,-9.1 z"
   id="path98" />
	<path
   class="st1"
   d="m 195.7,129.9 c 0,-8.7 6.8,-14.8 16.2,-14.8 9.5,0 16.3,6.1 16.3,14.8 0,8.7 -6.8,14.9 -16.3,14.9 -9.4,0 -16.2,-6.2 -16.2,-14.9 z m 25.2,0 c 0,-5.5 -3.9,-9.1 -9.1,-9.1 -5.2,0 -9,3.5 -9,9.1 0,5.5 3.9,9.1 9,9.1 5.2,0 9.1,-3.6 9.1,-9.1 z"
   id="path100" />
	<path
   class="st1"
   d="m 239.6,113.8 v 1.7 h 8.4 v 5.4 h -8.2 v 23.4 h -7.1 v -30.6 c 0,-6.1 3.9,-10 11,-10 2.4,0 4.8,0.5 6.4,1.6 l -2,5.1 c -1.1,-0.8 -2.5,-1.2 -3.9,-1.2 -3,0 -4.6,1.5 -4.6,4.6 z"
   id="path102" />
</g>
</svg>
