<?xml version="1.0" encoding="utf-8"?>
<!-- Generator: Adobe Illustrator 25.4.1, SVG Export Plug-In . SVG Version: 6.00 Build 0)  -->
<svg version="1.1" id="Layer_1" xmlns="http://www.w3.org/2000/svg" xmlns:xlink="http://www.w3.org/1999/xlink" x="0px" y="0px"
	 viewBox="0 0 250 250" style="enable-background:new 0 0 250 250;" xml:space="preserve">
<style type="text/css">
	.st0{fill:#022242;}
</style>
<g id="Layer_2_00000175292025825965123700000014602515378418108300_">
	<g id="Layer_1-2">
		<path class="st0" d="M76.1,121.8c-3.4-0.8-4-1.2-4-2.3v-0.1c0-0.9,0.9-1.5,2.5-1.5c2.4,0.1,4.8,0.9,6.8,2.4l3.4-4.7
			c-2.6-2.1-5.7-3.2-9.8-3.2c-5.8,0-9.2,3.2-9.2,7.7v0.1c0,4.9,4,6.4,9.1,7.5c3.3,0.8,4.1,1.3,4.1,2.3v0.1c0,1-1.1,1.6-2.9,1.6
			c-2.8,0-5.4-1-7.8-2.9l-3.7,4.4c3,2.6,6.7,4,11,4c5.8,0,9.4-2.9,9.4-7.8v-0.1C84.9,124.7,81.6,123,76.1,121.8z"/>
		<path class="st0" d="M95.9,113.8h-6.4v4.3h-3v5.5h3v7.3c0,4.4,2,6.1,5.9,6.1c1.8,0,3.4-0.4,4.3-1.1v-5.1c-0.8,0.4-1.4,0.6-2.3,0.6
			c-1.2,0-1.6-0.5-1.6-1.9v-6.1h4.3v-5.5h-4.3V113.8z"/>
		<path class="st0" d="M112.2,117.7c-5.9,0-10.2,4.4-10.2,9.7v0.1c0,5.3,4.3,9.6,10.2,9.6c6,0,10.3-4.4,10.3-9.7v-0.1
			C122.4,122.1,118.1,117.7,112.2,117.7z M116.4,127.5c0,2.2-1.2,4.1-3.6,4.1c-2.3,0-3.6-1.9-3.6-4.2v-0.1c0-2.3,1.2-4.2,3.6-4.2
			c2,0.1,3.6,1.8,3.6,3.8V127.5z"/>
		<path class="st0" d="M130.8,121.9v-3.8h-6v18.7h6v-5.9c0-4.3,2.3-5.6,5.7-5.6h0.3v-7.5C133.8,117.7,132.5,119.4,130.8,121.9z"/>
		<path class="st0" d="M148.5,129.3l-3.7-11.2H138l7.3,18.3c-0.3,0.5-0.9,0.8-1.5,0.8c-0.7,0-1.8-0.4-2.9-1l-2,4.6
			c1.8,1.1,3.8,1.6,5.9,1.6c3.7,0,5.5-1.7,7.1-6.1l6.8-18.2H152L148.5,129.3z"/>
		<path class="st0" d="M172.3,131.1c-3.4,0-5.7-2.8-5.7-6.4v-0.1c0-3.5,2.4-6.4,5.7-6.4c2.3,0,3.9,1.1,5.2,2.8l5-3.9
			c-2.1-2.9-5.3-5-10.2-5c-7.3,0-12.6,5.5-12.6,12.5v0.1c0,7.2,5.5,12.4,12.4,12.4c5.3,0,8.3-2.3,10.6-5.4l-5-3.6
			C176.3,130,174.8,131.1,172.3,131.1z"/>
		<path class="st0" d="M197.5,117.7c-2.6,0-5,1.4-5.4,3v-9.4h-6.8v25.5h6.8v-10.2c0-2.1,0.8-3.2,2.4-3.2s2.3,1.1,2.3,3.2v10.2h6.8
			v-12.2C203.6,120.4,201.4,117.7,197.5,117.7z"/>
		<rect x="207.4" y="118.1" class="st0" width="6" height="18.7"/>
		<rect x="207.4" y="111.3" class="st0" width="6" height="5.1"/>
		<path class="st0" d="M226.1,117.7c-5.5,0-9.3,4.3-9.3,9.7v0.1c0,5.7,4,9.6,9.9,9.6c3.7,0,6.2-1.5,8-3.8l-3.6-3
			c-1.3,1.3-2.6,2.1-4.1,2.1c-1.8,0.1-3.5-1.1-4-2.9h12.4c0-0.4,0.1-1.1,0.1-1.5C235.4,122.6,232.5,117.7,226.1,117.7z M222.8,125.7
			c0.3-2.1,1.5-3.4,3.2-3.4c1.8,0,3,1.2,3.3,3.4H222.8z"/>
		<path class="st0" d="M247.5,116.2c1,0,2,0.1,2.5,0.4v-4.6c-0.8-0.3-2.3-0.5-4.2-0.5c-2.2,0-3.5,0.5-4.6,1.6s-1.3,2.7-1.3,4.8v0.7
			h-2.1v5.1h2.1v13.2h6v-13.2h4.3v-5.1h-4.3V118C245.7,117,246.5,116.2,247.5,116.2z"/>
		<path class="st0" d="M48.2,116.6C40.4,93.7,1,96.4,0,122.3c-0.8,29.8,40,37.1,48.8,9.1C50.1,126.6,49.9,121.4,48.2,116.6z
			 M44.2,119.3c0.1,0.5-0.7,1-1.7,1.2c-1,0.1-1.9-0.2-1.9-0.7c-0.1-0.5,0.7-1,1.7-1.2C43.3,118.5,44.2,118.8,44.2,119.3z M47.2,127
			c-1.3,12.8-15.7,20.2-26.9,13.8c-0.2-0.1-0.3-0.3-0.3-0.5c-0.1-1-0.1-2.1,0-3.2c0.1-1.7,1-3.2,1.3-3.8c1.1-2.1,3.1-3.6,4.9-4.5
			c3-1.5,4.8-2.8,4.1-5.9c-0.6-3.1-3.7-5.1-6.8-4.4c-4.7,1-8.8,3.8-11.4,7.9c-0.2,0.3-0.5,0.3-0.8,0.2c-0.1-0.1-0.2-0.3-0.3-0.4l0,0
			l0-0.9c0.1-16.3,19.4-24.1,30.7-13c0.2,0.2,0.2,0.6,0,0.8c-0.1,0.1-0.2,0.2-0.3,0.2c-2,0.3-3.4,2.1-3.2,4.2l1,4.5
			c0.1,0.5,0.6,0.8,1.1,0.8C44.4,122,47.9,122.3,47.2,127L47.2,127z M25.9,123.8c1.1-0.3,2.2-0.1,2.4,0.6c0.2,0.7-0.5,1.5-1.7,1.8
			c-1.1,0.3-2.2,0.1-2.4-0.6C24,124.9,24.8,124.1,25.9,123.8L25.9,123.8z"/>
		<path class="st0" d="M37.3,126.5c-1.8,0.8-3,2.2-2.6,3.1c0.4,0.9,2.2,0.9,4,0c1.8-0.8,3-2.2,2.6-3.1
			C40.9,125.7,39.1,125.6,37.3,126.5z"/>
		<path class="st0" d="M39.5,133.8H27.1c-0.3,0-0.5,0.2-0.5,0.5c0,0,0,0,0,0c0.1,1.4,0.8,5,5.5,5c4.5,0,6.9-3.2,7.8-4.8
			c0.1-0.2,0.1-0.6-0.2-0.7C39.6,133.8,39.5,133.8,39.5,133.8z"/>
	</g>
</g>
</svg>
